<svg xmlns="http://www.w3.org/2000/svg" width="20" height="22" viewBox="0 0 20 22">
  <g id="user" transform="translate(-16)">
    <g id="Group_11040" data-name="Group 11040" transform="translate(16)">
      <path id="Path_19885" data-name="Path 19885" d="M32.554,14.825l-3.124-.642a.729.729,0,0,1-.573-.719v-.736a8.533,8.533,0,0,0,.6-1.094,6.4,6.4,0,0,1,.486-.886A4.755,4.755,0,0,0,31.39,8.4a2.245,2.245,0,0,0-.207-1.722A13.29,13.29,0,0,0,30.94,3.7,3.29,3.29,0,0,0,30.2,1.339,2.186,2.186,0,0,0,28.873.769a2.249,2.249,0,0,1-.484-.116A4.925,4.925,0,0,0,25.973,0,5.62,5.62,0,0,0,21,3.508a8.839,8.839,0,0,0-.2,2.655l-.02.515A2.388,2.388,0,0,0,20.6,8.4a4.739,4.739,0,0,0,1.446,2.348,6.509,6.509,0,0,1,.491.89,8.966,8.966,0,0,0,.6,1.093v.735a.729.729,0,0,1-.574.719l-3.124.642A4.383,4.383,0,0,0,16,19.139v1.395A1.45,1.45,0,0,0,17.429,22H34.571A1.45,1.45,0,0,0,36,20.533V19.139A4.382,4.382,0,0,0,32.554,14.825Z" transform="translate(-16)"/>
    </g>
  </g>
</svg>
