<svg id="Group_62" data-name="Group 62" xmlns="http://www.w3.org/2000/svg" width="189.73" height="56.217" viewBox="0 0 189.73 56.217">
  <path id="Path_385" data-name="Path 385" d="M190.783,51.89a5.385,5.385,0,0,1-5.391,5.384H8.96a5.392,5.392,0,0,1-5.4-5.384V8.952a5.4,5.4,0,0,1,5.4-5.391H185.39a5.391,5.391,0,0,1,5.391,5.391V51.89Z" transform="translate(-2.31 -2.31)" fill="#fff"/>
  <path id="Path_386" data-name="Path 386" d="M183.081,56.217H6.65A6.65,6.65,0,0,1,0,49.581V6.644A6.655,6.655,0,0,1,6.65,0H183.08a6.657,6.657,0,0,1,6.65,6.644V49.58a6.649,6.649,0,0,1-6.648,6.637Z" transform="translate(0 0)" fill="#a6a6a6"/>
  <path id="Path_387" data-name="Path 387" d="M190.783,51.89a5.385,5.385,0,0,1-5.391,5.384H8.96a5.392,5.392,0,0,1-5.4-5.384V8.952a5.4,5.4,0,0,1,5.4-5.391H185.39a5.391,5.391,0,0,1,5.391,5.391V51.89Z" transform="translate(-2.31 -2.31)"/>
  <path id="Path_388" data-name="Path 388" d="M75.573,43.947a8.149,8.149,0,0,1,3.882-6.838,8.35,8.35,0,0,0-6.575-3.554c-2.766-.291-5.449,1.655-6.858,1.655-1.437,0-3.607-1.627-5.945-1.579a8.754,8.754,0,0,0-7.368,4.493c-3.186,5.515-.81,13.619,2.243,18.077,1.527,2.185,3.312,4.621,5.647,4.535,2.285-.093,3.139-1.455,5.9-1.455,2.732,0,3.534,1.455,5.916,1.4,2.452-.038,4-2.193,5.47-4.4a18.018,18.018,0,0,0,2.5-5.093,7.884,7.884,0,0,1-4.809-7.246Zm-4.5-13.324a8.02,8.02,0,0,0,1.836-5.748,8.174,8.174,0,0,0-5.284,2.733,7.632,7.632,0,0,0-1.884,5.536A6.751,6.751,0,0,0,71.073,30.623Z" transform="translate(-33.208 -16.135)" fill="#fff"/>
  <g id="Group_60" data-name="Group 60" transform="translate(59.664 25.303)">
    <path id="Path_390" data-name="Path 390" d="M185.61,91h-3.193l-1.749-5.5h-6.08L172.921,91h-3.109l6.025-18.708h3.721Zm-5.47-7.8-1.582-4.885q-.251-.749-.944-3.524h-.056q-.278,1.194-.889,3.524L175.114,83.2Zm20.935.89a7.638,7.638,0,0,1-1.87,5.439,5.484,5.484,0,0,1-4.159,1.777,4.164,4.164,0,0,1-3.853-1.913v7.078h-3V81.945q0-2.161-.111-4.434h2.637l.167,2.138h.056a5.334,5.334,0,0,1,8.537-.53A7.458,7.458,0,0,1,201.075,84.09Zm-3.054.11a5.56,5.56,0,0,0-.889-3.249,3.072,3.072,0,0,0-2.61-1.331,3.118,3.118,0,0,0-2.012.735,3.41,3.41,0,0,0-1.18,1.93,3.912,3.912,0,0,0-.139.912v2.251a3.609,3.609,0,0,0,.9,2.485,3,3,0,0,0,2.346,1.014,3.073,3.073,0,0,0,2.637-1.3A5.741,5.741,0,0,0,198.021,84.2Zm18.574-.11a7.638,7.638,0,0,1-1.87,5.439,5.487,5.487,0,0,1-4.161,1.777,4.164,4.164,0,0,1-3.853-1.913v7.078h-3V81.945q0-2.161-.111-4.434h2.637l.167,2.138h.056a5.336,5.336,0,0,1,8.538-.53A7.466,7.466,0,0,1,216.6,84.09Zm-3.056.11a5.561,5.561,0,0,0-.89-3.249,3.067,3.067,0,0,0-2.607-1.331,3.131,3.131,0,0,0-2.015.735,3.408,3.408,0,0,0-1.178,1.93,4,4,0,0,0-.141.912v2.251a3.621,3.621,0,0,0,.9,2.485,3,3,0,0,0,2.348,1.014,3.069,3.069,0,0,0,2.637-1.3A5.741,5.741,0,0,0,213.539,84.2Zm20.408,1.553a5,5,0,0,1-1.664,3.887,7.375,7.375,0,0,1-5.1,1.638,8.9,8.9,0,0,1-4.846-1.165l.693-2.5a8.342,8.342,0,0,0,4.331,1.167A4.087,4.087,0,0,0,230,88.018a2.493,2.493,0,0,0,.946-2.038,2.612,2.612,0,0,0-.779-1.916,7.223,7.223,0,0,0-2.582-1.442q-4.915-1.832-4.916-5.359a4.731,4.731,0,0,1,1.735-3.775,6.863,6.863,0,0,1,4.6-1.472,9.083,9.083,0,0,1,4.248.888l-.752,2.443a7.429,7.429,0,0,0-3.6-.86,3.657,3.657,0,0,0-2.48.777,2.224,2.224,0,0,0-.752,1.7,2.291,2.291,0,0,0,.862,1.832,9.711,9.711,0,0,0,2.72,1.442,9.22,9.22,0,0,1,3.553,2.275,4.74,4.74,0,0,1,1.143,3.245Zm9.937-5.993h-3.3v6.55q0,2.5,1.749,2.5a5.268,5.268,0,0,0,1.332-.139l.083,2.276a6.794,6.794,0,0,1-2.331.332,3.594,3.594,0,0,1-2.777-1.084,5.314,5.314,0,0,1-1-3.637v-6.8h-1.969V77.505h1.969v-2.47l2.945-.888v3.358h3.3Zm14.88,4.385a7.4,7.4,0,0,1-1.777,5.107,6.337,6.337,0,0,1-4.941,2.054,6.04,6.04,0,0,1-4.735-1.968,7.174,7.174,0,0,1-1.763-4.968,7.339,7.339,0,0,1,1.818-5.134,6.3,6.3,0,0,1,4.9-2,6.167,6.167,0,0,1,4.774,1.971A7.081,7.081,0,0,1,258.765,84.145Zm-3.108.069a6.04,6.04,0,0,0-.8-3.183,2.968,2.968,0,0,0-2.694-1.607,3.011,3.011,0,0,0-2.749,1.607,6.139,6.139,0,0,0-.8,3.239,6.021,6.021,0,0,0,.8,3.184,3.075,3.075,0,0,0,5.418-.027,6.063,6.063,0,0,0,.828-3.214Zm12.857-4.067a5.219,5.219,0,0,0-.945-.083,2.83,2.83,0,0,0-2.444,1.195,4.5,4.5,0,0,0-.748,2.664V91h-3V81.759q0-2.124-.087-4.247H263.9l.11,2.581h.083a4.627,4.627,0,0,1,1.5-2.138,3.626,3.626,0,0,1,2.167-.723,4.815,4.815,0,0,1,.749.055l0,2.859Zm13.408,3.471a7.029,7.029,0,0,1-.11,1.359h-8.994a3.912,3.912,0,0,0,1.3,3.056,4.463,4.463,0,0,0,2.942.942,9.95,9.95,0,0,0,3.639-.637l.47,2.079a11.254,11.254,0,0,1-4.524.834,6.559,6.559,0,0,1-4.93-1.844,6.819,6.819,0,0,1-1.79-4.954,7.726,7.726,0,0,1,1.668-5.078,5.746,5.746,0,0,1,4.718-2.164,5.029,5.029,0,0,1,4.417,2.164,7.279,7.279,0,0,1,1.19,4.243Zm-2.859-.777a4.056,4.056,0,0,0-.582-2.3,2.618,2.618,0,0,0-2.388-1.251,2.843,2.843,0,0,0-2.386,1.222,4.477,4.477,0,0,0-.887,2.331l6.243,0Z" transform="translate(-169.812 -72.016)" fill="#fff"/>
  </g>
  <g id="Group_61" data-name="Group 61" transform="translate(61.419 9.212)">
    <path id="Path_391" data-name="Path 391" d="M176.962,35.973a19.147,19.147,0,0,1-2.156-.11V26.818a16.324,16.324,0,0,1,2.538-.191c3.438,0,5.021,1.691,5.021,4.448C182.366,34.255,180.5,35.973,176.962,35.973Zm.5-8.186a6.016,6.016,0,0,0-1.187.1v6.876a7.782,7.782,0,0,0,1,.041c2.253,0,3.535-1.282,3.535-3.683A3,3,0,0,0,177.465,27.787Zm9.835,8.255a3.156,3.156,0,0,1-3.193-3.41,3.229,3.229,0,0,1,3.3-3.506,3.131,3.131,0,0,1,3.193,3.4,3.249,3.249,0,0,1-3.3,3.519Zm.056-5.84c-1.064,0-1.746,1-1.746,2.387,0,1.365.7,2.36,1.732,2.36s1.732-1.064,1.732-2.388C189.075,31.211,188.393,30.2,187.356,30.2Zm14.3-.94-2.074,6.63h-1.351l-.859-2.879a21.831,21.831,0,0,1-.533-2.141h-.028a14.348,14.348,0,0,1-.532,2.141l-.914,2.879H194l-1.952-6.63h1.514l.751,3.152q.266,1.126.45,2.128h.028c.108-.558.285-1.255.546-2.114l.942-3.164h1.2l.9,3.1c.218.751.4,1.487.533,2.183h.039a19.087,19.087,0,0,1,.45-2.183l.806-3.1h1.447Zm7.636,6.63h-1.474V32.084c0-1.172-.45-1.76-1.337-1.76A1.53,1.53,0,0,0,205,31.948v3.943H203.53V31.156c0-.586-.014-1.215-.055-1.9h1.3l.069,1.023h.041a2.382,2.382,0,0,1,2.1-1.158c1.392,0,2.306,1.064,2.306,2.8v3.97Zm4.064,0h-1.475V26.219h1.475Zm5.373.15a3.157,3.157,0,0,1-3.193-3.41,3.229,3.229,0,0,1,3.3-3.506,3.13,3.13,0,0,1,3.193,3.4,3.247,3.247,0,0,1-3.3,3.519Zm.055-5.84c-1.064,0-1.746,1-1.746,2.387,0,1.365.7,2.36,1.731,2.36s1.732-1.064,1.732-2.388C220.5,31.211,219.818,30.2,218.78,30.2Zm9.057,5.689-.107-.763h-.039a2.264,2.264,0,0,1-1.939.914,1.928,1.928,0,0,1-2.032-1.951c0-1.636,1.419-2.483,3.875-2.483v-.122c0-.873-.463-1.31-1.377-1.31a3.1,3.1,0,0,0-1.732.492l-.3-.969a4.24,4.24,0,0,1,2.277-.574c1.732,0,2.607.914,2.607,2.743V34.31a10.01,10.01,0,0,0,.1,1.583h-1.329Zm-.2-3.3c-1.637,0-2.458.4-2.458,1.337a.939.939,0,0,0,1.011,1.036,1.411,1.411,0,0,0,1.447-1.35Zm8.592,3.3-.069-1.064h-.041a2.223,2.223,0,0,1-2.129,1.215c-1.6,0-2.783-1.406-2.783-3.384,0-2.074,1.228-3.534,2.9-3.534a1.993,1.993,0,0,1,1.87.9h.03V26.219h1.475V34.1c0,.641.015,1.241.055,1.787h-1.312Zm-.218-3.9a1.6,1.6,0,0,0-1.552-1.719c-1.093,0-1.76.969-1.76,2.332,0,1.337.693,2.252,1.731,2.252a1.655,1.655,0,0,0,1.582-1.76Zm10.828,4.052a3.156,3.156,0,0,1-3.192-3.41,3.229,3.229,0,0,1,3.3-3.506,3.13,3.13,0,0,1,3.193,3.4,3.247,3.247,0,0,1-3.3,3.519Zm.055-5.84c-1.063,0-1.745,1-1.745,2.387,0,1.365.7,2.36,1.731,2.36s1.732-1.064,1.732-2.388c0-1.35-.679-2.359-1.718-2.359Zm11.173,5.689h-1.475V32.084c0-1.172-.45-1.76-1.337-1.76a1.529,1.529,0,0,0-1.472,1.624v3.943H252.3V31.156c0-.586-.014-1.215-.055-1.9h1.3l.069,1.023h.041a2.381,2.381,0,0,1,2.1-1.16c1.392,0,2.308,1.064,2.308,2.8Zm9.915-5.525h-1.621v3.219c0,.82.284,1.229.858,1.229a2.9,2.9,0,0,0,.654-.069l.041,1.119a3.265,3.265,0,0,1-1.143.164c-1.161,0-1.856-.641-1.856-2.32V30.366h-.967v-1.1h.967V28.047l1.447-.437v1.65h1.621Zm7.8,5.525h-1.472V32.112c0-1.186-.449-1.787-1.337-1.787a1.445,1.445,0,0,0-1.475,1.569v4h-1.472V26.219H271.5V30.2h.03a2.236,2.236,0,0,1,1.994-1.078c1.4,0,2.261,1.091,2.261,2.824v3.943Zm7.993-2.961h-4.422a1.9,1.9,0,0,0,2.09,1.964,4.981,4.981,0,0,0,1.787-.313l.229,1.023a5.537,5.537,0,0,1-2.225.409,3.078,3.078,0,0,1-3.3-3.342c0-2.033,1.257-3.561,3.136-3.561,1.694,0,2.758,1.255,2.758,3.152a2.84,2.84,0,0,1-.051.668Zm-1.351-1.05c0-1.023-.516-1.746-1.458-1.746a1.748,1.748,0,0,0-1.611,1.746Z" transform="translate(-174.806 -26.219)" fill="#fff"/>
  </g>
</svg>
