<svg id="_037-photo-camera" data-name="037-photo-camera" xmlns="http://www.w3.org/2000/svg" width="21.022" height="18.969" viewBox="0 0 21.022 18.969">
  <g id="Group_10914" data-name="Group 10914">
    <g id="Group_10913" data-name="Group 10913" transform="translate(0 0)">
      <path id="Path_19639" data-name="Path 19639" d="M20.2,37.4a.821.821,0,0,0,.821-.821V31.241a3.288,3.288,0,0,0-3.285-3.285H16.491a.821.821,0,0,1-.777-.557l-.248-.73A2.463,2.463,0,0,0,13.133,25H7.887A2.47,2.47,0,0,0,5.57,26.627l-.284.787a.823.823,0,0,1-.772.542H3.285A3.288,3.288,0,0,0,0,31.241v9.443a3.288,3.288,0,0,0,3.285,3.285H17.737a3.288,3.288,0,0,0,3.285-3.285.821.821,0,0,0-1.642,0,1.644,1.644,0,0,1-1.642,1.642H3.285a1.644,1.644,0,0,1-1.642-1.642V31.241A1.644,1.644,0,0,1,3.285,29.6H4.513A2.47,2.47,0,0,0,6.83,27.972l.284-.787a.823.823,0,0,1,.772-.542h5.246a.821.821,0,0,1,.777.557l.248.73a2.463,2.463,0,0,0,2.332,1.67h1.247a1.644,1.644,0,0,1,1.642,1.642v5.338A.821.821,0,0,0,20.2,37.4Z" transform="translate(0 -25)" fill="#fff"/>
    </g>
  </g>
  <g id="Group_10916" data-name="Group 10916" transform="translate(5.42 5.42)">
    <g id="Group_10915" data-name="Group 10915" transform="translate(0 0)">
      <path id="Path_19640" data-name="Path 19640" d="M137.132,157a5.132,5.132,0,1,0,5.132,5.132A5.138,5.138,0,0,0,137.132,157Zm0,8.622a3.49,3.49,0,1,1,3.49-3.49A3.494,3.494,0,0,1,137.132,165.622Z" transform="translate(-132 -157)" fill="#fff"/>
    </g>
  </g>
</svg>
