<svg xmlns="http://www.w3.org/2000/svg" width="53" height="53" viewBox="0 0 53 53">
  <g id="chat_1_" data-name="chat (1)" transform="translate(0)">
    <g id="Group_10854" data-name="Group 10854" transform="translate(0 0)">
      <g id="Group_10853" data-name="Group 10853" transform="translate(0 0)">
        <path id="Path_475" data-name="Path 475" d="M48.5,31.735a2.07,2.07,0,0,0-3.839,1.552L47.1,39.319l-7.242-3.192a2.071,2.071,0,0,0-1.648-.01,19.962,19.962,0,0,1-7.88,1.591C19.247,37.708,11.8,29.03,11.8,20.924c0-9.254,8.312-16.784,18.529-16.784S48.86,11.67,48.86,20.924a16.884,16.884,0,0,1-.184,2.372,2.07,2.07,0,1,0,4.1.611A20.892,20.892,0,0,0,53,20.924,20.01,20.01,0,0,0,46.294,6.065,23.528,23.528,0,0,0,30.33,0,23.529,23.529,0,0,0,14.367,6.065,20.121,20.121,0,0,0,7.743,19.143,16.736,16.736,0,0,0,0,33.076a16.062,16.062,0,0,0,3.175,9.6L.151,50.154a2.07,2.07,0,0,0,2.754,2.67l8.719-3.844a19.7,19.7,0,0,0,6.9,1.23c.052,0,.1,0,.153-.008a19.6,19.6,0,0,0,9.741-2.64,17.822,17.822,0,0,0,6.263-6.1,23.825,23.825,0,0,0,4.3-1.2l11.107,4.9a2.07,2.07,0,0,0,2.755-2.67ZM18.53,46.064c-.028,0-.056,0-.084,0A15.527,15.527,0,0,1,12.4,44.832a2.069,2.069,0,0,0-1.648.01L5.9,46.979,7.465,43.11a2.07,2.07,0,0,0-.344-2.119,12.084,12.084,0,0,1-2.98-7.915,12.317,12.317,0,0,1,3.827-8.82,20.9,20.9,0,0,0,6.124,11.192,23.142,23.142,0,0,0,15.062,6.373A15.215,15.215,0,0,1,18.53,46.064Z" transform="translate(0 0)" fill="#fff"/>
        <circle id="Ellipse_737" data-name="Ellipse 737" cx="2" cy="2" r="2" transform="translate(28.783 19)" fill="#fff"/>
        <circle id="Ellipse_738" data-name="Ellipse 738" cx="2" cy="2" r="2" transform="translate(36.784 19)" fill="#fff"/>
        <circle id="Ellipse_739" data-name="Ellipse 739" cx="2" cy="2" r="2" transform="translate(20.783 19)" fill="#fff"/>
      </g>
    </g>
  </g>
</svg>
