<svg xmlns="http://www.w3.org/2000/svg" width="27.183" height="26.068" viewBox="0 0 27.183 26.068">
  <g id="calendar_1_" data-name="calendar (1)" transform="translate(0.151 2.961)">
    <g id="cake" transform="translate(-0.001 -13.425)">
      <g id="Group_10957" data-name="Group 10957" transform="translate(8.782 25.843)">
        <g id="Group_10956" data-name="Group 10956">
          <path id="Path_19832" data-name="Path 19832" d="M168.3,301.079a.534.534,0,0,0-.03-.1.518.518,0,0,0-.048-.091.536.536,0,0,0-.066-.08.524.524,0,0,0-.572-.113.52.52,0,0,0-.091.048.511.511,0,0,0-.145.145.518.518,0,0,0-.048.091.528.528,0,0,0-.03.1.517.517,0,0,0-.01.1.527.527,0,0,0,.01.1.553.553,0,0,0,.03.1.529.529,0,0,0,.048.09.5.5,0,0,0,.065.08.533.533,0,0,0,.08.066.519.519,0,0,0,.091.048.531.531,0,0,0,.1.03.52.52,0,0,0,.1.01.529.529,0,0,0,.371-.154.536.536,0,0,0,.066-.08.529.529,0,0,0,.048-.09.559.559,0,0,0,.03-.1.527.527,0,0,0,.01-.1A.521.521,0,0,0,168.3,301.079Z" transform="translate(-167.26 -300.657)" stroke="#000" stroke-width="0.5"/>
        </g>
      </g>
      <g id="Group_10959" data-name="Group 10959" transform="translate(0 10.614)">
        <g id="Group_10958" data-name="Group 10958" transform="translate(0 0)">
          <path id="Path_19833" data-name="Path 19833" d="M26.358,35.332H25.27V27.414A1.573,1.573,0,0,0,23.7,25.843h-.9V20.663a1.573,1.573,0,0,0-1.572-1.572H19.618V17.567A2.13,2.13,0,0,0,21,14.558l-1.441-2.919a.525.525,0,0,0-.942,0l-1.441,2.919a2.13,2.13,0,0,0,1.387,3.009v1.524h-4.6V16.835a2.13,2.13,0,0,0,1.387-3.009l-1.441-2.919a.525.525,0,0,0-.942,0L11.53,13.826a2.13,2.13,0,0,0,1.387,3.009v2.257h-4.6V17.569A2.133,2.133,0,0,0,9.7,14.558L8.26,11.639a.525.525,0,0,0-.942,0L5.878,14.558a2.133,2.133,0,0,0,1.387,3.011v1.523H5.653a1.573,1.573,0,0,0-1.572,1.572v5.179h-.9a1.573,1.573,0,0,0-1.572,1.572v7.918H.525a.525.525,0,0,0,0,1.05H26.358a.525.525,0,0,0,0-1.05ZM18.328,16.267a1.081,1.081,0,0,1-.205-1.244l.97-1.965.97,1.965a1.082,1.082,0,0,1-1.735,1.244Zm-5.652-.733a1.081,1.081,0,0,1-.205-1.244l.97-1.965.97,1.965a1.082,1.082,0,0,1-1.735,1.244Zm-5.652.733a1.081,1.081,0,0,1-.205-1.244l.97-1.965.97,1.965a1.082,1.082,0,0,1-1.735,1.244ZM5.653,20.142H21.23a.522.522,0,0,1,.522.522v1.648a2.54,2.54,0,0,1-.775.106,2.459,2.459,0,0,1-1.593-.54,3.662,3.662,0,0,0-4.351,0,2.619,2.619,0,0,1-3.185,0,3.477,3.477,0,0,0-2.175-.716,3.477,3.477,0,0,0-2.175.716,2.458,2.458,0,0,1-1.593.54,2.542,2.542,0,0,1-.774-.106V20.663h0A.522.522,0,0,1,5.653,20.142ZM24.22,35.332H2.663V30.286a2.665,2.665,0,0,1,1.068.5,3.477,3.477,0,0,0,2.175.716,3.477,3.477,0,0,0,2.175-.716,2.458,2.458,0,0,1,1.593-.54,2.459,2.459,0,0,1,1.593.54,3.661,3.661,0,0,0,4.35,0,2.62,2.62,0,0,1,3.186,0,3.662,3.662,0,0,0,4.351,0,2.666,2.666,0,0,1,1.068-.5Zm0-6.108a3.544,3.544,0,0,0-1.65.684,2.62,2.62,0,0,1-3.186,0,3.662,3.662,0,0,0-4.351,0,2.619,2.619,0,0,1-3.185,0,3.477,3.477,0,0,0-2.175-.716,3.477,3.477,0,0,0-2.175.716,2.458,2.458,0,0,1-1.593.54,2.458,2.458,0,0,1-1.593-.54,3.543,3.543,0,0,0-1.65-.684V27.414a.522.522,0,0,1,.522-.522h4.03a.525.525,0,0,0,0-1.05H5.131V23.394a3.842,3.842,0,0,0,.774.074,3.477,3.477,0,0,0,2.175-.716,2.458,2.458,0,0,1,1.593-.54,2.458,2.458,0,0,1,1.593.54,3.661,3.661,0,0,0,4.35,0,2.62,2.62,0,0,1,3.186,0,3.477,3.477,0,0,0,2.175.716,3.844,3.844,0,0,0,.775-.074v2.448H11.4a.525.525,0,0,0,0,1.05H23.7a.522.522,0,0,1,.522.522v1.809Z" transform="translate(0 -10.614)" stroke="#000" stroke-width="0.3"/>
        </g>
      </g>
      <g id="Group_10961" data-name="Group 10961" transform="translate(4.081 33.605)">
        <g id="Group_10960" data-name="Group 10960">
          <path id="Path_19834" data-name="Path 19834" d="M78.77,448.922a.529.529,0,0,0-.03-.1.517.517,0,0,0-.114-.171.525.525,0,0,0-.742,0,.549.549,0,0,0-.065.08.556.556,0,0,0-.048.091.518.518,0,0,0-.04.2.52.52,0,0,0,.01.1.529.529,0,0,0,.03.1.528.528,0,0,0,.113.171.529.529,0,0,0,.372.154.531.531,0,0,0,.2-.04.527.527,0,0,0,.09-.048.533.533,0,0,0,.08-.065.518.518,0,0,0,.114-.171.531.531,0,0,0,.03-.1.507.507,0,0,0,0-.205Z" transform="translate(-77.73 -448.5)" stroke="#000" stroke-width="0.5"/>
        </g>
      </g>
      <g id="Group_10963" data-name="Group 10963" transform="translate(9.724 32.035)">
        <g id="Group_10962" data-name="Group 10962">
          <path id="Path_19835" data-name="Path 19835" d="M186.24,419.016a.528.528,0,0,0-.03-.1.558.558,0,0,0-.048-.091.569.569,0,0,0-.066-.08.507.507,0,0,0-.08-.065.537.537,0,0,0-.09-.048.562.562,0,0,0-.1-.03.52.52,0,0,0-.205,0,.537.537,0,0,0-.1.03.523.523,0,0,0-.091.048.505.505,0,0,0-.08.065.528.528,0,0,0-.065.08.558.558,0,0,0-.048.091.529.529,0,0,0-.03.1.507.507,0,0,0,0,.205.529.529,0,0,0,.03.1.562.562,0,0,0,.048.091.525.525,0,0,0,.065.08.531.531,0,0,0,.08.065.519.519,0,0,0,.091.048.532.532,0,0,0,.1.03.517.517,0,0,0,.1.011.526.526,0,0,0,.1-.011.557.557,0,0,0,.1-.03.535.535,0,0,0,.17-.113.565.565,0,0,0,.066-.08.559.559,0,0,0,.048-.091.528.528,0,0,0,.03-.1.533.533,0,0,0,0-.205Z" transform="translate(-185.2 -418.594)" stroke="#000" stroke-width="0.5"/>
        </g>
      </g>
      <g id="Group_10965" data-name="Group 10965" transform="translate(15.795 33.605)">
        <g id="Group_10964" data-name="Group 10964">
          <path id="Path_19836" data-name="Path 19836" d="M301.86,448.916a.533.533,0,0,0-.03-.1.53.53,0,0,0-.113-.171.54.54,0,0,0-.08-.065.513.513,0,0,0-.091-.048.524.524,0,0,0-.1-.03.516.516,0,0,0-.205,0,.551.551,0,0,0-.1.03.531.531,0,0,0-.17.113.6.6,0,0,0-.066.08.561.561,0,0,0-.048.091.533.533,0,0,0-.03.1.535.535,0,0,0,0,.205.533.533,0,0,0,.03.1.519.519,0,0,0,.114.171.5.5,0,0,0,.08.065.528.528,0,0,0,.09.048.557.557,0,0,0,.1.03.521.521,0,0,0,.539-.223.558.558,0,0,0,.048-.091.535.535,0,0,0,.03-.1.507.507,0,0,0,0-.205Z" transform="translate(-300.82 -448.494)" stroke="#000" stroke-width="0.5"/>
        </g>
      </g>
      <g id="Group_10967" data-name="Group 10967" transform="translate(21.752 32.349)">
        <g id="Group_10966" data-name="Group 10966" transform="translate(0 0)">
          <path id="Path_19837" data-name="Path 19837" d="M415.32,424.993a.529.529,0,0,0-.03-.1.546.546,0,0,0-.048-.091.525.525,0,0,0-.808-.08.561.561,0,0,0-.065.08.537.537,0,0,0-.048.091.524.524,0,0,0-.03.1.514.514,0,0,0-.01.1.519.519,0,0,0,.04.2.535.535,0,0,0,.048.09.562.562,0,0,0,.065.08.585.585,0,0,0,.08.065.556.556,0,0,0,.091.048.538.538,0,0,0,.1.03.528.528,0,0,0,.474-.143.533.533,0,0,0,.065-.08.527.527,0,0,0,.078-.188.527.527,0,0,0,.01-.1A.519.519,0,0,0,415.32,424.993Z" transform="translate(-414.28 -424.57)" stroke="#000" stroke-width="0.5"/>
        </g>
      </g>
      <g id="Group_10969" data-name="Group 10969" transform="translate(16.527 23.767)">
        <g id="Group_10968" data-name="Group 10968">
          <path id="Path_19838" data-name="Path 19838" d="M315.81,261.536a.55.55,0,0,0-.03-.1.522.522,0,0,0-.114-.17.5.5,0,0,0-.08-.066.543.543,0,0,0-.09-.048.555.555,0,0,0-.1-.03.519.519,0,0,0-.205,0,.532.532,0,0,0-.189.078.523.523,0,0,0-.145.145.527.527,0,0,0-.048.09.558.558,0,0,0-.03.1.528.528,0,0,0-.01.1.519.519,0,0,0,.01.1.535.535,0,0,0,.078.189.51.51,0,0,0,.145.145.516.516,0,0,0,.091.048.526.526,0,0,0,.1.03.518.518,0,0,0,.1.01.528.528,0,0,0,.1-.01.555.555,0,0,0,.1-.03.536.536,0,0,0,.09-.048.5.5,0,0,0,.08-.065.517.517,0,0,0,.114-.171.524.524,0,0,0,.03-.1.511.511,0,0,0,.01-.1A.521.521,0,0,0,315.81,261.536Z" transform="translate(-314.77 -261.114)" stroke="#000" stroke-width="0.5"/>
        </g>
      </g>
      <g id="Group_10971" data-name="Group 10971" transform="translate(9.672 23.052)">
        <g id="Group_10970" data-name="Group 10970" transform="translate(0 0)">
          <path id="Path_19839" data-name="Path 19839" d="M185.25,247.917a.531.531,0,0,0-.03-.1.559.559,0,0,0-.048-.091.51.51,0,0,0-.145-.145.555.555,0,0,0-.091-.048.523.523,0,0,0-.4,0,.522.522,0,0,0-.284.284.532.532,0,0,0-.03.1.534.534,0,0,0,0,.205.533.533,0,0,0,.03.1.555.555,0,0,0,.048.091.587.587,0,0,0,.065.08.594.594,0,0,0,.08.065.56.56,0,0,0,.091.048.534.534,0,0,0,.1.03.521.521,0,0,0,.1.01.516.516,0,0,0,.1-.01.533.533,0,0,0,.1-.03.526.526,0,0,0,.171-.113.588.588,0,0,0,.065-.08.554.554,0,0,0,.048-.091.531.531,0,0,0,.03-.1.534.534,0,0,0,0-.205Z" transform="translate(-184.21 -247.495)" stroke="#000" stroke-width="0.5"/>
        </g>
      </g>
    </g>
  </g>
</svg>
