<svg id="calendar" xmlns="http://www.w3.org/2000/svg" width="24.216" height="24.216" viewBox="0 0 24.216 24.216">
  <g id="Group_10973" data-name="Group 10973">
    <g id="Group_10972" data-name="Group 10972">
      <path id="Path_19840" data-name="Path 19840" d="M279,281.115a1.894,1.894,0,0,0,1.892,1.892h2.223a1.894,1.894,0,0,0,1.892-1.892v-2.223A1.894,1.894,0,0,0,283.115,277h-2.223A1.894,1.894,0,0,0,279,278.892Zm1.892-2.223h2.223v2.223h-2.224Z" transform="translate(-265.804 -263.899)"/>
      <circle id="Ellipse_852" data-name="Ellipse 852" cx="1" cy="1" r="1" transform="translate(17.166 8.216)"/>
      <circle id="Ellipse_853" data-name="Ellipse 853" cx="1" cy="1" r="1" transform="translate(13.166 8.216)"/>
      <path id="Path_19841" data-name="Path 19841" d="M23.27,16.648a.946.946,0,0,0,.946-.946V5.676a3.788,3.788,0,0,0-3.784-3.784H19.2V.946a.946.946,0,0,0-1.892,0v.946h-4.3V.946a.946.946,0,1,0-1.892,0v.946H6.858V.946a.946.946,0,1,0-1.892,0v.946H3.784A3.788,3.788,0,0,0,0,5.676V20.432a3.788,3.788,0,0,0,3.784,3.784H20.432a3.788,3.788,0,0,0,3.784-3.784.946.946,0,0,0-1.892,0,1.894,1.894,0,0,1-1.892,1.892H3.784a1.894,1.894,0,0,1-1.892-1.892V5.676A1.894,1.894,0,0,1,3.784,3.784H4.966V4.73a.946.946,0,1,0,1.892,0V3.784h4.257V4.73a.946.946,0,1,0,1.892,0V3.784h4.3V4.73a.946.946,0,0,0,1.892,0V3.784h1.23a1.894,1.894,0,0,1,1.892,1.892V15.7A.946.946,0,0,0,23.27,16.648Z"/>
      <circle id="Ellipse_854" data-name="Ellipse 854" cx="1" cy="1" r="1" transform="translate(5.166 17.216)"/>
      <circle id="Ellipse_855" data-name="Ellipse 855" cx="1" cy="1" r="1" transform="translate(5.166 8.216)"/>
      <circle id="Ellipse_856" data-name="Ellipse 856" cx="1" cy="1" r="1" transform="translate(5.166 13.216)"/>
      <circle id="Ellipse_857" data-name="Ellipse 857" cx="1" cy="1" r="1" transform="translate(9.166 13.216)"/>
      <circle id="Ellipse_858" data-name="Ellipse 858" cx="1" cy="1" r="1" transform="translate(9.166 8.216)"/>
      <circle id="Ellipse_859" data-name="Ellipse 859" cx="1" cy="1" r="1" transform="translate(9.166 17.216)"/>
    </g>
  </g>
</svg>
