<svg xmlns="http://www.w3.org/2000/svg" width="9.296" height="16.378" viewBox="0 0 9.296 16.378">
  <path id="facebook" d="M6.242,16.378H3.619a.8.8,0,0,1-.794-.794V9.667H1.295A.8.8,0,0,1,.5,8.873V6.338a.8.8,0,0,1,.794-.794h1.53V4.274a4.322,4.322,0,0,1,1.143-3.1A4.116,4.116,0,0,1,7,0L9,0A.8.8,0,0,1,9.8.8V3.151A.8.8,0,0,1,9,3.945H7.655c-.411,0-.515.082-.538.108-.037.042-.081.16-.081.487v1H8.9a.808.808,0,0,1,.393.1.8.8,0,0,1,.409.695V8.873a.8.8,0,0,1-.794.794H7.037v5.916a.8.8,0,0,1-.795.794Zm-2.457-.96H6.076V9.237a.531.531,0,0,1,.53-.53H8.741V6.5H6.607a.531.531,0,0,1-.53-.53V4.54A1.635,1.635,0,0,1,6.4,3.418a1.627,1.627,0,0,1,1.257-.432H8.836V.963L7,.96A3.031,3.031,0,0,0,3.785,4.274v1.7a.531.531,0,0,1-.53.53H1.46v2.2H3.255a.531.531,0,0,1,.53.53ZM9,.963H9Zm0,0" transform="translate(-0.5 0)"/>
</svg>
