<svg xmlns="http://www.w3.org/2000/svg" width="21.604" height="21.604" viewBox="0 0 21.604 21.604">
  <g id="dashboard" transform="translate(0 0)">
    <path id="Path_19873" data-name="Path 19873" d="M8.326,7.2H1.575A1.577,1.577,0,0,1,0,5.626V1.575A1.577,1.577,0,0,1,1.575,0H8.326A1.577,1.577,0,0,1,9.9,1.575V5.626A1.577,1.577,0,0,1,8.326,7.2ZM1.575,1.35a.225.225,0,0,0-.225.225V5.626a.225.225,0,0,0,.225.225H8.326a.225.225,0,0,0,.225-.225V1.575a.225.225,0,0,0-.225-.225Zm0,0"/>
    <path id="Path_19874" data-name="Path 19874" d="M8.326,225.934H1.575A1.577,1.577,0,0,1,0,224.359v-9.452a1.577,1.577,0,0,1,1.575-1.575H8.326A1.577,1.577,0,0,1,9.9,214.907v9.452A1.577,1.577,0,0,1,8.326,225.934ZM1.575,214.682a.225.225,0,0,0-.225.225v9.452a.225.225,0,0,0,.225.225H8.326a.225.225,0,0,0,.225-.225v-9.452a.225.225,0,0,0-.225-.225Zm0,0" transform="translate(0 -204.331)"/>
    <path id="Path_19875" data-name="Path 19875" d="M285.659,348.533h-6.751a1.577,1.577,0,0,1-1.575-1.575v-4.051a1.577,1.577,0,0,1,1.575-1.575h6.751a1.577,1.577,0,0,1,1.575,1.575v4.051A1.577,1.577,0,0,1,285.659,348.533Zm-6.751-5.851a.225.225,0,0,0-.225.225v4.051a.225.225,0,0,0,.225.225h6.751a.225.225,0,0,0,.225-.225v-4.051a.225.225,0,0,0-.225-.225Zm0,0" transform="translate(-265.63 -326.93)"/>
    <path id="Path_19876" data-name="Path 19876" d="M285.659,12.6h-6.751a1.577,1.577,0,0,1-1.575-1.575V1.575A1.577,1.577,0,0,1,278.907,0h6.751a1.577,1.577,0,0,1,1.575,1.575v9.452A1.577,1.577,0,0,1,285.659,12.6ZM278.907,1.35a.225.225,0,0,0-.225.225v9.452a.225.225,0,0,0,.225.225h6.751a.225.225,0,0,0,.225-.225V1.575a.225.225,0,0,0-.225-.225Zm0,0" transform="translate(-265.63)"/>
  </g>
</svg>
