<svg xmlns="http://www.w3.org/2000/svg" width="25.844" height="30.954" viewBox="0 0 25.844 30.954">
  <g id="Group_10988" data-name="Group 10988" transform="translate(-112.494 -565.58)">
    <g id="employee" transform="translate(117.656 575.33)">
      <g id="Group_10981" data-name="Group 10981">
        <path id="Path_19854" data-name="Path 19854" d="M98.251,16.977a.318.318,0,0,0-.329.307V20.17a.176.176,0,0,1-.182.169H95.973V14.295a.33.33,0,0,0-.658,0v6.044h-3.56l1.032-1.06a.526.526,0,0,0,.142-.441l0-.009-.983-5.421.265-.372a.772.772,0,0,0,.471.191.582.582,0,0,0,.515-.3h0l1.037-1.94,2.362.854a2.146,2.146,0,0,1,1.327,1.933v2.076a.33.33,0,0,0,.658,0V13.776a2.768,2.768,0,0,0-1.736-2.5l-.006,0L92.906,9.851V8.99A2.841,2.841,0,0,0,94.072,7.1a1.48,1.48,0,0,0,.836-.318,1.266,1.266,0,0,0,.485-.987,1.251,1.251,0,0,0-.339-.851V3.8a4.086,4.086,0,0,0-8.152,0V4.971a1.187,1.187,0,0,0-.339.822,1.266,1.266,0,0,0,.485.987,1.479,1.479,0,0,0,.836.318,2.818,2.818,0,0,0,1.233,1.937v.815l-3.928,1.421-.006,0a2.768,2.768,0,0,0-1.736,2.5V20.17a.814.814,0,0,0,.839.783H87.42a.308.308,0,1,0,0-.614h-.708V14.295a.33.33,0,0,0-.658,0v6.044H84.286a.176.176,0,0,1-.182-.169V13.776a2.146,2.146,0,0,1,1.326-1.933l2.361-.854,1.037,1.94a.582.582,0,0,0,.516.3.772.772,0,0,0,.471-.191l.265.372L89.1,18.829l0,.009a.526.526,0,0,0,.142.442l1.032,1.06H88.955a.308.308,0,1,0,0,.614h8.786a.814.814,0,0,0,.839-.783V17.284A.319.319,0,0,0,98.251,16.977Zm-4.634-6.211-.967,1.808L91.487,11.8l1.194-1.376ZM91.673,12.68l-.251.352H90.6l-.251-.352.661-.438Zm-1.9-2.73V9.375a3.548,3.548,0,0,0,1.244.22,3.277,3.277,0,0,0,1.23-.239v.6l-1.236,1.424Zm4.961-4.157a.669.669,0,0,1-.256.522.792.792,0,0,1-.38.163V5.107A.711.711,0,0,1,94.735,5.792Zm-6.879.685a.71.71,0,0,1-.636-.685.748.748,0,0,1,.636-.669Zm.018-1.98a1.725,1.725,0,0,0-.314.066V3.8a3.426,3.426,0,0,1,6.836,0v.738a1.555,1.555,0,0,0-.3-.053c0-.3,0-.239-1.035-1.281a.616.616,0,0,0-.747-.085,6.687,6.687,0,0,1-3.833.963A.582.582,0,0,0,87.874,4.5Zm.64,2.222V4.7a7.412,7.412,0,0,0,4.11-1.035c.476.477.734.727.817.823V6.719a2.473,2.473,0,0,1-4.928,0Zm.86,5.855-.967-1.808.934-.338L90.536,11.8Zm.377,6.32.952-5.249h.617l.952,5.249-1.26,1.294Z" transform="translate(-83.447)" stroke="#000" stroke-width="0.5"/>
        <g id="Ellipse_860" data-name="Ellipse 860" transform="translate(5.904 5.259)" fill="#fff" stroke="#000" stroke-width="1">
          <circle cx="0.397" cy="0.397" r="0.397" stroke="none"/>
          <circle cx="0.397" cy="0.397" r="0.103" fill="none"/>
        </g>
        <g id="Ellipse_861" data-name="Ellipse 861" transform="translate(8.435 5.259)" fill="#fff" stroke="#000" stroke-width="1">
          <circle cx="0.397" cy="0.397" r="0.397" stroke="none"/>
          <circle cx="0.397" cy="0.397" r="0.103" fill="none"/>
        </g>
      </g>
    </g>
    <g id="Group_10987" data-name="Group 10987" transform="translate(113 566.08)">
      <path id="star" d="M4.533,1.683,3.1,1.464,2.46.1A.151.151,0,0,0,2.2.1L1.555,1.464.123,1.683a.146.146,0,0,0-.082.246L1.081,3,.835,4.505a.146.146,0,0,0,.214.151l1.279-.708,1.279.708a.146.146,0,0,0,.214-.151L3.575,3l1.04-1.067A.146.146,0,0,0,4.533,1.683Z" transform="translate(0 11.948)" stroke="#000" stroke-width="1"/>
      <path id="star-2" data-name="star" d="M4.533,1.683,3.1,1.464,2.46.1A.151.151,0,0,0,2.2.1L1.555,1.464.123,1.683a.146.146,0,0,0-.082.246L1.081,3,.835,4.505a.146.146,0,0,0,.214.151l1.279-.708,1.279.708a.146.146,0,0,0,.214-.151L3.575,3l1.04-1.067A.146.146,0,0,0,4.533,1.683Z" transform="translate(3.104 4.964)" stroke="#000" stroke-width="1"/>
      <path id="star-3" data-name="star" d="M4.533,1.683,3.1,1.464,2.46.1A.151.151,0,0,0,2.2.1L1.555,1.464.123,1.683a.146.146,0,0,0-.082.246L1.081,3,.835,4.505a.146.146,0,0,0,.214.151l1.279-.708,1.279.708a.146.146,0,0,0,.214-.151L3.575,3l1.04-1.067A.146.146,0,0,0,4.533,1.683Z" transform="translate(10.089 -0.018)" stroke="#000" stroke-width="1"/>
      <path id="star-4" data-name="star" d="M.123,1.683l1.431-.219L2.2.1A.151.151,0,0,1,2.46.1L3.1,1.464l1.431.219a.146.146,0,0,1,.082.246L3.575,3,3.82,4.505a.146.146,0,0,1-.214.151L2.328,3.949l-1.279.708a.146.146,0,0,1-.214-.151L1.081,3,.041,1.929A.146.146,0,0,1,.123,1.683Z" transform="translate(20.177 11.948)" stroke="#000" stroke-width="1"/>
      <path id="star-5" data-name="star" d="M.123,1.683l1.431-.219L2.2.1A.151.151,0,0,1,2.46.1L3.1,1.464l1.431.219a.146.146,0,0,1,.082.246L3.575,3,3.82,4.505a.146.146,0,0,1-.214.151L2.328,3.949l-1.279.708a.146.146,0,0,1-.214-.151L1.081,3,.041,1.929A.146.146,0,0,1,.123,1.683Z" transform="translate(16.297 4.964)" stroke="#000" stroke-width="1"/>
    </g>
  </g>
</svg>
