<svg xmlns="http://www.w3.org/2000/svg" width="23.008" height="23.01" viewBox="0 0 23.008 23.01">
  <g id="Group_10978" data-name="Group 10978" transform="translate(2.867 2.52)">
    <g id="user-experience" transform="translate(-3.117 -2.247)">
      <path id="Path_19855" data-name="Path 19855" d="M21.466,11.247a15.63,15.63,0,0,0,1.1-2.826c.811-2.927.418-5.379-1.105-6.9S17.49-.4,14.563.414a15.643,15.643,0,0,0-2.826,1.1A14.991,14.991,0,0,0,8.256.25C5.626-.326,3.41.125,2.015,1.52a5.483,5.483,0,0,0-1.5,3.638A11.117,11.117,0,0,0,1.3,9.605a2.086,2.086,0,0,0,0,3.279,11.117,11.117,0,0,0-.783,4.447,5.484,5.484,0,0,0,1.5,3.638,5.6,5.6,0,0,0,4.1,1.515,9.216,9.216,0,0,0,1.055-.063,13.849,13.849,0,0,0,4.572-1.45,15.634,15.634,0,0,0,2.823,1.1,10.567,10.567,0,0,0,2.806.412,5.61,5.61,0,0,0,4.1-1.518c1.4-1.395,1.846-3.611,1.269-6.241a14.993,14.993,0,0,0-1.268-3.481ZM14.739,1.05C17.427.306,19.65.638,21,1.986s1.681,3.571.936,6.259a14.633,14.633,0,0,1-.851,2.279,21.6,21.6,0,0,0-2.332-3.36A2.087,2.087,0,0,0,18.757,4.6L18.236,5a1.415,1.415,0,0,1,.3.877,1.429,1.429,0,1,1-.7-1.23l.337-.567a2.086,2.086,0,0,0-2.354.153A21.627,21.627,0,0,0,12.459,1.9a14.649,14.649,0,0,1,2.279-.851ZM2.482,1.986C4.265.2,7.537.269,11.017,1.9A22.478,22.478,0,0,0,6.131,5.636a23.1,23.1,0,0,0-2.953,3.6,2.107,2.107,0,0,0-.588-.084,2.084,2.084,0,0,0-.711.125c-1.143-3.116-.929-5.761.6-7.293ZM6.129,21.823A5.008,5.008,0,0,1,2.481,20.5c-1.532-1.532-1.746-4.177-.6-7.293a2.085,2.085,0,0,0,1.3.04,23.081,23.081,0,0,0,2.954,3.6,22.481,22.481,0,0,0,4.885,3.736,11.79,11.79,0,0,1-4.887,1.233Zm5.609-1.592A21.549,21.549,0,0,1,6.6,16.387a22.462,22.462,0,0,1-2.819-3.425,2.088,2.088,0,0,0,.9-1.717c0-.062,0-.125-.008-.186l-.657.058c0,.042.006.085.006.128a1.428,1.428,0,1,1-.151-.64l.59-.3a2.092,2.092,0,0,0-.679-.784A22.474,22.474,0,0,1,6.6,6.1a21.544,21.544,0,0,1,5.142-3.844,20.693,20.693,0,0,1,3.63,2.459,2.088,2.088,0,0,0,2.9,2.9,20.7,20.7,0,0,1,2.459,3.63,21.551,21.551,0,0,1-3.844,5.142c-.176.176-.356.35-.539.521a2.087,2.087,0,0,0-2.63-.055l.405.521a1.417,1.417,0,0,1,.877-.3,1.429,1.429,0,1,1-1.23.7l-.567-.337a2.088,2.088,0,0,0-.077,1.989q-.693.443-1.383.8ZM21,20.5c-1.348,1.348-3.571,1.68-6.259.936a14.646,14.646,0,0,1-2.277-.85q.521-.291,1.042-.625a2.088,2.088,0,0,0,3.271-2.556c.195-.182.387-.368.574-.555a22.483,22.483,0,0,0,3.737-4.886c1.63,3.481,1.7,6.752-.087,8.536Zm0,0" transform="translate(0 0)" stroke="#000" stroke-width="0.5"/>
      <path id="Path_19856" data-name="Path 19856" d="M245.562,261.359h-.682V259.7a1.656,1.656,0,0,0-1.2-1.588l-.247-.069-.179.635.247.07a.993.993,0,0,1,.721.953v1.662h-1.188v-.9h-.66v.9H239.4v.66h6.159Zm0,0" transform="translate(-228.411 -246.705)" stroke="#000" stroke-width="0.5"/>
      <path id="Path_19857" data-name="Path 19857" d="M139.729,113.937l1.375.388.179-.635-1.348-.38v-.876a2.309,2.309,0,0,0,1.012-1.909v-.968a2.31,2.31,0,1,0-4.619,0v.968a2.309,2.309,0,0,0,1.012,1.909v.876l-2.229.629a1.656,1.656,0,0,0-1.2,1.588v1.662h-.682v.66h4v-.66h-.814v-.9h-.66v.9h-1.188v-1.662a.993.993,0,0,1,.721-.953l2.257-.636a1.48,1.48,0,0,0,2.182,0Zm-1.091-6.03a1.652,1.652,0,0,1,1.65,1.65v.367l-.694-.917h-2.511a1.652,1.652,0,0,1,1.555-1.1Zm-1.65,2.618v-.858h2.277l.967,1.279a1.65,1.65,0,0,1-3.245-.421ZM138,113.453v-.71a2.295,2.295,0,0,0,1.276,0v.71a.82.82,0,0,1-1.276,0Zm0,0" transform="translate(-126.898 -102.534)" stroke="#000" stroke-width="0.5"/>
      <path id="Path_19858" data-name="Path 19858" d="M275.878,275.464l-.929-.262.179-.635.929.262Zm0,0" transform="translate(-262.396 -262.506)" stroke="#000" stroke-width="0.5"/>
      <path id="Path_19859" data-name="Path 19859" d="M311.369,284.765l-.179.635-.635-.179.179-.635Zm0,0" transform="translate(-296.438 -272.086)" stroke="#000" stroke-width="0.5"/>
      <path id="Path_19860" data-name="Path 19860" d="M371.129,126.281h.66v.66h-.66Zm0,0" transform="translate(-354.352 -120.733)" stroke="#000" stroke-width="0.5"/>
      <path id="Path_19861" data-name="Path 19861" d="M323.047,413.77h.66v.66h-.66Zm0,0" transform="translate(-308.382 -395.597)" stroke="#000" stroke-width="0.5"/>
      <path id="Path_19862" data-name="Path 19862" d="M40.566,248.488h.66v.66h-.66Zm0,0" transform="translate(-38.307 -237.573)" stroke="#000" stroke-width="0.5"/>
    </g>
  </g>
</svg>
