<svg xmlns="http://www.w3.org/2000/svg" width="24.068" height="24.103" viewBox="0 0 24.068 24.103">
  <g id="certificate" transform="translate(0.098 0.1)">
    <g id="Group_11003" data-name="Group 11003" transform="translate(0.002)">
      <g id="Group_11002" data-name="Group 11002">
        <path id="Path_19863" data-name="Path 19863" d="M22.378,0H1.494A1.492,1.492,0,0,0,0,1.492V18.4A1.492,1.492,0,0,0,1.494,19.89H13.428V18.9H1.494a.5.5,0,0,1-.5-.5V1.492a.5.5,0,0,1,.5-.5H22.378a.5.5,0,0,1,.5.5V18.4a.5.5,0,0,1-.5.5h-.994v.994h.994A1.492,1.492,0,0,0,23.87,18.4V1.492A1.492,1.492,0,0,0,22.378,0Z" transform="translate(-0.002)" stroke="#000" stroke-width="0.2"/>
      </g>
    </g>
    <g id="Group_11005" data-name="Group 11005" transform="translate(2.488 2.486)">
      <g id="Group_11004" data-name="Group 11004">
        <path id="Path_19864" data-name="Path 19864" d="M71.733,55.819a1.989,1.989,0,0,1-1.989-1.989.5.5,0,0,0-.5-.5H56.319a.5.5,0,0,0-.5.5,1.989,1.989,0,0,1-1.989,1.989.5.5,0,0,0-.5.5v8.95a.5.5,0,0,0,.5.5,1.989,1.989,0,0,1,1.989,1.989.5.5,0,0,0,.5.5h6.464v-.995H56.775a2.992,2.992,0,0,0-2.445-2.445V56.773a2.992,2.992,0,0,0,2.445-2.445H68.791a2.992,2.992,0,0,0,2.445,2.445v4.019h.994V56.317A.5.5,0,0,0,71.733,55.819Z" transform="translate(-53.335 -53.333)" stroke="#000" stroke-width="0.2"/>
      </g>
    </g>
    <g id="Group_11007" data-name="Group 11007" transform="translate(12.931 10.442)">
      <g id="Group_11006" data-name="Group 11006">
        <path id="Path_19865" data-name="Path 19865" d="M281.811,224a4.475,4.475,0,1,0,4.475,4.475A4.475,4.475,0,0,0,281.811,224Zm0,7.956a3.481,3.481,0,1,1,3.481-3.481A3.481,3.481,0,0,1,281.811,231.956Z" transform="translate(-277.336 -224)" stroke="#000" stroke-width="0.2"/>
      </g>
    </g>
    <g id="Group_11009" data-name="Group 11009" transform="translate(14.422 17.901)">
      <g id="Group_11008" data-name="Group 11008">
        <path id="Path_19866" data-name="Path 19866" d="M314.308,384v4.435l-1.678-1.343a.5.5,0,0,0-.622,0l-1.678,1.343V384h-.994v5.47a.5.5,0,0,0,.808.388l2.175-1.74,2.175,1.74a.5.5,0,0,0,.808-.388V384Z" transform="translate(-309.336 -384)" stroke="#000" stroke-width="0.2"/>
      </g>
    </g>
    <g id="Group_11011" data-name="Group 11011" transform="translate(6.466 4.973)">
      <g id="Group_11010" data-name="Group 11010">
        <path id="Path_19867" data-name="Path 19867" d="M149.111,106.667h-9.945a.5.5,0,0,0-.5.5v1.989a.5.5,0,0,0,.5.5h9.945a.5.5,0,0,0,.5-.5v-1.989A.5.5,0,0,0,149.111,106.667Zm-.5,1.989h-8.951v-.994h8.951Z" transform="translate(-138.669 -106.667)" stroke="#000" stroke-width="0.2"/>
      </g>
    </g>
    <g id="Group_11013" data-name="Group 11013" transform="translate(5.969 9.448)">
      <g id="Group_11012" data-name="Group 11012">
        <rect id="Rectangle_19156" data-name="Rectangle 19156" width="0.994" height="0.994" stroke="#000" stroke-width="0.2"/>
      </g>
    </g>
    <g id="Group_11015" data-name="Group 11015" transform="translate(7.958 9.448)">
      <g id="Group_11014" data-name="Group 11014">
        <rect id="Rectangle_19157" data-name="Rectangle 19157" width="0.994" height="0.994" stroke="#000" stroke-width="0.2"/>
      </g>
    </g>
    <g id="Group_11017" data-name="Group 11017" transform="translate(5.969 11.437)">
      <g id="Group_11016" data-name="Group 11016">
        <rect id="Rectangle_19158" data-name="Rectangle 19158" width="5.967" height="0.994" stroke="#000" stroke-width="0.2"/>
      </g>
    </g>
    <g id="Group_11019" data-name="Group 11019" transform="translate(14.92 12.431)">
      <g id="Group_11018" data-name="Group 11018">
        <path id="Path_19868" data-name="Path 19868" d="M322.489,266.667a2.486,2.486,0,1,0,2.486,2.486A2.486,2.486,0,0,0,322.489,266.667Zm0,3.978a1.492,1.492,0,1,1,1.492-1.492A1.492,1.492,0,0,1,322.489,270.645Z" transform="translate(-320.003 -266.667)" stroke="#000" stroke-width="0.2"/>
      </g>
    </g>
    <g id="Group_11021" data-name="Group 11021" transform="translate(2.488 16.409)">
      <g id="Group_11020" data-name="Group 11020">
        <rect id="Rectangle_19159" data-name="Rectangle 19159" width="0.994" height="0.994" stroke="#000" stroke-width="0.2"/>
      </g>
    </g>
    <g id="Group_11023" data-name="Group 11023" transform="translate(20.389 2.486)">
      <g id="Group_11022" data-name="Group 11022">
        <rect id="Rectangle_19160" data-name="Rectangle 19160" width="0.994" height="0.994" stroke="#000" stroke-width="0.2"/>
      </g>
    </g>
    <g id="Group_11025" data-name="Group 11025" transform="translate(2.488 2.486)">
      <g id="Group_11024" data-name="Group 11024">
        <rect id="Rectangle_19161" data-name="Rectangle 19161" width="0.994" height="0.994" stroke="#000" stroke-width="0.2"/>
      </g>
    </g>
  </g>
</svg>
