<svg xmlns="http://www.w3.org/2000/svg" width="26.832" height="28.576" viewBox="0 0 26.832 28.576">
  <g id="social-media" transform="translate(-15.581 0.15)">
    <path id="Path_19881" data-name="Path 19881" d="M39.159,0H37.943a.414.414,0,0,0,0,.828h1.215A2.275,2.275,0,0,1,41.435,3.1v9.585a2.275,2.275,0,0,1-2.276,2.268H37.78a.414.414,0,0,0-.252.085L35,16.97V15.364a.414.414,0,0,0-.414-.414H29.544a2.265,2.265,0,0,1-1.159-.316V9.984a2.527,2.527,0,0,0-1.117-2.1V3.1A2.275,2.275,0,0,1,29.544.828h5.8a.414.414,0,0,0,0-.828h-5.8a3.1,3.1,0,0,0-3.1,3.1V7.525a2.539,2.539,0,0,0-.591-.07H18.267a2.536,2.536,0,0,0-2.536,2.529v.894a.414.414,0,0,0,.828,0V9.984a1.706,1.706,0,0,1,1.708-1.7h7.582a1.706,1.706,0,0,1,1.708,1.7V14.8a.414.414,0,0,0,0,.11v2.635c0,.052,0,.1-.008.156h-.854a1.921,1.921,0,0,0-1.888,1.572.415.415,0,0,0-.107.06l-1.852,1.43v-1.1a.414.414,0,0,0-.414-.414H18.267a1.706,1.706,0,0,1-1.708-1.7V13.364a.414.414,0,0,0-.828,0v4.179a2.536,2.536,0,0,0,2.536,2.529h3.751V21.6a.42.42,0,0,0,.667.328l2.089-1.613v4.659a1.92,1.92,0,0,0,1.92,1.915h2.542v.966a.42.42,0,0,0,.667.328l1.676-1.294h.5a1.92,1.92,0,0,0,1.92-1.915v-.735a.414.414,0,0,0-.828,0v.735a1.09,1.09,0,0,1-1.092,1.087h-.637a.414.414,0,0,0-.253.086l-1.121.865v-.538a.414.414,0,0,0-.414-.414H26.694A1.091,1.091,0,0,1,25.6,24.978V19.614a1.09,1.09,0,0,1,1.092-1.087h5.38a1.091,1.091,0,0,1,1.092,1.087v2.033a.414.414,0,0,0,.828,0V19.614a1.92,1.92,0,0,0-1.92-1.915H28.38c0-.052,0-2.144,0-2.144a3.1,3.1,0,0,0,1.159.223h4.627v2.03a.42.42,0,0,0,.666.329l3.084-2.359h1.238a3.1,3.1,0,0,0,3.1-3.1V3.1a3.1,3.1,0,0,0-3.1-3.1Z" stroke="#000" stroke-width="0.3"/>
    <path id="Path_19882" data-name="Path 19882" d="M272.42,54.578a.863.863,0,0,0-1.062.825,2.433,2.433,0,0,1-.609,1.611L269.608,58.3a.413.413,0,0,0-.347-.188h-2.228a.414.414,0,0,0-.414.414v5.012a.414.414,0,0,0,.414.414h2.228a.414.414,0,0,0,.376-.242,2.894,2.894,0,0,0,1.505.425h3.937a1.084,1.084,0,0,0,1.07-1.122c-.013-.266,0-3.834,0-3.913a1.072,1.072,0,0,0-1.07-1.071l-2.047-.006.085-.2a3.234,3.234,0,0,0-.17-2.846.844.844,0,0,0-.528-.4Zm-3.573,8.551h-1.4V58.945h1.4Zm6.233-4.267a.243.243,0,0,1,.243.243c0,.079,0,.293,0,.583-.006,1.6-.01,3.117,0,3.369a.242.242,0,0,1-.242.255h-3.937a2.062,2.062,0,0,1-1.293-.458l-.174-.141V59.479l1.695-1.918a3.261,3.261,0,0,0,.816-2.159.023.023,0,0,1,.043-.011,2.4,2.4,0,0,1,.127,2.113l-.327.774a.414.414,0,0,0,.38.575Z" transform="translate(-237.033 -51.518)" stroke="#000" stroke-width="0.3"/>
    <path id="Path_19883" data-name="Path 19883" d="M72.865,197.2a.414.414,0,1,0,0,.828h1.221l-.228,1.379a.414.414,0,1,0,.817.135l.25-1.514h1l-.228,1.379a.414.414,0,1,0,.817.135l.25-1.514h1.662a.414.414,0,0,0,0-.828H76.9l.167-1.01h1.358a.414.414,0,0,0,0-.828H77.205l.228-1.379a.414.414,0,0,0-.817-.135l-.25,1.514h-1l.228-1.379a.414.414,0,0,0-.817-.135l-.25,1.514H72.865a.414.414,0,1,0,0,.828H74.39l-.167,1.01Zm2.364-1.01h1l-.167,1.01h-1Z" transform="translate(-53.588 -182.813)" stroke="#000" stroke-width="0.3"/>
    <path id="Path_19884" data-name="Path 19884" d="M222.262,368.774a1.393,1.393,0,0,0-1.226-.275,1.541,1.541,0,0,0-1.149,1.555,2.033,2.033,0,0,0,.612,1.456,6.076,6.076,0,0,0,1.574,1.086.414.414,0,0,0,.388,0c1.312-.7,2.186-1.394,2.186-2.541a1.531,1.531,0,0,0-1.19-1.547A1.389,1.389,0,0,0,222.262,368.774Zm1.556,1.279c0,.619-.41,1.076-1.551,1.7-1.141-.628-1.551-1.086-1.551-1.7a.708.708,0,0,1,.516-.75.62.62,0,0,1,.146-.017.572.572,0,0,1,.521.333.414.414,0,0,0,.743-.015.538.538,0,0,1,.635-.289A.7.7,0,0,1,223.818,370.053Z" transform="translate(-192.882 -348.11)" stroke="#000" stroke-width="0.3"/>
  </g>
</svg>
