<svg id="_028-user-1" data-name="028-user-1" xmlns="http://www.w3.org/2000/svg" width="26" height="26" viewBox="0 0 26 26">
  <g id="Group_10838" data-name="Group 10838" transform="translate(0 0)">
    <path id="Path_19350" data-name="Path 19350" d="M25.934,22.279a1.016,1.016,0,0,0-1.989.414,1.061,1.061,0,0,1-.215.89,1.032,1.032,0,0,1-.812.386H3.082a1.032,1.032,0,0,1-.812-.386,1.061,1.061,0,0,1-.215-.89,11.221,11.221,0,0,1,10.676-8.886q.134.005.269.005t.27-.005a11.173,11.173,0,0,1,9.023,4.959,1.016,1.016,0,1,0,1.687-1.131,13.211,13.211,0,0,0-6.846-5.2,6.906,6.906,0,1,0-8.267,0,13.21,13.21,0,0,0-8.8,9.842A3.086,3.086,0,0,0,3.082,26H22.918a3.086,3.086,0,0,0,3.016-3.721ZM8.125,6.906a4.875,4.875,0,1,1,5.122,4.869l-.247,0-.246,0A4.881,4.881,0,0,1,8.125,6.906Z" transform="translate(0 0)"/>
  </g>
</svg>
