<svg xmlns="http://www.w3.org/2000/svg" width="21.658" height="26.403" viewBox="0 0 21.658 26.403">
  <g id="flag" transform="translate(-46)">
    <g id="Group_10974" data-name="Group 10974" transform="translate(46)">
      <path id="Path_19842" data-name="Path 19842" d="M67.6,15.492l-1.948-4.869L67.6,5.753a.774.774,0,0,0-.718-1.061H57.861v-1.8a.774.774,0,0,0-.774-.774h-9.54V.774A.774.774,0,1,0,46,.774V25.629a.774.774,0,1,0,1.547,0V13.975h6.188v1.8a.775.775,0,0,0,.774.774H66.885a.774.774,0,0,0,.718-1.061Zm-11.29-3.065H47.547V3.661h8.767Zm.063,2.578,1.258-1.258a.783.783,0,0,0,.227-.547V6.24h7.882l-1.638,4.1a.774.774,0,0,0,0,.575l1.638,4.1Z" transform="translate(-46 0)"/>
    </g>
  </g>
</svg>
