<svg xmlns="http://www.w3.org/2000/svg" width="25.75" height="22.632" viewBox="0 0 25.75 22.632">
  <path id="portfolio" d="M25,3.018H18.156V2.263A2.266,2.266,0,0,0,15.893,0H9.858A2.266,2.266,0,0,0,7.594,2.263v.754H.755A.756.756,0,0,0,0,3.772v16.6a2.266,2.266,0,0,0,2.263,2.263H23.487a2.266,2.266,0,0,0,2.263-2.263V3.785A.732.732,0,0,0,25,3.018ZM9.1,2.263a.755.755,0,0,1,.754-.754h6.035a.755.755,0,0,1,.754.754v.754H9.1ZM23.949,4.526l-2.343,7.028a.753.753,0,0,1-.715.516H16.647v-.754a.754.754,0,0,0-.754-.754H9.858a.754.754,0,0,0-.754.754v.754H4.86a.753.753,0,0,1-.715-.516L1.8,4.526ZM15.138,12.07v1.509H10.612V12.07Zm9.1,8.3a.755.755,0,0,1-.754.754H2.263a.755.755,0,0,1-.754-.754V8.421l1.2,3.611A2.26,2.26,0,0,0,4.86,13.579H9.1v.754a.754.754,0,0,0,.754.754h6.035a.754.754,0,0,0,.754-.754v-.754h4.244a2.26,2.26,0,0,0,2.147-1.547l1.2-3.611Zm0,0" transform="translate(0)"/>
</svg>
