<svg xmlns="http://www.w3.org/2000/svg" width="23.605" height="23.605" viewBox="0 0 23.605 23.605">
  <g id="mortarboard" transform="translate(0 -0.004)">
    <g id="Group_11027" data-name="Group 11027" transform="translate(0 0.005)">
      <g id="Group_11026" data-name="Group 11026" transform="translate(0)">
        <path id="Path_19869" data-name="Path 19869" d="M23.57,22.7l-1.15-3.488a2.074,2.074,0,0,0-.2-3.829V7.392l1-.5a.692.692,0,0,0,0-1.237L12.113.078a.692.692,0,0,0-.621,0L.381,5.657a.692.692,0,0,0,0,1.237L4.149,8.769V13.19a.692.692,0,0,0,.235.519A12.528,12.528,0,0,0,11.8,16.648a12.528,12.528,0,0,0,7.419-2.939.692.692,0,0,0,.235-.519V8.769l1.383-.689v7.3a2.074,2.074,0,0,0-.2,3.829L19.491,22.7a.692.692,0,0,0,.657.908h2.766A.692.692,0,0,0,23.57,22.7Zm-5.5-9.84a11.073,11.073,0,0,1-6.27,2.4,11.074,11.074,0,0,1-6.27-2.4v-3.4l5.962,2.969a.691.691,0,0,0,.617,0l5.962-2.969v3.4ZM11.8,11.034,2.238,6.272,11.8,1.47l9.565,4.8Zm9.3,11.192.427-1.3.427,1.3Zm.427-4.2a.692.692,0,1,1,.692-.692A.692.692,0,0,1,21.53,18.031Z" transform="translate(0 -0.005)"/>
      </g>
    </g>
    <g id="Group_11029" data-name="Group 11029" transform="translate(9.728 4.2)">
      <g id="Group_11028" data-name="Group 11028">
        <path id="Path_19870" data-name="Path 19870" d="M213.073,91a2.075,2.075,0,1,0,2.075,2.075A2.077,2.077,0,0,0,213.073,91Zm0,2.766a.692.692,0,1,1,.692-.692A.692.692,0,0,1,213.073,93.77Z" transform="translate(-210.998 -91.004)"/>
      </g>
    </g>
  </g>
</svg>
