<svg xmlns="http://www.w3.org/2000/svg" width="16.58" height="13.57" viewBox="0 0 16.58 13.57">
  <path id="twitter_2_" data-name="twitter (2)" d="M16.58,1.813c-1.043.048-1.02.044-1.138.054L16.06.1s-1.928.709-2.417.836A3.868,3.868,0,0,0,9.087.572,3.155,3.155,0,0,0,7.57,3.817,8.416,8.416,0,0,1,2.118.747L1.661.2,1.319.826a3.793,3.793,0,0,0-.4,2.553,3.669,3.669,0,0,0,.355,1L.878,4.224.831,4.88a3.5,3.5,0,0,0,.593,2.079,3.7,3.7,0,0,0,.462.57l-.2-.031.247.751a3.652,3.652,0,0,0,1.877,2.175c-.875.372-1.583.609-2.745.991L0,11.765l.982.537A10.311,10.311,0,0,0,3.988,13.4c2.907.456,6.18.085,8.383-1.9a7.89,7.89,0,0,0,2.338-6.523A1.546,1.546,0,0,1,15,3.967c.411-.549,1.579-2.15,1.582-2.154ZM14.222,3.385a2.517,2.517,0,0,0-.481,1.638,6.867,6.867,0,0,1-2.018,5.752c-1.714,1.543-4.478,2.149-7.583,1.662a7.52,7.52,0,0,1-1.625-.483,25.763,25.763,0,0,0,2.943-1.21l1.7-.8L5.28,9.822a2.649,2.649,0,0,1-2.1-1.2A3.36,3.36,0,0,0,3.889,8.5l1.787-.5-1.8-.441a2.683,2.683,0,0,1-1.639-1.14,2.748,2.748,0,0,1-.355-.784,4.5,4.5,0,0,0,.731.117l1.668.165L2.957,4.892A2.781,2.781,0,0,1,1.9,1.962,9.665,9.665,0,0,0,8.714,4.893a5.752,5.752,0,0,0-.1-.824A2.23,2.23,0,0,1,9.6,1.4a2.9,2.9,0,0,1,3.423.283.869.869,0,0,0,.8.213,6.714,6.714,0,0,0,.657-.2l-.419,1.2h.535l-.368.492Zm0,0" transform="translate(0 0)"/>
</svg>
