<svg xmlns="http://www.w3.org/2000/svg" width="20" height="27.5" viewBox="0 0 20 27.5">
  <g id="employee" transform="translate(-83.197 0.25)">
    <g id="Group_10981" data-name="Group 10981" transform="translate(83.447)">
      <path id="Path_19854" data-name="Path 19854" d="M102.523,21.876a.41.41,0,0,0-.424.4v3.719a.227.227,0,0,1-.234.218H99.587V18.42a.425.425,0,0,0-.848,0v7.789H94.152l1.33-1.366a.678.678,0,0,0,.183-.569l0-.012L94.4,17.277l.341-.48a1,1,0,0,0,.607.246.749.749,0,0,0,.664-.383h0l1.336-2.5,3.044,1.1a2.765,2.765,0,0,1,1.709,2.491v2.675a.425.425,0,0,0,.848,0V17.751a3.567,3.567,0,0,0-2.237-3.224l-.008,0-5.067-1.831V11.584a3.661,3.661,0,0,0,1.5-2.438,1.907,1.907,0,0,0,1.078-.41,1.632,1.632,0,0,0,.625-1.272,1.613,1.613,0,0,0-.437-1.1V4.9a5.265,5.265,0,0,0-10.5,0v1.5a1.53,1.53,0,0,0-.437,1.059,1.632,1.632,0,0,0,.625,1.272,1.906,1.906,0,0,0,1.077.41,3.631,3.631,0,0,0,1.589,2.5v1.05l-5.061,1.831-.008,0a3.567,3.567,0,0,0-2.237,3.224V25.99A1.049,1.049,0,0,0,84.529,27h4.038a.4.4,0,1,0,0-.791h-.912V18.42a.425.425,0,0,0-.848,0v7.789H84.529a.227.227,0,0,1-.234-.218v-8.24A2.766,2.766,0,0,1,86,15.26l3.042-1.1,1.336,2.5a.749.749,0,0,0,.664.383.994.994,0,0,0,.607-.246l.341.48-1.267,6.986,0,.012a.678.678,0,0,0,.183.569l1.33,1.366H90.544a.4.4,0,1,0,0,.791h11.321a1.049,1.049,0,0,0,1.082-1.009V22.272A.411.411,0,0,0,102.523,21.876Zm-5.971-8L95.306,16.2l-1.5-.993,1.539-1.773Zm-2.5,2.466-.323.454H92.667l-.323-.454.851-.564ZM91.6,12.821v-.74a4.571,4.571,0,0,0,1.6.284,4.223,4.223,0,0,0,1.585-.308v.768L93.2,14.658Zm6.393-5.357a.863.863,0,0,1-.33.673,1.02,1.02,0,0,1-.489.21V6.581A.917.917,0,0,1,97.993,7.464Zm-8.864.883a.915.915,0,0,1-.819-.883.964.964,0,0,1,.819-.863ZM89.152,5.8a2.223,2.223,0,0,0-.405.085V4.9a4.415,4.415,0,0,1,8.809,0v.951a2,2,0,0,0-.382-.069c0-.382,0-.308-1.334-1.65a.794.794,0,0,0-.963-.11,8.617,8.617,0,0,1-4.939,1.241A.75.75,0,0,0,89.152,5.8Zm.825,2.863v-2.6a9.551,9.551,0,0,0,5.3-1.333c.614.615.946.937,1.053,1.06V8.658a3.186,3.186,0,0,1-6.35,0ZM91.085,16.2l-1.246-2.33,1.2-.435,1.539,1.773Zm.486,8.144L92.8,17.584h.8l1.227,6.764L93.2,26.015Z" transform="translate(-83.447)" stroke="#000" stroke-width="0.5"/>
      <g id="Ellipse_860" data-name="Ellipse 860" transform="translate(7.608 6.776)" fill="#fff" stroke="#000" stroke-width="1">
        <circle cx="0.511" cy="0.511" r="0.511" stroke="none"/>
        <circle cx="0.511" cy="0.511" r="0.011" fill="none"/>
      </g>
      <g id="Ellipse_861" data-name="Ellipse 861" transform="translate(10.869 6.776)" fill="#fff" stroke="#000" stroke-width="1">
        <circle cx="0.511" cy="0.511" r="0.511" stroke="none"/>
        <circle cx="0.511" cy="0.511" r="0.011" fill="none"/>
      </g>
    </g>
  </g>
</svg>
