<svg xmlns="http://www.w3.org/2000/svg" width="25.613" height="20.16" viewBox="0 0 25.613 20.16">
  <g id="employee" transform="translate(-80.447 -5)">
    <path id="driver-license" d="M12.706,59.5a1,1,0,0,1,1-1H20.66a1,1,0,1,1,0,2H13.707A1,1,0,0,1,12.706,59.5Zm1,5.053H20.66a1,1,0,1,0,0-2H13.707a1,1,0,0,0,0,2Zm6.953,4.1H15.708a1,1,0,0,0,0,2H20.66a1,1,0,0,0,0-2ZM4.928,65.806H9.079A.924.924,0,0,0,10,64.883v-.09a3,3,0,0,0-2.2-2.88,1.8,1.8,0,1,0-1.609,0A3.043,3.043,0,0,0,4,64.841v.042A.924.924,0,0,0,4.928,65.806ZM5,70.658h6.7a1,1,0,0,0,0-2H5a1,1,0,0,0,0,2ZM25.613,55.5V73.659a1,1,0,0,1-1,1H1a1,1,0,0,1-1-1V55.5a1,1,0,0,1,1-1H24.612A1,1,0,0,1,25.613,55.5Zm-2,1H2V72.659H23.612Z" transform="translate(80.447 -49.5)"/>
  </g>
</svg>
