<svg xmlns="http://www.w3.org/2000/svg" width="19.252" height="27.375" viewBox="0 0 19.252 27.375">
  <g id="description" transform="translate(0.15 0.15)">
    <path id="Path_19846" data-name="Path 19846" d="M17.6,0H1.354A1.329,1.329,0,0,0,0,1.354V25.721a1.329,1.329,0,0,0,1.354,1.354H13.718l5.235-5.235V1.354A1.329,1.329,0,0,0,17.6,0Zm.451,21.48-4.061,4.061V22.562a.426.426,0,0,1,.451-.451H16.7v-.9H14.44a1.329,1.329,0,0,0-1.354,1.354v3.61H1.354A.426.426,0,0,1,.9,25.721V1.354A.426.426,0,0,1,1.354.9H17.6a.426.426,0,0,1,.451.451Zm0,0" stroke="#000" stroke-width="0.3"/>
    <path id="Path_19847" data-name="Path 19847" d="M120,48h5.415v.9H120Zm0,0" transform="translate(-113.231 -45.293)" stroke="#000" stroke-width="0.3"/>
    <path id="Path_19848" data-name="Path 19848" d="M64,264H75.732v.9H64Zm0,0" transform="translate(-60.39 -249.109)" stroke="#000" stroke-width="0.3"/>
    <path id="Path_19849" data-name="Path 19849" d="M64,304H75.732v.9H64Zm0,0" transform="translate(-60.39 -286.853)" stroke="#000" stroke-width="0.3"/>
    <path id="Path_19850" data-name="Path 19850" d="M64,344H75.732v.9H64Zm0,0" transform="translate(-60.39 -324.596)" stroke="#000" stroke-width="0.3"/>
    <path id="Path_19851" data-name="Path 19851" d="M64,384h7.671v.9H64Zm0,0" transform="translate(-60.39 -362.34)" stroke="#000" stroke-width="0.3"/>
    <path id="Path_19853" data-name="Path 19853" d="M8.024,6.892a.314.314,0,0,0-.615.128.328.328,0,0,1-.067.275.319.319,0,0,1-.251.119H.954A.319.319,0,0,1,.7,7.3a.328.328,0,0,1-.067-.275,3.472,3.472,0,0,1,3.3-2.749l.083,0,.084,0A3.457,3.457,0,0,1,6.9,5.806a.314.314,0,1,0,.522-.35A4.087,4.087,0,0,0,5.3,3.847a2.137,2.137,0,1,0-2.558,0A4.087,4.087,0,0,0,.021,6.892.955.955,0,0,0,.954,8.044H7.091a.955.955,0,0,0,.933-1.151ZM2.514,2.137A1.508,1.508,0,1,1,4.1,3.643H3.946A1.51,1.51,0,0,1,2.514,2.137Z" transform="translate(5.655 5.494)" stroke="#000" stroke-width="0.3"/>
  </g>
</svg>
