<svg xmlns="http://www.w3.org/2000/svg" width="15.21" height="13.894" viewBox="0 0 15.21 13.894">
  <g id="linked-in" transform="translate(26.207 -44.939)">
    <g id="Group_11036" data-name="Group 11036" transform="translate(-26.207 44.939)">
      <path id="Path_19878" data-name="Path 19878" d="M.494,188.481H2.471a.494.494,0,0,0,.494-.494v-8.643a.494.494,0,0,0-.494-.494H.494a.494.494,0,0,0-.494.494v8.643A.494.494,0,0,0,.494,188.481Z" transform="translate(0 -174.587)"/>
      <path id="Path_19879" data-name="Path 19879" d="M.494,26.66H2.471a.494.494,0,0,0,.494-.494V24.41a.494.494,0,0,0-.494-.494H.494A.494.494,0,0,0,0,24.41v1.756A.494.494,0,0,0,.494,26.66Z" transform="translate(0 -23.916)"/>
      <path id="Path_19880" data-name="Path 19880" d="M191.015,170.9a3.007,3.007,0,0,0-1.229-.9,4.451,4.451,0,0,0-1.794-.353,4.394,4.394,0,0,0-3.376,1.521c-.184.2-.317.158-.317-.115v-.658a.494.494,0,0,0-.494-.494h-1.766a.494.494,0,0,0-.494.494v8.643a.494.494,0,0,0,.494.494h1.977a.494.494,0,0,0,.494-.494v-3.006a9.671,9.671,0,0,1,.227-2.575,2.127,2.127,0,0,1,.839-1.119,2.378,2.378,0,0,1,1.382-.422,1.764,1.764,0,0,1,1.029.3,1.647,1.647,0,0,1,.617.828,8.838,8.838,0,0,1,.19,2.348v3.649a.494.494,0,0,0,.494.494h1.977a.494.494,0,0,0,.494-.494V174.14a9.27,9.27,0,0,0-.163-1.994A3.267,3.267,0,0,0,191.015,170.9Z" transform="translate(-176.549 -165.635)"/>
    </g>
  </g>
</svg>
