<svg id="translation" xmlns="http://www.w3.org/2000/svg" width="22.338" height="22.338" viewBox="0 0 22.338 22.338">
  <g id="Group_10976" data-name="Group 10976" transform="translate(0 0)">
    <g id="Group_10975" data-name="Group 10975">
      <path id="Path_19843" data-name="Path 19843" d="M3.271,3.271A11.169,11.169,0,0,1,20.978,16.5l1.36,5.833L16.5,20.978A11.168,11.168,0,0,1,3.271,3.271Zm7.9,17.755a9.855,9.855,0,0,0,4.912-1.309l.224-.129,4.283,1-1-4.283.129-.224a9.86,9.86,0,1,0-8.549,4.946Z" transform="translate(0 0)"/>
    </g>
  </g>
  <g id="Group_10978" data-name="Group 10978" transform="translate(2.617 2.617)">
    <g id="Group_10977" data-name="Group 10977">
      <path id="Path_19844" data-name="Path 19844" d="M68.622,59.99a8.55,8.55,0,1,1-8.55,8.55A8.56,8.56,0,0,1,68.622,59.99Zm2.957,1.94a7.678,7.678,0,0,1,.419.737,13.036,13.036,0,0,1,1.214,5.219h2.622A7.257,7.257,0,0,0,71.579,61.93Zm4.255,7.264H73.211A13.035,13.035,0,0,1,72,74.413a7.691,7.691,0,0,1-.419.737A7.257,7.257,0,0,0,75.833,69.194Zm-6.557,0v6.424a3.85,3.85,0,0,0,1.551-1.791A11.673,11.673,0,0,0,71.9,69.194H69.276Zm0-1.309H71.9a11.671,11.671,0,0,0-1.074-4.633,3.85,3.85,0,0,0-1.551-1.791Zm-7.866,0h2.622a13.035,13.035,0,0,1,1.214-5.219,7.686,7.686,0,0,1,.419-.737A7.257,7.257,0,0,0,61.411,67.886Zm6.557,0V61.461a3.85,3.85,0,0,0-1.551,1.791,11.673,11.673,0,0,0-1.074,4.633Zm0,7.733V69.194H65.343a11.671,11.671,0,0,0,1.074,4.633A3.85,3.85,0,0,0,67.968,75.619Zm-2.3-.469a7.68,7.68,0,0,1-.419-.737,13.036,13.036,0,0,1-1.214-5.219H61.411A7.257,7.257,0,0,0,65.665,75.149Z" transform="translate(-60.072 -59.99)"/>
    </g>
  </g>
</svg>
