<svg xmlns="http://www.w3.org/2000/svg" width="27.117" height="20.656" viewBox="0 0 27.117 20.656">
  <path id="Path_19830" data-name="Path 19830" d="M24.734,61H2.383A2.387,2.387,0,0,0,0,63.383V79.272a2.387,2.387,0,0,0,2.383,2.383h22.35a2.387,2.387,0,0,0,2.383-2.383V63.383A2.387,2.387,0,0,0,24.734,61ZM24.4,62.589l-10.8,10.8L2.72,62.589ZM1.589,78.943V63.7l7.652,7.586Zm1.124,1.123,7.657-7.657,2.683,2.66a.794.794,0,0,0,1.121,0l2.616-2.616L24.4,80.067Zm22.816-1.123-7.615-7.615,7.615-7.615Z" transform="translate(0 -61)"/>
</svg>
