<svg xmlns="http://www.w3.org/2000/svg" width="20.836" height="26.02" viewBox="0 0 20.836 26.02">
  <g id="_064-pin-1" data-name="064-pin-1" transform="translate(-51.003)">
    <g id="Group_10841" data-name="Group 10841" transform="translate(55.068 4.066)">
      <g id="Group_10840" data-name="Group 10840">
        <path id="Path_19352" data-name="Path 19352" d="M137.352,80a6.352,6.352,0,1,0,1.742,12.463,1.016,1.016,0,1,0-.557-1.955,4.314,4.314,0,1,1,2.953-2.912,1.016,1.016,0,1,0,1.947.584A6.357,6.357,0,0,0,137.352,80Z" transform="translate(-131 -80)"/>
      </g>
    </g>
    <g id="Group_10843" data-name="Group 10843" transform="translate(51.003)">
      <g id="Group_10842" data-name="Group 10842">
        <path id="Path_19353" data-name="Path 19353" d="M68.784,3.047A10.418,10.418,0,0,0,51,10.408a10.886,10.886,0,0,0,1.72,5.809A30.941,30.941,0,0,0,56.4,20.779a34.693,34.693,0,0,1,3.858,4.768,1.017,1.017,0,0,0,.859.473h.61a1.016,1.016,0,0,0,.859-.473,34.694,34.694,0,0,1,3.858-4.768,30.937,30.937,0,0,0,3.676-4.561,10.887,10.887,0,0,0,1.72-5.812A10.35,10.35,0,0,0,68.784,3.047ZM64.942,19.408a41.891,41.891,0,0,0-3.521,4.22,41.885,41.885,0,0,0-3.521-4.22c-2.608-2.856-4.86-5.323-4.864-9a8.385,8.385,0,0,1,16.77,0C69.8,14.085,67.55,16.552,64.942,19.408Z" transform="translate(-51.003)"/>
      </g>
    </g>
  </g>
</svg>
