<svg id="Group_2608" data-name="Group 2608" xmlns="http://www.w3.org/2000/svg" width="9.749" height="10.271" viewBox="0 0 9.749 10.271">
  <g id="right-arrow" transform="translate(0 1.755)">
    <g id="Group_2607" data-name="Group 2607">
      <path id="Path_416" data-name="Path 416" d="M104.988,2.831,102.255.1a.337.337,0,0,0-.475,0l-.2.2a.336.336,0,0,0,0,.475l2.3,2.3-2.3,2.3a.337.337,0,0,0,0,.475l.2.2a.337.337,0,0,0,.475,0l2.736-2.736a.339.339,0,0,0,0-.477Z" transform="translate(-101.478)" fill="#fff"/>
    </g>
  </g>
  <g id="right-arrow-2" data-name="right-arrow" transform="translate(3.715)">
    <g id="Group_2607-2" data-name="Group 2607" transform="translate(0)">
      <path id="Path_416-2" data-name="Path 416" d="M107.349,4.735,102.778.164a.563.563,0,0,0-.795,0L101.646.5a.563.563,0,0,0,0,.795l3.838,3.838-3.843,3.843a.563.563,0,0,0,0,.795l.337.336a.563.563,0,0,0,.795,0l4.575-4.575a.567.567,0,0,0,0-.8Z" transform="translate(-101.478)" fill="#fff"/>
    </g>
  </g>
</svg>
