<svg xmlns="http://www.w3.org/2000/svg" width="66.996" height="52.5" viewBox="0 0 66.996 52.5">
  <g id="outline" transform="translate(-15.284 -72.001)">
    <path id="Path_476" data-name="Path 476" d="M209.751,78.41a1.976,1.976,0,0,0-1.884-1.368h-3.861l-1.193-3.672a1.981,1.981,0,0,0-3.767,0l-1.193,3.672h-3.861a1.981,1.981,0,0,0-1.164,3.583l3.123,2.269-1.193,3.672a1.98,1.98,0,0,0,3.048,2.214l3.123-2.269,3.123,2.269a1.981,1.981,0,0,0,3.048-2.214l-1.193-3.672,3.123-2.269A1.976,1.976,0,0,0,209.751,78.41Zm-5.809,3.156a1.115,1.115,0,0,0-.405,1.247l1.206,3.712-3.158-2.294a1.115,1.115,0,0,0-1.31,0l-3.158,2.294,1.206-3.712a1.115,1.115,0,0,0-.405-1.247l-3.158-2.294h3.9a1.115,1.115,0,0,0,1.06-.77l1.206-3.712,1.206,3.713a1.115,1.115,0,0,0,1.06.77h3.9Z" transform="translate(-152.097)"/>
    <path id="Path_477" data-name="Path 477" d="M90.7,145.189a1.8,1.8,0,0,0,1.713-2.358l-.893-2.748,2.338-1.7a1.8,1.8,0,0,0-1.059-3.258h-2.89l-.893-2.748a1.8,1.8,0,0,0-3.425,0l-.893,2.748H81.8a1.8,1.8,0,0,0-1.059,3.258l2.338,1.7-.893,2.748a1.8,1.8,0,0,0,2.771,2.013l2.338-1.7,2.338,1.7a1.8,1.8,0,0,0,1.059.345Zm-4.052-4.324-1.925,1.4L85.456,140a1.115,1.115,0,0,0-.405-1.247l-1.925-1.4H85.5a1.115,1.115,0,0,0,1.06-.77l.735-2.263.735,2.263a1.115,1.115,0,0,0,1.06.77h2.379l-1.925,1.4A1.115,1.115,0,0,0,89.145,140l.735,2.263-1.925-1.4a1.115,1.115,0,0,0-1.311,0Z" transform="translate(-55.699 -50.891)"/>
    <path id="Path_478" data-name="Path 478" d="M28.076,239.125h-2.89l-.893-2.748a1.8,1.8,0,0,0-3.425,0l-.893,2.748h-2.89a1.8,1.8,0,0,0-1.059,3.258l2.338,1.7-.893,2.749a1.8,1.8,0,0,0,2.771,2.013l2.338-1.7,2.338,1.7a1.8,1.8,0,0,0,2.771-2.014l-.893-2.748,2.338-1.7a1.8,1.8,0,0,0-1.059-3.258Zm-3.246,3.628A1.115,1.115,0,0,0,24.426,244l.735,2.263-1.925-1.4a1.115,1.115,0,0,0-1.31,0L20,246.263,20.736,244a1.115,1.115,0,0,0-.405-1.247l-1.925-1.4h2.379a1.115,1.115,0,0,0,1.06-.77l.735-2.263.735,2.263a1.115,1.115,0,0,0,1.06.77h2.379Z" transform="translate(0 -140.396)"/>
    <path id="Path_479" data-name="Path 479" d="M404.072,239.125h-2.89l-.893-2.748a1.8,1.8,0,0,0-3.425,0l-.893,2.748h-2.89a1.8,1.8,0,0,0-1.059,3.258l2.338,1.7-.893,2.749a1.8,1.8,0,0,0,2.771,2.013l2.338-1.7,2.338,1.7a1.8,1.8,0,0,0,2.772-2.014l-.893-2.748,2.338-1.7a1.8,1.8,0,0,0-1.059-3.258Zm-3.246,3.628a1.115,1.115,0,0,0-.405,1.247l.735,2.263-1.925-1.4a1.115,1.115,0,0,0-1.31,0l-1.925,1.4.735-2.263a1.115,1.115,0,0,0-.405-1.247l-1.925-1.4h2.379a1.115,1.115,0,0,0,1.06-.77l.735-2.263.735,2.263a1.115,1.115,0,0,0,1.06.77h2.379Z" transform="translate(-323.593 -140.396)"/>
    <path id="Path_480" data-name="Path 480" d="M337.973,145.188a1.8,1.8,0,0,0,1.713-2.358l-.893-2.748,2.338-1.7a1.8,1.8,0,0,0-1.059-3.258h-2.89l-.893-2.748a1.8,1.8,0,0,0-3.425,0l-.893,2.749h-2.89a1.8,1.8,0,0,0-1.059,3.258l2.338,1.7-.893,2.748a1.8,1.8,0,0,0,2.771,2.013l2.338-1.7,2.338,1.7A1.8,1.8,0,0,0,337.973,145.188Zm-4.052-4.324-1.925,1.4.735-2.263a1.115,1.115,0,0,0-.4-1.247l-1.925-1.4h2.379a1.115,1.115,0,0,0,1.06-.77l.735-2.263.735,2.263a1.115,1.115,0,0,0,1.06.77h2.379l-1.925,1.4a1.115,1.115,0,0,0-.405,1.247l.735,2.263-1.925-1.4a1.115,1.115,0,0,0-1.311,0Z" transform="translate(-268.513 -50.89)"/>
    <path id="Path_481" data-name="Path 481" d="M166.1,242.735h-7.8V237.16a4.465,4.465,0,0,0-4.46-4.46h-2.23a1.115,1.115,0,0,0-1.1.957l-.41,2.869a8.4,8.4,0,0,1-4.341,6.209h-8.639A1.115,1.115,0,0,0,136,243.85v15.609a1.115,1.115,0,0,0,1.115,1.115H145.7l.73.487a10.347,10.347,0,0,0,5.758,1.743h12.8a3.343,3.343,0,0,0,2.491-5.575,3.339,3.339,0,0,0,0-4.46,3.339,3.339,0,0,0,.423-3.871,3.345,3.345,0,0,0-1.8-6.164Zm-27.874,2.23h6.69v13.38h-6.69Zm27.874,2.23h-1.115a1.115,1.115,0,1,0,0,2.23,1.115,1.115,0,0,1,0,2.23,1.115,1.115,0,1,0,0,2.23,1.115,1.115,0,0,1,0,2.23,1.115,1.115,0,0,0,0,2.23,1.115,1.115,0,1,1,0,2.23h-12.8a8.125,8.125,0,0,1-4.521-1.369l-.514-.343v-14.35a10.633,10.633,0,0,0,5.154-7.671l.273-1.911h1.263a2.233,2.233,0,0,1,2.23,2.23v6.69a1.115,1.115,0,0,0,1.115,1.115h8.92a1.115,1.115,0,1,1,0,2.23Z" transform="translate(-103.892 -138.303)"/>
  </g>
</svg>
