<svg id="Group_64" data-name="Group 64" xmlns="http://www.w3.org/2000/svg" xmlns:xlink="http://www.w3.org/1999/xlink" width="189.731" height="56.217" viewBox="0 0 189.731 56.217">
  <defs>
    <linearGradient id="linear-gradient" x1="0.908" y1="1.032" x2="-0.383" y2="0.36" gradientUnits="objectBoundingBox">
      <stop offset="0" stop-color="#00a0ff"/>
      <stop offset="0.007" stop-color="#00a1ff"/>
      <stop offset="0.26" stop-color="#00beff"/>
      <stop offset="0.512" stop-color="#00d2ff"/>
      <stop offset="0.76" stop-color="#00dfff"/>
      <stop offset="1" stop-color="#00e3ff"/>
    </linearGradient>
    <linearGradient id="linear-gradient-2" x1="1.077" y1="0.729" x2="-1.307" y2="0.729" gradientUnits="objectBoundingBox">
      <stop offset="0" stop-color="#ffe000"/>
      <stop offset="0.409" stop-color="#ffbd00"/>
      <stop offset="0.775" stop-color="orange"/>
      <stop offset="1" stop-color="#ff9c00"/>
    </linearGradient>
    <linearGradient id="linear-gradient-3" x1="0.864" y1="-0.023" x2="-0.499" y2="-1.789" gradientUnits="objectBoundingBox">
      <stop offset="0" stop-color="#ff3a44"/>
      <stop offset="1" stop-color="#c31162"/>
    </linearGradient>
    <linearGradient id="linear-gradient-4" x1="-0.186" y1="2.701" x2="0.423" y2="1.909" gradientUnits="objectBoundingBox">
      <stop offset="0" stop-color="#32a071"/>
      <stop offset="0.069" stop-color="#2da771"/>
      <stop offset="0.476" stop-color="#15cf74"/>
      <stop offset="0.801" stop-color="#06e775"/>
      <stop offset="1" stop-color="#00f076"/>
    </linearGradient>
  </defs>
  <path id="Path_392" data-name="Path 392" d="M182.7,56.217H7.027A6.959,6.959,0,0,1,0,49.19V7.027A6.959,6.959,0,0,1,7.027,0H182.7a6.959,6.959,0,0,1,7.027,7.027V49.19A6.959,6.959,0,0,1,182.7,56.217Z"/>
  <path id="Path_393" data-name="Path 393" d="M182.7,1.124a5.938,5.938,0,0,1,5.9,5.9V49.19a5.938,5.938,0,0,1-5.9,5.9H7.027a5.938,5.938,0,0,1-5.9-5.9V7.027a5.938,5.938,0,0,1,5.9-5.9H182.7M182.7,0H7.027A7.047,7.047,0,0,0,0,7.027V49.19a6.959,6.959,0,0,0,7.027,7.027H182.7a6.959,6.959,0,0,0,7.027-7.027V7.027A7.048,7.048,0,0,0,182.7,0Z" fill="#a6a6a6"/>
  <path id="Path_394" data-name="Path 394" d="M79.046,23.705A5.913,5.913,0,0,0,73,29.749a6,6,0,0,0,6.043,6.043,5.913,5.913,0,0,0,6.043-6.043A5.831,5.831,0,0,0,79.046,23.705Zm0,9.557a3.489,3.489,0,0,1-3.373-3.654,3.489,3.489,0,0,1,3.373-3.654,3.4,3.4,0,0,1,3.373,3.654A3.489,3.489,0,0,1,79.046,33.262Zm-13.07-9.557a5.913,5.913,0,0,0-6.043,6.043,6,6,0,0,0,6.043,6.043,5.913,5.913,0,0,0,6.043-6.043A5.831,5.831,0,0,0,65.976,23.705Zm0,9.557A3.489,3.489,0,0,1,62.6,29.608a3.489,3.489,0,0,1,3.373-3.654,3.4,3.4,0,0,1,3.373,3.654A3.489,3.489,0,0,1,65.976,33.262Zm-15.6-7.73v2.53h6.043a5.314,5.314,0,0,1-1.405,3.232,6.221,6.221,0,0,1-4.638,1.827,6.543,6.543,0,0,1-6.605-6.746,6.63,6.63,0,0,1,6.605-6.746,6.968,6.968,0,0,1,4.638,1.827l1.827-1.827a9.006,9.006,0,0,0-6.324-2.53A9.481,9.481,0,0,0,41.1,26.376a9.481,9.481,0,0,0,9.416,9.276,8.088,8.088,0,0,0,6.465-2.67,8.46,8.46,0,0,0,2.249-5.9,5.27,5.27,0,0,0-.141-1.546H50.376ZM114.182,27.5a5.461,5.461,0,0,0-5.059-3.795c-3.092,0-5.622,2.389-5.622,6.043a5.881,5.881,0,0,0,5.9,6.043,5.765,5.765,0,0,0,4.919-2.67l-1.968-1.405A3.426,3.426,0,0,1,109.4,33.4a3.049,3.049,0,0,1-2.951-1.827l8.011-3.373-.281-.7Zm-8.151,1.968a3.414,3.414,0,0,1,3.092-3.514,2.486,2.486,0,0,1,2.249,1.265l-5.341,2.249ZM99.425,35.23h2.67V17.662h-2.67ZM95.209,24.97a4.627,4.627,0,0,0-3.232-1.405,6.039,6.039,0,0,0-5.762,6.043,5.819,5.819,0,0,0,5.762,5.9,4.035,4.035,0,0,0,3.092-1.405h.141v.843c0,2.249-1.265,3.514-3.232,3.514a3.122,3.122,0,0,1-2.951-2.108l-2.249.984a5.8,5.8,0,0,0,5.341,3.514c3.092,0,5.622-1.827,5.622-6.184V23.987h-2.53v.984Zm-3.092,8.292a3.489,3.489,0,0,1-3.373-3.654,3.489,3.489,0,0,1,3.373-3.654,3.381,3.381,0,0,1,3.232,3.654A3.381,3.381,0,0,1,92.117,33.262Zm34.292-15.6h-6.324V35.23h2.67V28.624h3.654a5.488,5.488,0,1,0,0-10.962Zm.141,8.432h-3.795V20.051h3.795A3.087,3.087,0,0,1,129.641,23a3.216,3.216,0,0,1-3.092,3.092Zm16.162-2.53a4.724,4.724,0,0,0-4.638,2.67l2.389.984a2.483,2.483,0,0,1,2.389-1.265,2.641,2.641,0,0,1,2.811,2.249v.141a5.575,5.575,0,0,0-2.67-.7c-2.53,0-5.059,1.405-5.059,3.935a4.117,4.117,0,0,0,4.357,3.935,3.955,3.955,0,0,0,3.373-1.687h.141V35.23h2.53V28.484a5.319,5.319,0,0,0-5.622-4.919Zm-.281,9.7c-.843,0-2.108-.422-2.108-1.546,0-1.405,1.546-1.827,2.811-1.827a5.435,5.435,0,0,1,2.389.562A3.273,3.273,0,0,1,142.43,33.262Zm14.757-9.276-2.951,7.589H154.1L151,23.987h-2.811l4.638,10.681-2.67,5.9h2.67L160,23.987h-2.811ZM133.576,35.23h2.67V17.662h-2.67Z" transform="translate(16.663 6.933)" fill="#fff"/>
  <path id="Path_395" data-name="Path 395" d="M10.562,7.5A2.748,2.748,0,0,0,10,9.468v31.06a2.78,2.78,0,0,0,.7,1.968l.141.141L28.27,25.208v-.281Z" transform="translate(4.054 3.041)" fill="url(#linear-gradient)"/>
  <path id="Path_396" data-name="Path 396" d="M28.662,27.746,22.9,21.984v-.422L28.662,15.8l.141.141,6.887,3.935c1.968,1.124,1.968,2.951,0,4.076Z" transform="translate(9.284 6.406)" fill="url(#linear-gradient-2)"/>
  <path id="Path_397" data-name="Path 397" d="M33.87,25.9l-5.9-5.9L10.4,37.568c.7.7,1.686.7,2.951.141L33.87,25.9" transform="translate(4.216 8.108)" fill="url(#linear-gradient-3)"/>
  <path id="Path_398" data-name="Path 398" d="M33.87,19.3,13.351,7.633c-1.265-.7-2.249-.562-2.951.141L27.968,25.2l5.9-5.9Z" transform="translate(4.216 2.907)" fill="url(#linear-gradient-4)"/>
  <path id="Path_399" data-name="Path 399" d="M33.73,24.1,13.351,35.624a2.3,2.3,0,0,1-2.811,0l-.141.141.141.141a2.3,2.3,0,0,0,2.811,0Z" transform="translate(4.216 9.771)" opacity="0.2"/>
  <path id="Path_400" data-name="Path 400" d="M10.562,37.287A2.748,2.748,0,0,1,10,35.319v.141a2.78,2.78,0,0,0,.7,1.968v-.141h-.141Zm30.357-15.46-7.027,3.935.141.141,6.887-3.935A2.336,2.336,0,0,0,42.325,20C42.325,20.7,41.762,21.265,40.919,21.827Z" transform="translate(4.054 8.108)" opacity="0.12"/>
  <path id="Path_401" data-name="Path 401" d="M13.514,7.784l27.406,15.6c.843.562,1.405,1.124,1.405,1.827a2.336,2.336,0,0,0-1.405-1.968L13.514,7.643C11.546,6.519,10,7.362,10,9.611v.141C10,7.643,11.546,6.659,13.514,7.784Z" transform="translate(4.054 2.898)" fill="#fff" opacity="0.25"/>
  <g id="Group_63" data-name="Group 63" transform="translate(57.482 9.697)">
    <path id="Path_402" data-name="Path 402" d="M48.349,14.349A4.357,4.357,0,0,1,40.9,11.257a4.132,4.132,0,0,1,1.265-3.092,4.411,4.411,0,0,1,6.184,0,4.132,4.132,0,0,1,1.265,3.092A4.132,4.132,0,0,1,48.349,14.349Zm-5.341-.7a3.317,3.317,0,0,0,2.249.984,2.8,2.8,0,0,0,2.249-.984,3.391,3.391,0,0,0,.984-2.389,2.9,2.9,0,0,0-.984-2.389,3.317,3.317,0,0,0-2.249-.984,2.8,2.8,0,0,0-2.249.984,3.391,3.391,0,0,0-.984,2.389A2.9,2.9,0,0,0,43.008,13.646Zm8.151,1.827V7.041h1.265L56.5,13.646V7.041h1.124v8.432H56.5L52.284,8.586v6.887Zm11.243,0H61.279V8.024H58.889V7.041h5.762v.984H62.262v7.449Zm3.795,0V7.041h2.53a4.375,4.375,0,0,1,3.092,1.124,4.026,4.026,0,0,1,1.124,3.092,4.63,4.63,0,0,1-1.124,3.092,4.026,4.026,0,0,1-3.092,1.124Zm.984-.984h1.546a2.967,2.967,0,0,0,2.249-.843,3.306,3.306,0,0,0,.843-2.389,3.306,3.306,0,0,0-.843-2.389,3.192,3.192,0,0,0-2.249-.843H67.181ZM79.408,8.024H75.614v2.67h3.514v.984H75.614v2.67h3.795v1.124H74.489V7.041h4.919Zm8.011-.984-3.092,3.654L87.7,15.473H86.435l-2.811-3.935L82.36,13.084v2.389H81.235V7.041H82.36V11.4l3.654-4.357Zm4.076,8.432V7.041h1.124v3.654h4.216V7.041H97.96v8.432H96.836V11.678H92.619v3.795Zm13.351-7.449h-3.795v2.67h3.514v.984h-3.514v2.67h3.795v1.124H99.927V7.041h4.919Zm4.5,7.449h-1.124V8.024H105.83V7.041h5.762v.984H109.2v7.449ZM122.7,14.349a4.357,4.357,0,0,1-7.449-3.092,4.132,4.132,0,0,1,1.265-3.092,4.411,4.411,0,0,1,6.184,0,4.132,4.132,0,0,1,1.265,3.092A4.132,4.132,0,0,1,122.7,14.349Zm-5.341-.7a3.317,3.317,0,0,0,2.249.984,2.8,2.8,0,0,0,2.249-.984,3.391,3.391,0,0,0,.984-2.389,2.9,2.9,0,0,0-.984-2.389,3.317,3.317,0,0,0-2.249-.984,2.8,2.8,0,0,0-2.249.984,3.391,3.391,0,0,0-.984,2.389A2.9,2.9,0,0,0,117.355,13.646Zm9.135,1.827h-1.124V7.041h2.811a2.96,2.96,0,0,1,1.827.7,2.266,2.266,0,0,1,.843,1.827A2.474,2.474,0,0,1,130,11.4a2.96,2.96,0,0,1-1.827.7h-1.827v3.373Zm0-4.5h1.827a1.6,1.6,0,0,0,1.124-.422,1.518,1.518,0,0,0,.422-.984,1.518,1.518,0,0,0-.422-.984,1.6,1.6,0,0,0-1.124-.422H126.49Z" transform="translate(-40.9 -6.9)" fill="#fff" stroke="#fff" stroke-miterlimit="10" stroke-width="0.2"/>
  </g>
</svg>
