<svg xmlns="http://www.w3.org/2000/svg" width="26" height="26" viewBox="0 0 26 26">
  <g id="Group_103" data-name="Group 103" transform="translate(0.186 0.052)">
    <rect id="Rectangle_73" data-name="Rectangle 73" width="26" height="26" transform="translate(-0.186 -0.052)" fill="none"/>
    <path id="Path_377" data-name="Path 377" d="M15.809,14.519a.809.809,0,0,1-.572-1.381l8.9-8.9a.809.809,0,0,1,1.144,1.144l-8.9,8.9A.807.807,0,0,1,15.809,14.519Z" transform="translate(-2.862 -0.763)" fill="#fff"/>
    <path id="Path_378" data-name="Path 378" d="M26.242,5.656a.809.809,0,0,1-.014-1.618L28.46,4h.014a.809.809,0,0,1,.014,1.618l-2.232.038Zm-3.433,3.2a.809.809,0,1,1,0-1.618h2.428a.809.809,0,0,1,0,1.618Z" transform="translate(-4.198 -0.763)" fill="#fff"/>
    <path id="Path_379" data-name="Path 379" d="M23.718,4.85H23.7a.81.81,0,0,1-.8-.823L22.947,1.8a.809.809,0,0,1,1.618.028l-.038,2.232A.81.81,0,0,1,23.718,4.85Zm-3.2,3.433h-.011a.81.81,0,0,1-.8-.82l.038-3.041a.809.809,0,0,1,.809-.8h.011a.809.809,0,0,1,.8.82l-.038,3.041A.809.809,0,0,1,20.519,8.283Zm-5.664,9.71a4.855,4.855,0,0,1,0-9.71.809.809,0,1,1,0,1.618,3.237,3.237,0,1,0,3.237,3.237.809.809,0,1,1,1.618,0A4.86,4.86,0,0,1,14.855,17.993Z" transform="translate(-1.908 -0.191)" fill="#fff"/>
    <path id="Path_380" data-name="Path 380" d="M13.138,25.275a12.138,12.138,0,1,1,2.6-24c.292.063.583.138.867.223a.809.809,0,1,1-.461,1.55c-.246-.073-.5-.138-.75-.193a10.5,10.5,0,1,0,8.021,8.021c-.056-.253-.121-.5-.193-.751a.809.809,0,0,1,1.55-.461q.127.427.223.866A12.146,12.146,0,0,1,13.138,25.275Z" transform="translate(-0.191 -0.191)" fill="#fff"/>
  </g>
</svg>
