<svg xmlns="http://www.w3.org/2000/svg" width="23.285" height="23.221" viewBox="0 0 23.285 23.221">
  <g id="Group_102" data-name="Group 102" transform="translate(-2.218 -2.25)">
    <path id="Path_381" data-name="Path 381" d="M13.862,15A15.053,15.053,0,0,0,2.624,20.126a.473.473,0,0,0,0,.634,15.053,15.053,0,0,0,11.238,5.126A15.053,15.053,0,0,0,25.1,20.761a.473.473,0,0,0,0-.634A15.053,15.053,0,0,0,13.862,15Zm0,9.941a14.087,14.087,0,0,1-10.243-4.5,14.087,14.087,0,0,1,10.243-4.5,14.087,14.087,0,0,1,10.243,4.5,14.087,14.087,0,0,1-10.243,4.5Z" transform="translate(-0.001 -6.583)" fill="#fff" stroke="#fff" stroke-width="0.5"/>
    <path id="Path_382" data-name="Path 382" d="M19,22.55A3.574,3.574,0,1,0,22.55,19,3.574,3.574,0,0,0,19,22.55Zm6.2,0a2.639,2.639,0,1,0-.024,0Z" transform="translate(-8.69 -8.69)" fill="#fff" stroke="#fff" stroke-width="0.5"/>
    <path id="Path_383" data-name="Path 383" d="M12.3,13.861A1.562,1.562,0,1,0,13.861,12.3,1.562,1.562,0,0,0,12.3,13.861Zm2.177,0a.615.615,0,1,1-.615-.615.615.615,0,0,1,.615.615Zm-11.5,4.3a.473.473,0,0,0-.473.473v6.116a.473.473,0,0,0,.473.473H9.089a.473.473,0,0,0,0-.947H3.447V18.632A.473.473,0,0,0,2.973,18.159Zm21.774,0a.473.473,0,0,0-.473.473v5.642H18.632a.473.473,0,0,0,0,.947h6.116a.473.473,0,0,0,.473-.473V18.632A.473.473,0,0,0,24.748,18.159ZM2.973,9.563a.473.473,0,0,0,.473-.473V3.447H9.089a.473.473,0,0,0,0-.947H2.973a.473.473,0,0,0-.473.473V9.089A.473.473,0,0,0,2.973,9.563Zm21.774,0a.473.473,0,0,0,.473-.473V2.973a.473.473,0,0,0-.473-.473H18.632a.473.473,0,1,0,0,.947h5.642V9.089A.473.473,0,0,0,24.748,9.563Z" fill="#fff" stroke="#fff" stroke-width="0.5"/>
  </g>
</svg>
