<svg xmlns="http://www.w3.org/2000/svg" width="25.96" height="25.909" viewBox="0 0 25.96 25.909">
  <g id="layer1" transform="translate(0.161 0.15)">
    <path id="path5305-4" d="M25.722,1a16.865,16.865,0,0,0-6.595,1.34,18.183,18.183,0,0,0-1.682.893,23.2,23.2,0,0,0-6.358,5.518,4.3,4.3,0,0,0-1.156-.315A6.52,6.52,0,0,0,5.491,9.8,15.093,15.093,0,0,0,.525,16.239c-.17.346.368.755.657.5a10.6,10.6,0,0,1,4.1-2.26,1.656,1.656,0,0,1,1.892.788c-.041.1-.092.192-.131.289a.431.431,0,0,0,.079.473L11.113,20a.431.431,0,0,0,.447.105c.1-.04.193-.09.289-.131a1.627,1.627,0,0,1,.788,1.892,10.448,10.448,0,0,1-2.233,4.1.444.444,0,0,0,.473.631,15.143,15.143,0,0,0,6.463-4.939c1.291-1.844,1.768-3.856,1.051-5.57a22.68,22.68,0,0,0,6.122-7.357,5.737,5.737,0,0,0,.342-.762A17.1,17.1,0,0,0,26.142,1.42.437.437,0,0,0,25.722,1Zm-.473.893a16.46,16.46,0,0,1-1,5.2l-4.2-4.2A16.247,16.247,0,0,1,25.249,1.893Zm-6.043,1.34,4.729,4.729-.368.709-5.1-5.045C18.9,3.382,18.953,3.371,19.206,3.233Zm-1.5.841,5.439,5.36a24.452,24.452,0,0,1-9.905,8.959c-.488.244-.981.485-1.5.709-.085.037-.178.069-.263.105L7.934,15.635a24.766,24.766,0,0,1,9.774-11.56Zm-.42,4.072A1.865,1.865,0,1,0,18.6,8.7a1.858,1.858,0,0,0-1.314-.552Zm0,.841a1.035,1.035,0,0,1,.736.289,1.018,1.018,0,0,1,0,1.445,1.05,1.05,0,0,1-1.471,0,1.018,1.018,0,0,1,0-1.445,1.035,1.035,0,0,1,.736-.289Zm-8.224.289a4.7,4.7,0,0,1,1.366.263c-.327.448-.636.936-.946,1.419-.2.31-.416.632-.6.946-.283.481-.552.985-.814,1.5-.183.351-.335.7-.5,1.051-.013.029-.039.05-.053.079a2.52,2.52,0,0,0-2.365-.867,8.749,8.749,0,0,0-2.943,1.393,13.83,13.83,0,0,1,3.757-4.572A6.8,6.8,0,0,1,8.591,9.3,2.388,2.388,0,0,1,9.064,9.276ZM6.332,16.5l-.289.5L5.281,18.42l-.131.263.21.236,2.916,2.89.237.21.263-.158,1.366-.788.473-.289-.394-.368L6.726,16.9Zm11.272.21a5.046,5.046,0,0,1-.946,4.467,13.806,13.806,0,0,1-4.572,3.757,8.717,8.717,0,0,0,1.393-2.943,2.551,2.551,0,0,0-.867-2.365c.454-.209.911-.416,1.366-.657.439-.229.846-.465,1.261-.709A28.022,28.022,0,0,0,17.6,16.712ZM6.516,17.894,9.248,20.6l-.6.368-2.47-2.443ZM4.939,20.206l-2,2,.42.394,1.97-2Zm.814.788L2.548,24.2l.394.394,3.205-3.205Zm.788.814L4.151,24.2l.394.394L6.936,22.2ZM2.548,22.6l-.394.394.394.394.394-.394Zm-.394,2-.394.394.394.394.394-.394Zm1.6,0-.394.394.394.394.394-.394Z" transform="translate(-0.493 -1)" fill="#fff" stroke="#fff" stroke-width="0.3"/>
  </g>
</svg>
