<svg xmlns="http://www.w3.org/2000/svg" width="24.241" height="21.306" viewBox="0 0 24.241 21.306">
  <path id="portfolio_2_" data-name="portfolio (2)" d="M23.536,2.841H17.092v-.71A2.133,2.133,0,0,0,14.962,0H9.28A2.133,2.133,0,0,0,7.149,2.131v.71H.71a.712.712,0,0,0-.71.71V19.175a2.133,2.133,0,0,0,2.131,2.131h19.98a2.133,2.133,0,0,0,2.131-2.131V3.563a.689.689,0,0,0-.706-.722ZM8.57,2.131a.711.711,0,0,1,.71-.71h5.682a.711.711,0,0,1,.71.71v.71H8.57ZM22.546,4.261,20.34,10.877a.709.709,0,0,1-.674.486H15.672v-.71a.71.71,0,0,0-.71-.71H9.28a.71.71,0,0,0-.71.71v.71H4.575a.709.709,0,0,1-.674-.486L1.7,4.261Zm-8.294,7.1v1.42H9.99v-1.42Zm8.57,7.812a.711.711,0,0,1-.71.71H2.131a.711.711,0,0,1-.71-.71V7.927l1.133,3.4a2.128,2.128,0,0,0,2.021,1.457H8.57v.71a.71.71,0,0,0,.71.71h5.682a.71.71,0,0,0,.71-.71v-.71h3.995a2.128,2.128,0,0,0,2.021-1.457l1.133-3.4Zm0,0" transform="translate(0)"/>
</svg>
