<svg xmlns="http://www.w3.org/2000/svg" width="20.799" height="27.5" viewBox="0 0 20.799 27.5">
  <g id="Group_11353" data-name="Group 11353" transform="translate(-13.981 -2.173)">
    <path id="Path_20068" data-name="Path 20068" d="M31.887,22.954a3.83,3.83,0,0,1-3.825,3.826H20.7a3.83,3.83,0,0,1-3.826-3.826v-6.4A3.83,3.83,0,0,1,20.7,12.73h7.363a3.829,3.829,0,0,1,3.825,3.826v6.4ZM21.243,8.365a3.141,3.141,0,1,1,6.274,0v1.722H21.243V8.365Zm8.917,2.078V8.365a5.782,5.782,0,1,0-11.56,0v2.078a6.475,6.475,0,0,0-4.37,6.112v6.4A6.476,6.476,0,0,0,20.7,29.423h7.363a6.476,6.476,0,0,0,6.468-6.469v-6.4a6.475,6.475,0,0,0-4.37-6.113" stroke="#fff" stroke-width="0.5"/>
    <path id="Path_20069" data-name="Path 20069" d="M44.871,51.833a2.031,2.031,0,0,0-.851,3.875v1.983a.851.851,0,0,0,1.7,0V55.708a2.031,2.031,0,0,0-.851-3.875" transform="translate(-20.49 -35.39)" stroke="#fff" stroke-width="0.5"/>
  </g>
</svg>
