<svg xmlns="http://www.w3.org/2000/svg" width="20.44" height="18" viewBox="0 0 20.44 18">
  <g id="Group_33" data-name="Group 33" transform="translate(-1.78 -3)">
    <path id="Path_11" data-name="Path 11" d="M19.82,9H17.9a1.38,1.38,0,0,1,0,.2,8.89,8.89,0,0,1-.79,2.24,21.17,21.17,0,0,1-3.66,5L12,17.81l-1.41-1.39a20.83,20.83,0,0,1-3.67-5,8.81,8.81,0,0,1-.79-2.25A1.25,1.25,0,0,1,6.1,9H4.18L1.78,21H22.22Z" fill="#e6e6e6"/>
    <path id="Path_12" data-name="Path 12" d="M7,8a4.94,4.94,0,0,0,.11,1,8.12,8.12,0,0,0,.71,2,20.17,20.17,0,0,0,3.47,4.71l.71.7.71-.7A20.17,20.17,0,0,0,16.18,11a8.12,8.12,0,0,0,.71-2A4.94,4.94,0,0,0,17,8,5,5,0,0,0,7,8Zm6,1H11V7h2Z" fill="#e6e6e6"/>
  </g>
</svg>
