<svg xmlns="http://www.w3.org/2000/svg" width="17.647" height="26.339" viewBox="0 0 17.647 26.339">
  <g id="Group_11200" data-name="Group 11200" transform="translate(-19.8 -4.9)">
    <path id="Path_20048" data-name="Path 20048" d="M28.667,4.9H28.4a6.569,6.569,0,0,0-6.242,6.65v2.1h-.146A1.706,1.706,0,0,0,20.3,15.371v7.963a1.706,1.706,0,0,0,1.721,1.721H35.23a1.706,1.706,0,0,0,1.721-1.721V15.371A1.706,1.706,0,0,0,35.23,13.65h-.058V11.375A6.5,6.5,0,0,0,28.667,4.9Zm1.225,16.451a.323.323,0,0,1-.321.379H27.646a.323.323,0,0,1-.321-.379l.379-1.808a1.426,1.426,0,0,1,.729-2.508h.175a1.43,1.43,0,0,1,.9,2.538Zm2.421-7.7H24.992V11.492a3.738,3.738,0,0,1,3.3-3.763c.117,0,.233-.029.35-.029a3.678,3.678,0,0,1,3.675,3.675V13.65ZM20.588,29.459A1.559,1.559,0,0,1,21,29.284a.541.541,0,0,1-.2-.058.731.731,0,0,1-.2-.117l-.788-.467L20.179,28l.788.467a1.818,1.818,0,0,1,.35.263,1.722,1.722,0,0,1-.058-.408v-.963h.788v1.167a.541.541,0,0,1-.058.2l.146-.146c.058-.029.117-.088.175-.117L23.1,28l.379.642-.788.467c-.058.029-.146.088-.2.117a.541.541,0,0,1-.2.058,1.375,1.375,0,0,1,.438.175l.788.467-.379.671-.788-.467a1.818,1.818,0,0,1-.35-.263,1.722,1.722,0,0,1,.058.408v.963h-.788V30.072a.541.541,0,0,1,.058-.2l-.146.146c-.058.029-.117.088-.175.117l-.788.467-.379-.642Zm6.563-.233a.541.541,0,0,1-.2.058,1.375,1.375,0,0,1,.438.175l.788.467-.408.671-.788-.467a1.818,1.818,0,0,1-.35-.263,1.722,1.722,0,0,1,.058.408v.963H25.9V30.072a.541.541,0,0,1,.058-.2l-.146.146c-.058.029-.117.088-.175.117l-.817.438-.379-.642.788-.467a1.559,1.559,0,0,1,.408-.175.541.541,0,0,1-.2-.058.731.731,0,0,1-.2-.117l-.788-.467L24.817,28l.788.467a1.818,1.818,0,0,1,.35.263,1.721,1.721,0,0,1-.058-.408v-.963h.788v1.167a.541.541,0,0,1-.058.2l.146-.146c.058-.029.117-.088.175-.117L27.734,28l.379.642-.788.467C27.3,29.168,27.209,29.2,27.15,29.226Zm4.638,0a.541.541,0,0,1-.2.058,1.375,1.375,0,0,1,.438.175l.788.467L32.4,30.6l-.788-.467a1.818,1.818,0,0,1-.35-.263,1.721,1.721,0,0,1,.058.408v.963h-.788V30.072a.541.541,0,0,1,.058-.2l-.146.146c-.058.029-.117.088-.175.117l-.788.467-.379-.642.788-.467a1.558,1.558,0,0,1,.408-.175.541.541,0,0,1-.2-.058.731.731,0,0,1-.2-.117l-.788-.467.379-.642.788.467a1.818,1.818,0,0,1,.35.263,1.722,1.722,0,0,1-.058-.408v-.963h.788v1.167a.541.541,0,0,1-.058.2l.146-.146c.058-.029.117-.088.175-.117l.788-.467.379.642-.788.467C31.934,29.168,31.846,29.2,31.788,29.226Zm4.638,0a.541.541,0,0,1-.2.058,1.375,1.375,0,0,1,.438.175l.788.467-.408.671-.788-.467a1.818,1.818,0,0,1-.35-.263,1.722,1.722,0,0,1,.058.408v.963h-.788V30.072a.541.541,0,0,1,.058-.2l-.146.146c-.058.029-.117.088-.175.117l-.788.467-.379-.642.788-.467a1.558,1.558,0,0,1,.408-.175.541.541,0,0,1-.2-.058.731.731,0,0,1-.2-.117l-.788-.467.379-.642.788.467a1.818,1.818,0,0,1,.35.263,1.721,1.721,0,0,1-.058-.408v-.963h.788v1.167a.541.541,0,0,1-.058.2l.146-.146c.058-.029.117-.088.175-.117l.788-.467.379.642-.788.467C36.572,29.168,36.484,29.2,36.426,29.226Z" transform="translate(0 0)"/>
  </g>
</svg>
