<svg xmlns="http://www.w3.org/2000/svg" width="16.719" height="16.686" viewBox="0 0 16.719 16.686">
  <g id="Layer_2" data-name="Layer 2" transform="translate(0)">
    <g id="phone" transform="translate(0 0)">
      <path id="Path_5" data-name="Path 5" d="M14.848,18.686A12.865,12.865,0,0,1,2,5.838,3.838,3.838,0,0,1,5.838,2a3.287,3.287,0,0,1,.642.058,3.162,3.162,0,0,1,.6.15.834.834,0,0,1,.542.626L8.766,7.84a.834.834,0,0,1-.217.768c-.108.117-.117.125-1.143.659a8.268,8.268,0,0,0,4.063,4.08c.542-1.035.551-1.043.667-1.151a.834.834,0,0,1,.768-.217l5.006,1.143a.834.834,0,0,1,.6.542,3.621,3.621,0,0,1,.159.609,3.98,3.98,0,0,1,.05.634A3.838,3.838,0,0,1,14.848,18.686Z" transform="translate(-2 -2)" fill="#e6e6e6"/>
    </g>
  </g>
</svg>
