<svg id="placeholder" xmlns="http://www.w3.org/2000/svg" width="12.743" height="18.124" viewBox="0 0 12.743 18.124">
  <g id="Group_130" data-name="Group 130" transform="translate(0 0)">
    <g id="Group_129" data-name="Group 129">
      <path id="Path_411" data-name="Path 411" d="M82.372,0a6.373,6.373,0,0,0-5.421,9.722l5.058,8.151a.531.531,0,0,0,.451.251h0a.531.531,0,0,0,.451-.258l4.929-8.23A6.373,6.373,0,0,0,82.372,0Zm4.562,9.091-4.481,7.482-4.6-7.41a5.313,5.313,0,1,1,9.08-.072Z" transform="translate(-76)"/>
    </g>
  </g>
  <g id="Group_132" data-name="Group 132" transform="translate(3.186 3.168)">
    <g id="Group_131" data-name="Group 131">
      <path id="Path_412" data-name="Path 412" d="M169.186,90a3.186,3.186,0,1,0,3.186,3.186A3.189,3.189,0,0,0,169.186,90Zm0,5.317a2.131,2.131,0,1,1,2.127-2.131A2.133,2.133,0,0,1,169.186,95.317Z" transform="translate(-166 -90)"/>
    </g>
  </g>
</svg>
