<svg xmlns="http://www.w3.org/2000/svg" width="43.071" height="41.435" viewBox="0 0 43.071 41.435">
  <g id="Octicons" transform="translate(0 -1.66)">
    <g id="quote" transform="translate(0 1.66)">
      <path id="Shape" d="M20.145,7.677C12.2,12.779,8.339,18.045,8.339,26.842a4.529,4.529,0,0,1,1.439-.164c4.153,0,8.176,2.813,8.176,7.882,0,5.265-3.368,8.536-8.176,8.536C3.565,43.1,0,38.125,0,29.2,0,16.769,5.723,7.841,16.417,1.66Zm22.893,0c-7.947,5.1-11.806,10.367-11.806,19.164a4.529,4.529,0,0,1,1.439-.164c4.153,0,8.176,2.813,8.176,7.882,0,5.265-3.368,8.536-8.176,8.536-6.181,0-9.746-4.971-9.746-13.9,0-12.427,5.723-21.355,16.417-27.536l3.728,6.017Z" transform="translate(0 -1.66)" fill="#1ba44b" fill-rule="evenodd"/>
    </g>
  </g>
</svg>
