<svg xmlns="http://www.w3.org/2000/svg" width="22.37" height="22.37" viewBox="0 0 22.37 22.37">
  <g id="Solid" transform="translate(-24 -23.999)" opacity="0.5">
    <path id="Path_19871" data-name="Path 19871" d="M143.466,30.338l2.388-2.388V40.584a1.157,1.157,0,0,0,2.314,0V27.95l2.388,2.388a1.157,1.157,0,1,0,1.636-1.636l-4.364-4.364a1.157,1.157,0,0,0-1.636,0L141.829,28.7a1.157,1.157,0,0,0,1.636,1.636Z" transform="translate(-111.826 0)"/>
    <path id="Path_19872" data-name="Path 19872" d="M45.213,232a1.157,1.157,0,0,0-1.157,1.157v8.871H26.314v-8.871a1.157,1.157,0,0,0-2.314,0v9.257a1.928,1.928,0,0,0,1.928,1.928H44.442a1.928,1.928,0,0,0,1.928-1.928v-9.257A1.157,1.157,0,0,0,45.213,232Z" transform="translate(0 -197.973)"/>
  </g>
</svg>
