<svg xmlns="http://www.w3.org/2000/svg" width="19.398" height="14.692" viewBox="0 0 19.398 14.692">
  <g id="youtube" transform="translate(0.001)">
    <path id="Path_20055" data-name="Path 20055" d="M196.4,108.966l-4.285-2.345a.787.787,0,0,0-1.165.691v4.649a.786.786,0,0,0,1.16.693l4.286-2.3a.787.787,0,0,0,0-1.384Zm-4.314,2.41V107.9l3.2,1.753Zm0,0" transform="translate(-183.713 -102.488)"/>
    <path id="Path_20056" data-name="Path 20056" d="M19.254,3.468V3.459A4.436,4.436,0,0,0,18.4,1.207a3.156,3.156,0,0,0-2.091-.98l-.1-.012-.034,0C13.613.026,9.74,0,9.7,0H9.695C9.656,0,5.783.026,3.2.212l-.034,0L3.07.227A3.077,3.077,0,0,0,.992,1.237,4.649,4.649,0,0,0,.144,3.448l0,.02C.136,3.533,0,5.079,0,6.632V8.083c0,1.553.137,3.1.143,3.165v.01a4.393,4.393,0,0,0,.852,2.224,3.221,3.221,0,0,0,2.161.966c.079.009.147.017.193.025l.045.006c1.481.141,6.123.21,6.32.213h.012c.039,0,3.911-.026,6.476-.212l.034,0,.109-.012a3.006,3.006,0,0,0,2.061-.986,4.648,4.648,0,0,0,.848-2.211l0-.02c.006-.065.143-1.612.143-3.164V6.632c0-1.553-.137-3.1-.143-3.164ZM18.26,8.083c0,1.437-.125,2.917-.137,3.053a3.609,3.609,0,0,1-.558,1.575,1.869,1.869,0,0,1-1.342.622l-.121.014c-2.48.179-6.207.207-6.379.208-.193,0-4.767-.073-6.2-.206-.074-.012-.153-.021-.237-.031a2.126,2.126,0,0,1-1.454-.607L1.82,12.7a3.274,3.274,0,0,1-.547-1.559c-.009-.1-.138-1.6-.138-3.058V6.632c0-1.436.125-2.914.137-3.053A3.535,3.535,0,0,1,1.831,2,1.961,1.961,0,0,1,3.2,1.356l.093-.011c2.516-.18,6.27-.207,6.4-.208s3.887.028,6.381.208l.1.012a2.036,2.036,0,0,1,1.392.631l0,0a3.327,3.327,0,0,1,.547,1.582c.009.1.138,1.6.138,3.058Zm0,0"/>
  </g>
</svg>
