<svg xmlns="http://www.w3.org/2000/svg" width="19.82" height="17.497" viewBox="0 0 19.82 17.497">
  <g id="problem" transform="translate(0 0)">
    <path id="Path_19886" data-name="Path 19886" d="M19.206,11.283,13.361,1.915a4.066,4.066,0,0,0-6.9,0L.614,11.283A4.065,4.065,0,0,0,4.065,17.5H15.755a4.065,4.065,0,0,0,3.451-6.214Zm-3.451,5.052H4.065A2.9,2.9,0,0,1,1.6,11.9L7.445,2.53a2.9,2.9,0,0,1,4.93,0L18.221,11.9a2.9,2.9,0,0,1-2.465,4.438Zm0,0" transform="translate(0 0)"/>
    <path id="Path_19887" data-name="Path 19887" d="M69.067,60.822a1.743,1.743,0,0,0-2.96,0L60.262,70.19a1.743,1.743,0,0,0,1.48,2.662H73.432a1.743,1.743,0,0,0,1.48-2.662Zm-.9,9.668H67.006V69.329h1.161Zm0-2.323H67.006v-4.1h1.161Zm0,0" transform="translate(-57.677 -57.678)"/>
  </g>
</svg>
