<svg xmlns="http://www.w3.org/2000/svg" width="18.706" height="17.537" viewBox="0 0 18.706 17.537">
  <g id="chat_1_" data-name="chat (1)" transform="translate(-0.59 -13)">
    <g id="Group_11047" data-name="Group 11047" transform="translate(0 16)">
      <path id="Path_19888" data-name="Path 19888" d="M9.316,16C4.179,16,0,19.687,0,24.22a7.66,7.66,0,0,0,2.137,5.241,3.333,3.333,0,0,1-.88,3.14.548.548,0,0,0,.387.936A6.042,6.042,0,0,0,5.83,31.846a10.335,10.335,0,0,0,3.487.595c5.137,0,9.39-3.687,9.39-8.22S14.454,16,9.316,16ZM5.005,25.864A1.644,1.644,0,1,1,6.649,24.22,1.646,1.646,0,0,1,5.005,25.864Zm4.384,0a1.644,1.644,0,1,1,1.644-1.644A1.646,1.646,0,0,1,9.39,25.864Zm4.384,0a1.644,1.644,0,1,1,1.644-1.644A1.646,1.646,0,0,1,13.774,25.864Z" transform="translate(0.59 -19)"/>
    </g>
  </g>
</svg>
