<svg xmlns="http://www.w3.org/2000/svg" width="188.212" height="134.953" viewBox="0 0 188.212 134.953">
  <g id="Group_6" data-name="Group 6" transform="translate(0 0)" opacity="0.16">
    <g id="Group_2" data-name="Group 2" transform="translate(0 0)">
      <path id="Path_1" data-name="Path 1" d="M2.367.669A2.385,2.385,0,0,0,4.767-1.7a2.413,2.413,0,0,0-2.4-2.4A2.385,2.385,0,0,0,0-1.7,2.357,2.357,0,0,0,2.367.669Z" transform="translate(0 4.328)" fill="#1ba44b"/>
      <path id="Path_2" data-name="Path 2" d="M2.793.993A2.532,2.532,0,0,0,5.325-1.539,2.54,2.54,0,0,0,2.793-4.1,2.561,2.561,0,0,0,.262-1.539,2.554,2.554,0,0,0,2.793.993Z" transform="translate(8.351 4.169)" fill="#1ba44b"/>
      <path id="Path_3" data-name="Path 3" d="M3.092,1.057a2.6,2.6,0,0,0,2.6-2.564,2.6,2.6,0,0,0-2.6-2.6,2.575,2.575,0,0,0-2.564,2.6A2.568,2.568,0,0,0,3.092,1.057Z" transform="translate(16.83 4.137)" fill="#1ba44b"/>
      <path id="Path_4" data-name="Path 4" d="M3.424,1.155a2.638,2.638,0,0,0,2.63-2.63A2.638,2.638,0,0,0,3.424-4.1a2.617,2.617,0,0,0-2.63,2.63A2.617,2.617,0,0,0,3.424,1.155Z" transform="translate(25.309 4.105)" fill="#1ba44b"/>
      <path id="Path_5" data-name="Path 5" d="M3.659,1.09a2.582,2.582,0,0,0,2.6-2.6,2.582,2.582,0,0,0-2.6-2.6,2.582,2.582,0,0,0-2.6,2.6A2.582,2.582,0,0,0,3.659,1.09Z" transform="translate(33.852 4.137)" fill="#1ba44b"/>
      <path id="Path_6" data-name="Path 6" d="M3.894.993A2.512,2.512,0,0,0,6.426-1.539,2.54,2.54,0,0,0,3.894-4.1,2.568,2.568,0,0,0,1.33-1.539,2.54,2.54,0,0,0,3.894.993Z" transform="translate(42.394 4.169)" fill="#1ba44b"/>
      <path id="Path_7" data-name="Path 7" d="M4.1.928a2.5,2.5,0,0,0,2.5-2.5A2.526,2.526,0,0,0,4.1-4.1,2.526,2.526,0,0,0,1.6-1.571,2.5,2.5,0,0,0,4.1.928Z" transform="translate(50.969 4.201)" fill="#1ba44b"/>
      <path id="Path_8" data-name="Path 8" d="M4.269.734A2.442,2.442,0,0,0,6.7-1.666,2.448,2.448,0,0,0,4.269-4.1a2.4,2.4,0,0,0-2.4,2.433A2.392,2.392,0,0,0,4.269.734Z" transform="translate(59.575 4.296)" fill="#1ba44b"/>
      <path id="Path_9" data-name="Path 9" d="M4.44.572A2.322,2.322,0,0,0,6.774-1.762,2.322,2.322,0,0,0,4.44-4.1a2.315,2.315,0,0,0-2.3,2.334A2.315,2.315,0,0,0,4.44.572Z" transform="translate(68.181 4.392)" fill="#1ba44b"/>
      <path id="Path_10" data-name="Path 10" d="M4.708.41A2.245,2.245,0,0,0,6.977-1.826,2.273,2.273,0,0,0,4.708-4.094a2.28,2.28,0,0,0-2.3,2.268A2.253,2.253,0,0,0,4.708.41Z" transform="translate(76.724 4.456)" fill="#1ba44b"/>
      <path id="Path_11" data-name="Path 11" d="M4.88.313a2.224,2.224,0,0,0,2.2-2.2,2.224,2.224,0,0,0-2.2-2.2,2.2,2.2,0,0,0-2.2,2.2A2.2,2.2,0,0,0,4.88.313Z" transform="translate(85.33 4.519)" fill="#1ba44b"/>
      <path id="Path_12" data-name="Path 12" d="M5.083.151a2.1,2.1,0,0,0,2.1-2.1,2.1,2.1,0,0,0-2.1-2.137A2.154,2.154,0,0,0,2.946-1.953,2.147,2.147,0,0,0,5.083.151Z" transform="translate(93.905 4.583)" fill="#1ba44b"/>
      <path id="Path_13" data-name="Path 13" d="M5.222-.043A2,2,0,0,0,7.261-2.049,2.027,2.027,0,0,0,5.222-4.087,2.021,2.021,0,0,0,3.217-2.049,1.992,1.992,0,0,0,5.222-.043Z" transform="translate(102.543 4.679)" fill="#1ba44b"/>
      <path id="Path_14" data-name="Path 14" d="M5.426-.238a1.937,1.937,0,0,0,1.94-1.907,1.943,1.943,0,0,0-1.94-1.94,1.943,1.943,0,0,0-1.94,1.94A1.937,1.937,0,0,0,5.426-.238Z" transform="translate(111.118 4.774)" fill="#1ba44b"/>
      <path id="Path_15" data-name="Path 15" d="M5.6-.367A1.817,1.817,0,0,0,7.438-2.208,1.825,1.825,0,0,0,5.6-4.082,1.845,1.845,0,0,0,3.756-2.208,1.838,1.838,0,0,0,5.6-.367Z" transform="translate(119.724 4.838)" fill="#1ba44b"/>
      <path id="Path_16" data-name="Path 16" d="M5.8-.5A1.818,1.818,0,0,0,7.608-2.272,1.824,1.824,0,0,0,5.8-4.08,1.818,1.818,0,0,0,4.025-2.272,1.811,1.811,0,0,0,5.8-.5Z" transform="translate(128.298 4.902)" fill="#1ba44b"/>
      <path id="Path_17" data-name="Path 17" d="M5.973-.756A1.67,1.67,0,0,0,7.616-2.4,1.677,1.677,0,0,0,5.973-4.076,1.663,1.663,0,0,0,4.3-2.4,1.656,1.656,0,0,0,5.973-.756Z" transform="translate(136.937 5.029)" fill="#1ba44b"/>
      <path id="Path_18" data-name="Path 18" d="M6.144-.95A1.543,1.543,0,0,0,7.689-2.495,1.551,1.551,0,0,0,6.144-4.073,1.578,1.578,0,0,0,4.566-2.495,1.572,1.572,0,0,0,6.144-.95Z" transform="translate(145.543 5.125)" fill="#1ba44b"/>
      <path id="Path_19" data-name="Path 19" d="M6.315-1.111A1.473,1.473,0,0,0,7.795-2.591,1.473,1.473,0,0,0,6.315-4.07,1.473,1.473,0,0,0,4.836-2.591,1.473,1.473,0,0,0,6.315-1.111Z" transform="translate(154.149 5.221)" fill="#1ba44b"/>
      <path id="Path_20" data-name="Path 20" d="M6.519-1.241A1.4,1.4,0,0,0,7.932-2.654,1.4,1.4,0,0,0,6.519-4.068,1.4,1.4,0,0,0,5.1-2.654,1.4,1.4,0,0,0,6.519-1.241Z" transform="translate(162.724 5.284)" fill="#1ba44b"/>
      <path id="Path_21" data-name="Path 21" d="M6.754-1.305A1.418,1.418,0,0,0,8.167-2.686,1.4,1.4,0,0,0,6.754-4.067,1.368,1.368,0,0,0,5.373-2.686,1.389,1.389,0,0,0,6.754-1.305Z" transform="translate(171.266 5.316)" fill="#1ba44b"/>
      <path id="Path_22" data-name="Path 22" d="M7.022-1.305A1.389,1.389,0,0,0,8.4-2.686,1.368,1.368,0,0,0,7.022-4.067,1.348,1.348,0,0,0,5.641-2.686,1.368,1.368,0,0,0,7.022-1.305Z" transform="translate(179.809 5.316)" fill="#1ba44b"/>
      <path id="Path_23" data-name="Path 23" d="M2.3.775a2.308,2.308,0,0,0,2.3-2.3,2.308,2.308,0,0,0-2.3-2.3A2.33,2.33,0,0,0,0-1.527,2.33,2.33,0,0,0,2.3.775Z" transform="translate(0.064 12.934)" fill="#1ba44b"/>
      <path id="Path_24" data-name="Path 24" d="M2.634.936a2.365,2.365,0,0,0,2.4-2.367,2.392,2.392,0,0,0-2.4-2.4,2.385,2.385,0,0,0-2.367,2.4A2.357,2.357,0,0,0,2.634.936Z" transform="translate(8.511 12.839)" fill="#1ba44b"/>
      <path id="Path_25" data-name="Path 25" d="M3,1.1A2.512,2.512,0,0,0,5.5-1.367,2.49,2.49,0,0,0,3-3.833,2.462,2.462,0,0,0,.531-1.367,2.484,2.484,0,0,0,3,1.1Z" transform="translate(16.926 12.775)" fill="#1ba44b"/>
      <path id="Path_26" data-name="Path 26" d="M3.328,1.163a2.5,2.5,0,0,0,2.5-2.5,2.5,2.5,0,0,0-2.5-2.5A2.5,2.5,0,0,0,.8-1.335,2.5,2.5,0,0,0,3.328,1.163Z" transform="translate(25.405 12.743)" fill="#1ba44b"/>
      <path id="Path_27" data-name="Path 27" d="M3.564,1.13a2.47,2.47,0,0,0,2.5-2.466,2.5,2.5,0,0,0-2.5-2.5,2.5,2.5,0,0,0-2.5,2.5A2.47,2.47,0,0,0,3.564,1.13Z" transform="translate(33.947 12.743)" fill="#1ba44b"/>
      <path id="Path_28" data-name="Path 28" d="M3.767,1.034A2.427,2.427,0,0,0,6.2-1.4,2.427,2.427,0,0,0,3.767-3.832,2.427,2.427,0,0,0,1.334-1.4,2.427,2.427,0,0,0,3.767,1.034Z" transform="translate(42.522 12.807)" fill="#1ba44b"/>
      <path id="Path_29" data-name="Path 29" d="M3.97.936a2.385,2.385,0,0,0,2.4-2.367,2.413,2.413,0,0,0-2.4-2.4A2.385,2.385,0,0,0,1.6-1.431,2.357,2.357,0,0,0,3.97.936Z" transform="translate(51.096 12.839)" fill="#1ba44b"/>
      <path id="Path_30" data-name="Path 30" d="M4.173.806a2.315,2.315,0,0,0,2.334-2.3A2.343,2.343,0,0,0,4.173-3.829a2.315,2.315,0,0,0-2.3,2.334A2.287,2.287,0,0,0,4.173.806Z" transform="translate(59.671 12.903)" fill="#1ba44b"/>
      <path id="Path_31" data-name="Path 31" d="M4.345.645A2.238,2.238,0,0,0,6.58-1.59,2.217,2.217,0,0,0,4.345-3.826a2.21,2.21,0,0,0-2.2,2.236A2.231,2.231,0,0,0,4.345.645Z" transform="translate(68.277 12.998)" fill="#1ba44b"/>
      <path id="Path_32" data-name="Path 32" d="M4.613.516a2.189,2.189,0,0,0,2.17-2.17,2.168,2.168,0,0,0-2.17-2.17,2.175,2.175,0,0,0-2.2,2.17A2.2,2.2,0,0,0,4.613.516Z" transform="translate(76.82 13.062)" fill="#1ba44b"/>
      <path id="Path_33" data-name="Path 33" d="M4.784.386a2.119,2.119,0,0,0,2.1-2.1,2.119,2.119,0,0,0-2.1-2.1,2.119,2.119,0,0,0-2.1,2.1A2.119,2.119,0,0,0,4.784.386Z" transform="translate(85.426 13.126)" fill="#1ba44b"/>
      <path id="Path_34" data-name="Path 34" d="M4.987.224A1.992,1.992,0,0,0,6.993-1.782,2.021,2.021,0,0,0,4.987-3.82,2.049,2.049,0,0,0,2.949-1.782,2.021,2.021,0,0,0,4.987.224Z" transform="translate(94.001 13.189)" fill="#1ba44b"/>
      <path id="Path_35" data-name="Path 35" d="M5.159.062A1.943,1.943,0,0,0,7.1-1.877a1.922,1.922,0,0,0-1.94-1.94,1.922,1.922,0,0,0-1.94,1.94A1.943,1.943,0,0,0,5.159.062Z" transform="translate(102.607 13.285)" fill="#1ba44b"/>
      <path id="Path_36" data-name="Path 36" d="M5.362-.067A1.9,1.9,0,0,0,7.269-1.941,1.88,1.88,0,0,0,5.362-3.815,1.873,1.873,0,0,0,3.488-1.941,1.894,1.894,0,0,0,5.362-.067Z" transform="translate(111.181 13.349)" fill="#1ba44b"/>
      <path id="Path_37" data-name="Path 37" d="M5.533-.261A1.768,1.768,0,0,0,7.309-2.037,1.768,1.768,0,0,0,5.533-3.812,1.768,1.768,0,0,0,3.758-2.037,1.768,1.768,0,0,0,5.533-.261Z" transform="translate(119.788 13.444)" fill="#1ba44b"/>
      <path id="Path_38" data-name="Path 38" d="M5.7-.456a1.712,1.712,0,0,0,1.71-1.677A1.691,1.691,0,0,0,5.7-3.809,1.663,1.663,0,0,0,4.028-2.132,1.684,1.684,0,0,0,5.7-.456Z" transform="translate(128.394 13.54)" fill="#1ba44b"/>
      <path id="Path_39" data-name="Path 39" d="M5.877-.618A1.6,1.6,0,0,0,7.455-2.2,1.607,1.607,0,0,0,5.877-3.807,1.586,1.586,0,0,0,4.3-2.2,1.578,1.578,0,0,0,5.877-.618Z" transform="translate(137.032 13.604)" fill="#1ba44b"/>
      <path id="Path_40" data-name="Path 40" d="M6.112-.779A1.53,1.53,0,0,0,7.624-2.292,1.508,1.508,0,0,0,6.112-3.8,1.536,1.536,0,0,0,4.567-2.292,1.559,1.559,0,0,0,6.112-.779Z" transform="translate(145.575 13.699)" fill="#1ba44b"/>
      <path id="Path_41" data-name="Path 41" d="M6.252-.974A1.424,1.424,0,0,0,7.665-2.387,1.424,1.424,0,0,0,6.252-3.8,1.4,1.4,0,0,0,4.838-2.387,1.4,1.4,0,0,0,6.252-.974Z" transform="translate(154.213 13.795)" fill="#1ba44b"/>
      <path id="Path_42" data-name="Path 42" d="M6.455-1.1A1.326,1.326,0,0,0,7.77-2.451,1.306,1.306,0,0,0,6.455-3.8,1.354,1.354,0,0,0,5.107-2.451,1.376,1.376,0,0,0,6.455-1.1Z" transform="translate(162.788 13.859)" fill="#1ba44b"/>
      <path id="Path_43" data-name="Path 43" d="M6.69-1.168A1.3,1.3,0,0,0,8.005-2.483,1.3,1.3,0,0,0,6.69-3.8,1.341,1.341,0,0,0,5.375-2.483,1.341,1.341,0,0,0,6.69-1.168Z" transform="translate(171.33 13.891)" fill="#1ba44b"/>
      <path id="Path_44" data-name="Path 44" d="M6.958-1.168A1.341,1.341,0,0,0,8.273-2.483,1.341,1.341,0,0,0,6.958-3.8,1.3,1.3,0,0,0,5.643-2.483,1.3,1.3,0,0,0,6.958-1.168Z" transform="translate(179.873 13.891)" fill="#1ba44b"/>
      <path id="Path_45" data-name="Path 45" d="M2.176.783a2.189,2.189,0,0,0,2.17-2.17,2.189,2.189,0,0,0-2.17-2.17,2.189,2.189,0,0,0-2.17,2.17A2.189,2.189,0,0,0,2.176.783Z" transform="translate(0.191 21.573)" fill="#1ba44b"/>
      <path id="Path_46" data-name="Path 46" d="M2.507.977A2.273,2.273,0,0,0,4.775-1.292,2.273,2.273,0,0,0,2.507-3.56,2.245,2.245,0,0,0,.271-1.292,2.245,2.245,0,0,0,2.507.977Z" transform="translate(8.638 21.477)" fill="#1ba44b"/>
      <path id="Path_47" data-name="Path 47" d="M2.837,1.106A2.322,2.322,0,0,0,5.171-1.228,2.322,2.322,0,0,0,2.837-3.562a2.315,2.315,0,0,0-2.3,2.334A2.315,2.315,0,0,0,2.837,1.106Z" transform="translate(17.085 21.413)" fill="#1ba44b"/>
      <path id="Path_48" data-name="Path 48" d="M3.169,1.171A2.35,2.35,0,0,0,5.5-1.2,2.35,2.35,0,0,0,3.169-3.563,2.357,2.357,0,0,0,.8-1.2,2.357,2.357,0,0,0,3.169,1.171Z" transform="translate(25.564 21.381)" fill="#1ba44b"/>
      <path id="Path_49" data-name="Path 49" d="M3.4,1.106a2.315,2.315,0,0,0,2.3-2.334A2.315,2.315,0,0,0,3.4-3.562,2.343,2.343,0,0,0,1.07-1.228,2.343,2.343,0,0,0,3.4,1.106Z" transform="translate(34.107 21.413)" fill="#1ba44b"/>
      <path id="Path_50" data-name="Path 50" d="M3.607.977A2.273,2.273,0,0,0,5.876-1.292,2.273,2.273,0,0,0,3.607-3.56,2.273,2.273,0,0,0,1.339-1.292,2.273,2.273,0,0,0,3.607.977Z" transform="translate(42.681 21.477)" fill="#1ba44b"/>
      <path id="Path_51" data-name="Path 51" d="M3.843.912A2.238,2.238,0,0,0,6.078-1.323,2.217,2.217,0,0,0,3.843-3.559,2.238,2.238,0,0,0,1.607-1.323,2.259,2.259,0,0,0,3.843.912Z" transform="translate(51.224 21.509)" fill="#1ba44b"/>
      <path id="Path_52" data-name="Path 52" d="M4.046.847a2.182,2.182,0,0,0,2.2-2.2,2.182,2.182,0,0,0-2.2-2.2,2.175,2.175,0,0,0-2.17,2.2A2.175,2.175,0,0,0,4.046.847Z" transform="translate(59.798 21.541)" fill="#1ba44b"/>
      <path id="Path_53" data-name="Path 53" d="M4.249.718A2.133,2.133,0,0,0,6.386-1.419,2.133,2.133,0,0,0,4.249-3.556a2.126,2.126,0,0,0-2.1,2.137A2.126,2.126,0,0,0,4.249.718Z" transform="translate(68.373 21.605)" fill="#1ba44b"/>
      <path id="Path_54" data-name="Path 54" d="M4.485.588A2.035,2.035,0,0,0,6.523-1.483,2.035,2.035,0,0,0,4.485-3.554,2.042,2.042,0,0,0,2.414-1.483,2.042,2.042,0,0,0,4.485.588Z" transform="translate(76.947 21.668)" fill="#1ba44b"/>
      <path id="Path_55" data-name="Path 55" d="M4.688.459A2.035,2.035,0,0,0,6.694-1.547,2.035,2.035,0,0,0,4.688-3.552,2.013,2.013,0,0,0,2.683-1.547,2.013,2.013,0,0,0,4.688.459Z" transform="translate(85.522 21.732)" fill="#1ba44b"/>
      <path id="Path_56" data-name="Path 56" d="M4.924.329a1.922,1.922,0,0,0,1.94-1.94,1.922,1.922,0,0,0-1.94-1.94A1.971,1.971,0,0,0,2.951-1.61,1.971,1.971,0,0,0,4.924.329Z" transform="translate(94.064 21.796)" fill="#1ba44b"/>
      <path id="Path_57" data-name="Path 57" d="M5.095.2A1.852,1.852,0,0,0,6.969-1.674,1.873,1.873,0,0,0,5.095-3.548,1.873,1.873,0,0,0,3.221-1.674,1.852,1.852,0,0,0,5.095.2Z" transform="translate(102.671 21.86)" fill="#1ba44b"/>
      <path id="Path_58" data-name="Path 58" d="M5.266.006A1.8,1.8,0,0,0,7.074-1.77,1.8,1.8,0,0,0,5.266-3.545,1.789,1.789,0,0,0,3.491-1.77,1.789,1.789,0,0,0,5.266.006Z" transform="translate(111.277 21.955)" fill="#1ba44b"/>
      <path id="Path_59" data-name="Path 59" d="M5.438-.124a1.7,1.7,0,0,0,1.71-1.71,1.7,1.7,0,0,0-1.71-1.71,1.691,1.691,0,0,0-1.677,1.71A1.691,1.691,0,0,0,5.438-.124Z" transform="translate(119.883 22.019)" fill="#1ba44b"/>
      <path id="Path_60" data-name="Path 60" d="M5.641-.318A1.642,1.642,0,0,0,7.285-1.929,1.642,1.642,0,0,0,5.641-3.54,1.635,1.635,0,0,0,4.03-1.929,1.635,1.635,0,0,0,5.641-.318Z" transform="translate(128.458 22.115)" fill="#1ba44b"/>
      <path id="Path_61" data-name="Path 61" d="M5.845-.448A1.565,1.565,0,0,0,7.39-1.993,1.565,1.565,0,0,0,5.845-3.538,1.543,1.543,0,0,0,4.3-1.993,1.543,1.543,0,0,0,5.845-.448Z" transform="translate(137.064 22.178)" fill="#1ba44b"/>
      <path id="Path_62" data-name="Path 62" d="M6.048-.61A1.418,1.418,0,0,0,7.495-2.057,1.446,1.446,0,0,0,6.048-3.536,1.473,1.473,0,0,0,4.569-2.057,1.446,1.446,0,0,0,6.048-.61Z" transform="translate(145.639 22.242)" fill="#1ba44b"/>
      <path id="Path_63" data-name="Path 63" d="M6.188-.8A1.361,1.361,0,0,0,7.569-2.152,1.389,1.389,0,0,0,6.188-3.533,1.361,1.361,0,0,0,4.84-2.152,1.333,1.333,0,0,0,6.188-.8Z" transform="translate(154.277 22.338)" fill="#1ba44b"/>
      <path id="Path_64" data-name="Path 64" d="M6.423-.966A1.291,1.291,0,0,0,7.738-2.248,1.291,1.291,0,0,0,6.423-3.53,1.291,1.291,0,0,0,5.108-2.248,1.291,1.291,0,0,0,6.423-.966Z" transform="translate(162.819 22.433)" fill="#1ba44b"/>
      <path id="Path_65" data-name="Path 65" d="M6.626-1.03A1.256,1.256,0,0,0,7.908-2.28,1.256,1.256,0,0,0,6.626-3.529,1.249,1.249,0,0,0,5.377-2.28,1.249,1.249,0,0,0,6.626-1.03Z" transform="translate(171.394 22.465)" fill="#1ba44b"/>
      <path id="Path_66" data-name="Path 66" d="M6.926-1.03A1.249,1.249,0,0,0,8.175-2.28,1.249,1.249,0,0,0,6.926-3.529,1.256,1.256,0,0,0,5.644-2.28,1.256,1.256,0,0,0,6.926-1.03Z" transform="translate(179.905 22.465)" fill="#1ba44b"/>
      <path id="Path_67" data-name="Path 67" d="M2.048.791A2.027,2.027,0,0,0,4.087-1.248,2.049,2.049,0,0,0,2.048-3.286,2.049,2.049,0,0,0,.01-1.248,2.027,2.027,0,0,0,2.048.791Z" transform="translate(0.319 30.211)" fill="#1ba44b"/>
      <path id="Path_68" data-name="Path 68" d="M2.411.985A2.133,2.133,0,0,0,4.548-1.152,2.133,2.133,0,0,0,2.411-3.289,2.154,2.154,0,0,0,.274-1.152,2.154,2.154,0,0,0,2.411.985Z" transform="translate(8.734 30.115)" fill="#1ba44b"/>
      <path id="Path_69" data-name="Path 69" d="M2.71,1.114a2.182,2.182,0,0,0,2.2-2.2,2.182,2.182,0,0,0-2.2-2.2,2.175,2.175,0,0,0-2.17,2.2A2.175,2.175,0,0,0,2.71,1.114Z" transform="translate(17.213 30.052)" fill="#1ba44b"/>
      <path id="Path_70" data-name="Path 70" d="M3.01,1.147a2.231,2.231,0,0,0,2.2-2.236,2.2,2.2,0,0,0-2.2-2.2,2.2,2.2,0,0,0-2.2,2.2A2.231,2.231,0,0,0,3.01,1.147Z" transform="translate(25.723 30.052)" fill="#1ba44b"/>
      <path id="Path_71" data-name="Path 71" d="M3.277,1.114a2.175,2.175,0,0,0,2.17-2.2,2.175,2.175,0,0,0-2.17-2.2,2.2,2.2,0,0,0-2.2,2.2A2.2,2.2,0,0,0,3.277,1.114Z" transform="translate(34.234 30.052)" fill="#1ba44b"/>
      <path id="Path_72" data-name="Path 72" d="M3.48.985A2.133,2.133,0,0,0,5.617-1.152,2.133,2.133,0,0,0,3.48-3.289,2.133,2.133,0,0,0,1.343-1.152,2.133,2.133,0,0,0,3.48.985Z" transform="translate(42.809 30.115)" fill="#1ba44b"/>
      <path id="Path_73" data-name="Path 73" d="M3.715.92a2.1,2.1,0,0,0,2.1-2.1,2.119,2.119,0,0,0-2.1-2.1,2.119,2.119,0,0,0-2.1,2.1A2.1,2.1,0,0,0,3.715.92Z" transform="translate(51.351 30.147)" fill="#1ba44b"/>
      <path id="Path_74" data-name="Path 74" d="M3.95.855A2.063,2.063,0,0,0,6.021-1.216,2.063,2.063,0,0,0,3.95-3.287,2.063,2.063,0,0,0,1.879-1.216,2.063,2.063,0,0,0,3.95.855Z" transform="translate(59.894 30.179)" fill="#1ba44b"/>
      <path id="Path_75" data-name="Path 75" d="M4.185.726A2.021,2.021,0,0,0,6.224-1.28,2.021,2.021,0,0,0,4.185-3.285,2.042,2.042,0,0,0,2.147-1.28,2.042,2.042,0,0,0,4.185.726Z" transform="translate(68.436 30.243)" fill="#1ba44b"/>
      <path id="Path_76" data-name="Path 76" d="M4.39.6a1.922,1.922,0,0,0,1.94-1.94,1.922,1.922,0,0,0-1.94-1.94,1.93,1.93,0,0,0-1.973,1.94A1.93,1.93,0,0,0,4.39.6Z" transform="translate(77.043 30.307)" fill="#1ba44b"/>
      <path id="Path_77" data-name="Path 77" d="M4.561.467A1.873,1.873,0,0,0,6.435-1.407,1.894,1.894,0,0,0,4.561-3.281,1.873,1.873,0,0,0,2.687-1.407,1.852,1.852,0,0,0,4.561.467Z" transform="translate(85.649 30.37)" fill="#1ba44b"/>
      <path id="Path_78" data-name="Path 78" d="M4.8.37A1.81,1.81,0,0,0,6.6-1.471,1.8,1.8,0,0,0,4.8-3.279,1.831,1.831,0,0,0,2.955-1.471,1.838,1.838,0,0,0,4.8.37Z" transform="translate(94.192 30.434)" fill="#1ba44b"/>
      <path id="Path_79" data-name="Path 79" d="M4.967.241A1.74,1.74,0,0,0,6.71-1.535,1.733,1.733,0,0,0,4.967-3.277,1.733,1.733,0,0,0,3.225-1.535,1.74,1.74,0,0,0,4.967.241Z" transform="translate(102.798 30.498)" fill="#1ba44b"/>
      <path id="Path_80" data-name="Path 80" d="M5.171.078A1.712,1.712,0,0,0,6.88-1.6a1.712,1.712,0,0,0-1.71-1.677A1.684,1.684,0,0,0,3.494-1.6,1.684,1.684,0,0,0,5.171.078Z" transform="translate(111.373 30.562)" fill="#1ba44b"/>
      <path id="Path_81" data-name="Path 81" d="M5.342-.051A1.614,1.614,0,0,0,6.953-1.662,1.614,1.614,0,0,0,5.342-3.273,1.586,1.586,0,0,0,3.764-1.662,1.586,1.586,0,0,0,5.342-.051Z" transform="translate(119.979 30.625)" fill="#1ba44b"/>
      <path id="Path_82" data-name="Path 82" d="M5.545-.213A1.543,1.543,0,0,0,7.09-1.758,1.537,1.537,0,0,0,5.545-3.27,1.53,1.53,0,0,0,4.033-1.758,1.537,1.537,0,0,0,5.545-.213Z" transform="translate(128.553 30.721)" fill="#1ba44b"/>
      <path id="Path_83" data-name="Path 83" d="M5.781-.31A1.494,1.494,0,0,0,7.261-1.79,1.494,1.494,0,0,0,5.781-3.269,1.473,1.473,0,0,0,4.3-1.79,1.473,1.473,0,0,0,5.781-.31Z" transform="translate(137.128 30.753)" fill="#1ba44b"/>
      <path id="Path_84" data-name="Path 84" d="M5.985-.5A1.389,1.389,0,0,0,7.365-1.885,1.389,1.389,0,0,0,5.985-3.266,1.418,1.418,0,0,0,4.571-1.885,1.418,1.418,0,0,0,5.985-.5Z" transform="translate(145.702 30.848)" fill="#1ba44b"/>
      <path id="Path_85" data-name="Path 85" d="M6.156-.634A1.319,1.319,0,0,0,7.471-1.949,1.319,1.319,0,0,0,6.156-3.264,1.3,1.3,0,0,0,4.841-1.949,1.3,1.3,0,0,0,6.156-.634Z" transform="translate(154.309 30.912)" fill="#1ba44b"/>
      <path id="Path_86" data-name="Path 86" d="M6.359-.763A1.249,1.249,0,0,0,7.609-2.013,1.249,1.249,0,0,0,6.359-3.262,1.249,1.249,0,0,0,5.11-2.013,1.249,1.249,0,0,0,6.359-.763Z" transform="translate(162.883 30.976)" fill="#1ba44b"/>
      <path id="Path_87" data-name="Path 87" d="M6.594-.828A1.214,1.214,0,0,0,7.811-2.045,1.214,1.214,0,0,0,6.594-3.261,1.235,1.235,0,0,0,5.378-2.045,1.235,1.235,0,0,0,6.594-.828Z" transform="translate(171.426 31.008)" fill="#1ba44b"/>
      <path id="Path_88" data-name="Path 88" d="M6.862-.86A1.229,1.229,0,0,0,8.046-2.076,1.2,1.2,0,0,0,6.862-3.26,1.186,1.186,0,0,0,5.646-2.076,1.214,1.214,0,0,0,6.862-.86Z" transform="translate(179.968 31.04)" fill="#1ba44b"/>
      <path id="Path_89" data-name="Path 89" d="M1.889.8A1.908,1.908,0,0,0,3.8-1.108,1.908,1.908,0,0,0,1.889-3.015,1.88,1.88,0,0,0,.015-1.108,1.88,1.88,0,0,0,1.889.8Z" transform="translate(0.478 38.849)" fill="#1ba44b"/>
      <path id="Path_90" data-name="Path 90" d="M2.252.993A1.992,1.992,0,0,0,4.257-1.013,2.013,2.013,0,0,0,2.252-3.018,2.007,2.007,0,0,0,.279-1.013,1.986,1.986,0,0,0,2.252.993Z" transform="translate(8.893 38.754)" fill="#1ba44b"/>
      <path id="Path_91" data-name="Path 91" d="M2.582,1.058A2.035,2.035,0,0,0,4.653-.981,2.056,2.056,0,0,0,2.582-3.019,2.049,2.049,0,0,0,.544-.981,2.027,2.027,0,0,0,2.582,1.058Z" transform="translate(17.34 38.722)" fill="#1ba44b"/>
      <path id="Path_92" data-name="Path 92" d="M2.882,1.122A2.084,2.084,0,0,0,4.953-.949,2.084,2.084,0,0,0,2.882-3.02,2.063,2.063,0,0,0,.811-.949,2.063,2.063,0,0,0,2.882,1.122Z" transform="translate(25.851 38.69)" fill="#1ba44b"/>
      <path id="Path_93" data-name="Path 93" d="M3.149,1.058A2.027,2.027,0,0,0,5.187-.981,2.049,2.049,0,0,0,3.149-3.019,2.056,2.056,0,0,0,1.078-.981,2.035,2.035,0,0,0,3.149,1.058Z" transform="translate(34.362 38.722)" fill="#1ba44b"/>
      <path id="Path_94" data-name="Path 94" d="M3.321.993A2.013,2.013,0,0,0,5.326-1.013,2.035,2.035,0,0,0,3.321-3.018,1.985,1.985,0,0,0,1.348-1.013,1.965,1.965,0,0,0,3.321.993Z" transform="translate(42.968 38.754)" fill="#1ba44b"/>
      <path id="Path_95" data-name="Path 95" d="M3.588.961A2.007,2.007,0,0,0,5.56-1.044,1.978,1.978,0,0,0,3.588-3.017,1.978,1.978,0,0,0,1.615-1.044,2.007,2.007,0,0,0,3.588.961Z" transform="translate(51.479 38.785)" fill="#1ba44b"/>
      <path id="Path_96" data-name="Path 96" d="M3.823.9A1.978,1.978,0,0,0,5.8-1.076a1.972,1.972,0,0,0-1.973-1.94,1.943,1.943,0,0,0-1.94,1.94A1.95,1.95,0,0,0,3.823.9Z" transform="translate(60.021 38.817)" fill="#1ba44b"/>
      <path id="Path_97" data-name="Path 97" d="M4.026.734A1.88,1.88,0,0,0,5.933-1.14,1.9,1.9,0,0,0,4.026-3.014,1.894,1.894,0,0,0,2.152-1.14,1.873,1.873,0,0,0,4.026.734Z" transform="translate(68.596 38.881)" fill="#1ba44b"/>
      <path id="Path_98" data-name="Path 98" d="M4.262.637A1.831,1.831,0,0,0,6.07-1.2,1.824,1.824,0,0,0,4.262-3.012,1.831,1.831,0,0,0,2.421-1.2,1.838,1.838,0,0,0,4.262.637Z" transform="translate(77.17 38.945)" fill="#1ba44b"/>
      <path id="Path_99" data-name="Path 99" d="M4.5.54A1.789,1.789,0,0,0,6.272-1.236,1.789,1.789,0,0,0,4.5-3.011,1.8,1.8,0,0,0,2.689-1.236,1.8,1.8,0,0,0,4.5.54Z" transform="translate(85.713 38.977)" fill="#1ba44b"/>
      <path id="Path_100" data-name="Path 100" d="M4.7.443A1.726,1.726,0,0,0,6.41-1.3,1.7,1.7,0,0,0,4.7-3.009,1.705,1.705,0,0,0,2.958-1.3,1.733,1.733,0,0,0,4.7.443Z" transform="translate(94.287 39.04)" fill="#1ba44b"/>
      <path id="Path_101" data-name="Path 101" d="M4.84.249A1.6,1.6,0,0,0,6.451-1.4,1.593,1.593,0,0,0,4.84-3.006,1.614,1.614,0,0,0,3.229-1.4,1.621,1.621,0,0,0,4.84.249Z" transform="translate(102.926 39.136)" fill="#1ba44b"/>
      <path id="Path_102" data-name="Path 102" d="M5.075.151A1.607,1.607,0,0,0,6.686-1.427,1.629,1.629,0,0,0,5.075-3,1.6,1.6,0,0,0,3.5-1.427,1.578,1.578,0,0,0,5.075.151Z" transform="translate(111.468 39.168)" fill="#1ba44b"/>
      <path id="Path_103" data-name="Path 103" d="M5.246-.01A1.508,1.508,0,0,0,6.759-1.523,1.481,1.481,0,0,0,5.246-3,1.473,1.473,0,0,0,3.767-1.523,1.5,1.5,0,0,0,5.246-.01Z" transform="translate(120.075 39.264)" fill="#1ba44b"/>
      <path id="Path_104" data-name="Path 104" d="M5.45-.14A1.438,1.438,0,0,0,6.9-1.586,1.411,1.411,0,0,0,5.45-3,1.424,1.424,0,0,0,4.036-1.586,1.453,1.453,0,0,0,5.45-.14Z" transform="translate(128.649 39.327)" fill="#1ba44b"/>
      <path id="Path_105" data-name="Path 105" d="M5.686-.237A1.389,1.389,0,0,0,7.067-1.618,1.389,1.389,0,0,0,5.686-3,1.368,1.368,0,0,0,4.3-1.618,1.368,1.368,0,0,0,5.686-.237Z" transform="translate(137.224 39.359)" fill="#1ba44b"/>
      <path id="Path_106" data-name="Path 106" d="M5.889-.334A1.347,1.347,0,0,0,7.2-1.682,1.319,1.319,0,0,0,5.889-3,1.319,1.319,0,0,0,4.574-1.682,1.347,1.347,0,0,0,5.889-.334Z" transform="translate(145.798 39.423)" fill="#1ba44b"/>
      <path id="Path_107" data-name="Path 107" d="M6.092-.5A1.27,1.27,0,0,0,7.342-1.746,1.27,1.27,0,0,0,6.092-2.995,1.249,1.249,0,0,0,4.843-1.746,1.249,1.249,0,0,0,6.092-.5Z" transform="translate(154.372 39.487)" fill="#1ba44b"/>
      <path id="Path_108" data-name="Path 108" d="M6.3-.658A1.179,1.179,0,0,0,7.479-1.841,1.172,1.172,0,0,0,6.3-2.992,1.194,1.194,0,0,0,5.112-1.841,1.2,1.2,0,0,0,6.3-.658Z" transform="translate(162.947 39.582)" fill="#1ba44b"/>
      <path id="Path_109" data-name="Path 109" d="M6.5-.755A1.109,1.109,0,0,0,7.617-1.873,1.109,1.109,0,0,0,6.5-2.991,1.109,1.109,0,0,0,5.381-1.873,1.109,1.109,0,0,0,6.5-.755Z" transform="translate(171.521 39.614)" fill="#1ba44b"/>
      <path id="Path_110" data-name="Path 110" d="M6.8-.755A1.13,1.13,0,0,0,7.916-1.873,1.13,1.13,0,0,0,6.8-2.991,1.137,1.137,0,0,0,5.648-1.873,1.137,1.137,0,0,0,6.8-.755Z" transform="translate(180.032 39.614)" fill="#1ba44b"/>
      <path id="Path_111" data-name="Path 111" d="M1.793.807A1.761,1.761,0,0,0,3.569-.936,1.8,1.8,0,0,0,1.793-2.744,1.8,1.8,0,0,0,.018-.936,1.761,1.761,0,0,0,1.793.807Z" transform="translate(0.574 47.487)" fill="#1ba44b"/>
      <path id="Path_112" data-name="Path 112" d="M2.156,1.034A1.9,1.9,0,0,0,4.063-.84,1.908,1.908,0,0,0,2.156-2.747,1.9,1.9,0,0,0,.282-.84,1.894,1.894,0,0,0,2.156,1.034Z" transform="translate(8.989 47.392)" fill="#1ba44b"/>
      <path id="Path_113" data-name="Path 113" d="M2.423,1.066A1.88,1.88,0,0,0,4.33-.808a1.9,1.9,0,0,0-1.907-1.94A1.888,1.888,0,0,0,.549-.808,1.873,1.873,0,0,0,2.423,1.066Z" transform="translate(17.5 47.36)" fill="#1ba44b"/>
      <path id="Path_114" data-name="Path 114" d="M2.787,1.163a1.965,1.965,0,0,0,1.94-1.94,1.972,1.972,0,0,0-1.94-1.973A1.978,1.978,0,0,0,.814-.776,1.972,1.972,0,0,0,2.787,1.163Z" transform="translate(25.947 47.328)" fill="#1ba44b"/>
      <path id="Path_115" data-name="Path 115" d="M2.99,1.066A1.873,1.873,0,0,0,4.864-.808,1.888,1.888,0,0,0,2.99-2.748,1.915,1.915,0,0,0,1.083-.808,1.9,1.9,0,0,0,2.99,1.066Z" transform="translate(34.521 47.36)" fill="#1ba44b"/>
      <path id="Path_116" data-name="Path 116" d="M3.225,1.034A1.894,1.894,0,0,0,5.1-.84,1.9,1.9,0,0,0,3.225-2.747,1.88,1.88,0,0,0,1.351-.84,1.873,1.873,0,0,0,3.225,1.034Z" transform="translate(43.064 47.392)" fill="#1ba44b"/>
      <path id="Path_117" data-name="Path 117" d="M3.46.969A1.838,1.838,0,0,0,5.3-.872,1.845,1.845,0,0,0,3.46-2.746,1.845,1.845,0,0,0,1.619-.872,1.838,1.838,0,0,0,3.46.969Z" transform="translate(51.606 47.424)" fill="#1ba44b"/>
      <path id="Path_118" data-name="Path 118" d="M3.7.9A1.831,1.831,0,0,0,5.536-.9,1.838,1.838,0,0,0,3.7-2.745,1.81,1.81,0,0,0,1.887-.9,1.8,1.8,0,0,0,3.7.9Z" transform="translate(60.149 47.456)" fill="#1ba44b"/>
      <path id="Path_119" data-name="Path 119" d="M3.9.775A1.761,1.761,0,0,0,5.674-.968,1.768,1.768,0,0,0,3.9-2.743,1.761,1.761,0,0,0,2.156-.968,1.754,1.754,0,0,0,3.9.775Z" transform="translate(68.723 47.519)" fill="#1ba44b"/>
      <path id="Path_120" data-name="Path 120" d="M4.135.645A1.684,1.684,0,0,0,5.811-1.031a1.691,1.691,0,0,0-1.677-1.71,1.7,1.7,0,0,0-1.71,1.71A1.691,1.691,0,0,0,4.135.645Z" transform="translate(77.298 47.583)" fill="#1ba44b"/>
      <path id="Path_121" data-name="Path 121" d="M4.338.516A1.593,1.593,0,0,0,5.949-1.1,1.6,1.6,0,0,0,4.338-2.739,1.649,1.649,0,0,0,2.694-1.1,1.642,1.642,0,0,0,4.338.516Z" transform="translate(85.872 47.647)" fill="#1ba44b"/>
      <path id="Path_122" data-name="Path 122" d="M4.573.451A1.607,1.607,0,0,0,6.184-1.127,1.614,1.614,0,0,0,4.573-2.738,1.593,1.593,0,0,0,2.962-1.127,1.586,1.586,0,0,0,4.573.451Z" transform="translate(94.415 47.679)" fill="#1ba44b"/>
      <path id="Path_123" data-name="Path 123" d="M4.776.321A1.537,1.537,0,0,0,6.321-1.191,1.543,1.543,0,0,0,4.776-2.736,1.543,1.543,0,0,0,3.231-1.191,1.537,1.537,0,0,0,4.776.321Z" transform="translate(102.989 47.742)" fill="#1ba44b"/>
      <path id="Path_124" data-name="Path 124" d="M4.979.224A1.5,1.5,0,0,0,6.492-1.223,1.508,1.508,0,0,0,4.979-2.735,1.481,1.481,0,0,0,3.5-1.223,1.467,1.467,0,0,0,4.979.224Z" transform="translate(111.564 47.774)" fill="#1ba44b"/>
      <path id="Path_125" data-name="Path 125" d="M5.151.1A1.424,1.424,0,0,0,6.564-1.318,1.4,1.4,0,0,0,5.151-2.732,1.4,1.4,0,0,0,3.77-1.318,1.418,1.418,0,0,0,5.151.1Z" transform="translate(120.17 47.87)" fill="#1ba44b"/>
      <path id="Path_126" data-name="Path 126" d="M5.386,0A1.341,1.341,0,0,0,6.767-1.35,1.368,1.368,0,0,0,5.386-2.731,1.383,1.383,0,0,0,4.038-1.35,1.354,1.354,0,0,0,5.386,0Z" transform="translate(128.713 47.902)" fill="#1ba44b"/>
      <path id="Path_127" data-name="Path 127" d="M5.622-.1A1.319,1.319,0,0,0,6.937-1.414,1.319,1.319,0,0,0,5.622-2.729,1.3,1.3,0,0,0,4.307-1.414,1.3,1.3,0,0,0,5.622-.1Z" transform="translate(137.287 47.966)" fill="#1ba44b"/>
      <path id="Path_128" data-name="Path 128" d="M5.825-.229A1.214,1.214,0,0,0,7.042-1.446,1.25,1.25,0,0,0,5.825-2.728,1.277,1.277,0,0,0,4.576-1.446,1.242,1.242,0,0,0,5.825-.229Z" transform="translate(145.862 47.997)" fill="#1ba44b"/>
      <path id="Path_129" data-name="Path 129" d="M6-.391A1.194,1.194,0,0,0,7.18-1.541,1.2,1.2,0,0,0,6-2.725,1.151,1.151,0,0,0,4.846-1.541,1.143,1.143,0,0,0,6-.391Z" transform="translate(154.468 48.093)" fill="#1ba44b"/>
      <path id="Path_130" data-name="Path 130" d="M6.232-.52A1.1,1.1,0,0,0,7.35-1.605,1.109,1.109,0,0,0,6.232-2.723,1.13,1.13,0,0,0,5.114-1.605,1.123,1.123,0,0,0,6.232-.52Z" transform="translate(163.011 48.157)" fill="#1ba44b"/>
      <path id="Path_131" data-name="Path 131" d="M6.435-.585A1.046,1.046,0,0,0,7.52-1.637,1.054,1.054,0,0,0,6.435-2.722,1.046,1.046,0,0,0,5.383-1.637,1.039,1.039,0,0,0,6.435-.585Z" transform="translate(171.585 48.189)" fill="#1ba44b"/>
      <path id="Path_132" data-name="Path 132" d="M6.767-.585A1.059,1.059,0,0,0,7.819-1.637,1.067,1.067,0,0,0,6.767-2.722,1.081,1.081,0,0,0,5.649-1.637,1.075,1.075,0,0,0,6.767-.585Z" transform="translate(180.064 48.189)" fill="#1ba44b"/>
      <path id="Path_133" data-name="Path 133" d="M1.666.783A1.621,1.621,0,0,0,3.31-.828,1.628,1.628,0,0,0,1.666-2.472,1.649,1.649,0,0,0,.022-.828,1.642,1.642,0,0,0,1.666.783Z" transform="translate(0.701 56.157)" fill="#1ba44b"/>
      <path id="Path_134" data-name="Path 134" d="M2,.977A1.748,1.748,0,0,0,3.739-.733,1.733,1.733,0,0,0,2-2.475,1.726,1.726,0,0,0,.287-.733,1.741,1.741,0,0,0,2,.977Z" transform="translate(9.148 56.062)" fill="#1ba44b"/>
      <path id="Path_135" data-name="Path 135" d="M2.3,1.074A1.74,1.74,0,0,0,4.071-.669,1.775,1.775,0,0,0,2.3-2.477,1.769,1.769,0,0,0,.553-.669,1.733,1.733,0,0,0,2.3,1.074Z" transform="translate(17.627 55.998)" fill="#1ba44b"/>
      <path id="Path_136" data-name="Path 136" d="M2.659,1.106A1.8,1.8,0,0,0,4.467-.669,1.8,1.8,0,0,0,2.659-2.477,1.831,1.831,0,0,0,.818-.669,1.825,1.825,0,0,0,2.659,1.106Z" transform="translate(26.074 55.998)" fill="#1ba44b"/>
      <path id="Path_137" data-name="Path 137" d="M2.862,1.074A1.761,1.761,0,0,0,4.638-.669,1.8,1.8,0,0,0,2.862-2.477,1.8,1.8,0,0,0,1.087-.669,1.761,1.761,0,0,0,2.862,1.074Z" transform="translate(34.649 55.998)" fill="#1ba44b"/>
      <path id="Path_138" data-name="Path 138" d="M3.1,1.042A1.733,1.733,0,0,0,4.84-.7,1.74,1.74,0,0,0,3.1-2.476,1.761,1.761,0,0,0,1.355-.7,1.754,1.754,0,0,0,3.1,1.042Z" transform="translate(43.191 56.03)" fill="#1ba44b"/>
      <path id="Path_139" data-name="Path 139" d="M3.364.977A1.748,1.748,0,0,0,5.107-.733,1.733,1.733,0,0,0,3.364-2.475,1.754,1.754,0,0,0,1.622-.733,1.77,1.77,0,0,0,3.364.977Z" transform="translate(51.702 56.062)" fill="#1ba44b"/>
      <path id="Path_140" data-name="Path 140" d="M3.536.912A1.663,1.663,0,0,0,5.212-.764a1.67,1.67,0,0,0-1.677-1.71A1.664,1.664,0,0,0,1.892-.764,1.656,1.656,0,0,0,3.536.912Z" transform="translate(60.308 56.094)" fill="#1ba44b"/>
      <path id="Path_141" data-name="Path 141" d="M3.771.783A1.621,1.621,0,0,0,5.415-.828,1.628,1.628,0,0,0,3.771-2.472,1.621,1.621,0,0,0,2.16-.828,1.614,1.614,0,0,0,3.771.783Z" transform="translate(68.851 56.157)" fill="#1ba44b"/>
      <path id="Path_142" data-name="Path 142" d="M4.007.685A1.543,1.543,0,0,0,5.552-.86,1.579,1.579,0,0,0,4.007-2.471,1.586,1.586,0,0,0,2.429-.86,1.551,1.551,0,0,0,4.007.685Z" transform="translate(77.425 56.189)" fill="#1ba44b"/>
      <path id="Path_143" data-name="Path 143" d="M4.242.621A1.516,1.516,0,0,0,5.754-.924,1.516,1.516,0,0,0,4.242-2.469,1.543,1.543,0,0,0,2.7-.924,1.543,1.543,0,0,0,4.242.621Z" transform="translate(85.968 56.253)" fill="#1ba44b"/>
      <path id="Path_144" data-name="Path 144" d="M4.445.524A1.473,1.473,0,0,0,5.925-.956,1.5,1.5,0,0,0,4.445-2.468,1.5,1.5,0,0,0,2.966-.956,1.473,1.473,0,0,0,4.445.524Z" transform="translate(94.542 56.285)" fill="#1ba44b"/>
      <path id="Path_145" data-name="Path 145" d="M4.712.459A1.438,1.438,0,0,0,6.159-.988,1.446,1.446,0,0,0,4.712-2.467,1.494,1.494,0,0,0,3.233-.988,1.488,1.488,0,0,0,4.712.459Z" transform="translate(103.053 56.317)" fill="#1ba44b"/>
      <path id="Path_146" data-name="Path 146" d="M4.884.329A1.418,1.418,0,0,0,6.3-1.051,1.424,1.424,0,0,0,4.884-2.465,1.376,1.376,0,0,0,3.5-1.051,1.368,1.368,0,0,0,4.884.329Z" transform="translate(111.659 56.381)" fill="#1ba44b"/>
      <path id="Path_147" data-name="Path 147" d="M5.119.2A1.355,1.355,0,0,0,6.5-1.115,1.361,1.361,0,0,0,5.119-2.463,1.354,1.354,0,0,0,3.771-1.115,1.347,1.347,0,0,0,5.119.2Z" transform="translate(120.202 56.444)" fill="#1ba44b"/>
      <path id="Path_148" data-name="Path 148" d="M5.322.1A1.291,1.291,0,0,0,6.637-1.179,1.271,1.271,0,0,0,5.322-2.461,1.284,1.284,0,0,0,4.04-1.179,1.306,1.306,0,0,0,5.322.1Z" transform="translate(128.777 56.508)" fill="#1ba44b"/>
      <path id="Path_149" data-name="Path 149" d="M5.558.006A1.242,1.242,0,0,0,6.808-1.211,1.27,1.27,0,0,0,5.558-2.46,1.249,1.249,0,0,0,4.309-1.211,1.221,1.221,0,0,0,5.558.006Z" transform="translate(137.351 56.54)" fill="#1ba44b"/>
      <path id="Path_150" data-name="Path 150" d="M5.761-.124A1.143,1.143,0,0,0,6.912-1.274,1.151,1.151,0,0,0,5.761-2.458,1.179,1.179,0,0,0,4.578-1.274,1.172,1.172,0,0,0,5.761-.124Z" transform="translate(145.926 56.604)" fill="#1ba44b"/>
      <path id="Path_151" data-name="Path 151" d="M5.933-.253A1.1,1.1,0,0,0,7.018-1.338,1.1,1.1,0,0,0,5.933-2.456,1.081,1.081,0,0,0,4.848-1.338,1.073,1.073,0,0,0,5.933-.253Z" transform="translate(154.532 56.667)" fill="#1ba44b"/>
      <path id="Path_152" data-name="Path 152" d="M6.168-.383A1.032,1.032,0,0,0,7.22-1.4,1.039,1.039,0,0,0,6.168-2.454,1.059,1.059,0,0,0,5.116-1.4,1.053,1.053,0,0,0,6.168-.383Z" transform="translate(163.074 56.731)" fill="#1ba44b"/>
      <path id="Path_153" data-name="Path 153" d="M6.4-.383A1,1,0,0,0,7.422-1.4,1.031,1.031,0,0,0,6.4-2.454,1.053,1.053,0,0,0,5.384-1.4,1.024,1.024,0,0,0,6.4-.383Z" transform="translate(171.617 56.731)" fill="#1ba44b"/>
      <path id="Path_154" data-name="Path 154" d="M6.671-.448a1.011,1.011,0,0,0,.986-.986,1.018,1.018,0,0,0-.986-1.019A1.024,1.024,0,0,0,5.652-1.434,1.018,1.018,0,0,0,6.671-.448Z" transform="translate(180.16 56.763)" fill="#1ba44b"/>
      <path id="Path_155" data-name="Path 155" d="M1.57.888A1.543,1.543,0,0,0,3.115-.657,1.543,1.543,0,0,0,1.57-2.2,1.543,1.543,0,0,0,.025-.657,1.543,1.543,0,0,0,1.57.888Z" transform="translate(0.797 64.764)" fill="#1ba44b"/>
      <path id="Path_156" data-name="Path 156" d="M1.869,1.018A1.642,1.642,0,0,0,3.513-.593,1.642,1.642,0,0,0,1.869-2.2,1.607,1.607,0,0,0,.291-.593,1.607,1.607,0,0,0,1.869,1.018Z" transform="translate(9.276 64.7)" fill="#1ba44b"/>
      <path id="Path_157" data-name="Path 157" d="M2.2,1.114A1.635,1.635,0,0,0,3.876-.529,1.663,1.663,0,0,0,2.2-2.206,1.677,1.677,0,0,0,.556-.529,1.649,1.649,0,0,0,2.2,1.114Z" transform="translate(17.723 64.636)" fill="#1ba44b"/>
      <path id="Path_158" data-name="Path 158" d="M2.532,1.179A1.705,1.705,0,0,0,4.208-.5a1.712,1.712,0,0,0-1.677-1.71A1.719,1.719,0,0,0,.822-.5,1.712,1.712,0,0,0,2.532,1.179Z" transform="translate(26.202 64.604)" fill="#1ba44b"/>
      <path id="Path_159" data-name="Path 159" d="M2.735,1.114A1.628,1.628,0,0,0,4.379-.529,1.656,1.656,0,0,0,2.735-2.206,1.656,1.656,0,0,0,1.091-.529,1.628,1.628,0,0,0,2.735,1.114Z" transform="translate(34.776 64.636)" fill="#1ba44b"/>
      <path id="Path_160" data-name="Path 160" d="M2.97,1.018A1.614,1.614,0,0,0,4.581-.593,1.614,1.614,0,0,0,2.97-2.2,1.614,1.614,0,0,0,1.359-.593,1.614,1.614,0,0,0,2.97,1.018Z" transform="translate(43.319 64.7)" fill="#1ba44b"/>
      <path id="Path_161" data-name="Path 161" d="M3.205.985A1.586,1.586,0,0,0,4.816-.593,1.614,1.614,0,0,0,3.205-2.2,1.586,1.586,0,0,0,1.627-.593,1.558,1.558,0,0,0,3.205.985Z" transform="translate(51.861 64.7)" fill="#1ba44b"/>
      <path id="Path_162" data-name="Path 162" d="M3.44.92A1.523,1.523,0,0,0,4.985-.625,1.531,1.531,0,0,0,3.44-2.2,1.551,1.551,0,0,0,1.895-.625,1.543,1.543,0,0,0,3.44.92Z" transform="translate(60.404 64.732)" fill="#1ba44b"/>
      <path id="Path_163" data-name="Path 163" d="M3.675.888A1.543,1.543,0,0,0,5.22-.657,1.543,1.543,0,0,0,3.675-2.2,1.537,1.537,0,0,0,2.163-.657,1.537,1.537,0,0,0,3.675.888Z" transform="translate(68.946 64.764)" fill="#1ba44b"/>
      <path id="Path_164" data-name="Path 164" d="M3.911.759A1.473,1.473,0,0,0,5.391-.721,1.473,1.473,0,0,0,3.911-2.2,1.453,1.453,0,0,0,2.432-.721,1.453,1.453,0,0,0,3.911.759Z" transform="translate(77.521 64.828)" fill="#1ba44b"/>
      <path id="Path_165" data-name="Path 165" d="M4.147.694A1.431,1.431,0,0,0,5.56-.752,1.431,1.431,0,0,0,4.147-2.2,1.459,1.459,0,0,0,2.7-.752,1.459,1.459,0,0,0,4.147.694Z" transform="translate(86.064 64.859)" fill="#1ba44b"/>
      <path id="Path_166" data-name="Path 166" d="M4.35.6A1.389,1.389,0,0,0,5.731-.784,1.4,1.4,0,0,0,4.35-2.2,1.376,1.376,0,0,0,2.969-.784,1.368,1.368,0,0,0,4.35.6Z" transform="translate(94.638 64.891)" fill="#1ba44b"/>
      <path id="Path_167" data-name="Path 167" d="M4.617.532A1.333,1.333,0,0,0,5.965-.816,1.361,1.361,0,0,0,4.617-2.2,1.389,1.389,0,0,0,3.236-.816,1.361,1.361,0,0,0,4.617.532Z" transform="translate(103.149 64.923)" fill="#1ba44b"/>
      <path id="Path_168" data-name="Path 168" d="M4.82.435A1.319,1.319,0,0,0,6.135-.88,1.319,1.319,0,0,0,4.82-2.195,1.319,1.319,0,0,0,3.5-.88,1.319,1.319,0,0,0,4.82.435Z" transform="translate(111.723 64.987)" fill="#1ba44b"/>
      <path id="Path_169" data-name="Path 169" d="M5.055.337A1.256,1.256,0,0,0,6.337-.912,1.263,1.263,0,0,0,5.055-2.194,1.284,1.284,0,0,0,3.773-.912,1.277,1.277,0,0,0,5.055.337Z" transform="translate(120.266 65.019)" fill="#1ba44b"/>
      <path id="Path_170" data-name="Path 170" d="M5.258.241A1.214,1.214,0,0,0,6.475-.976,1.193,1.193,0,0,0,5.258-2.192,1.214,1.214,0,0,0,4.042-.976,1.235,1.235,0,0,0,5.258.241Z" transform="translate(128.84 65.083)" fill="#1ba44b"/>
      <path id="Path_171" data-name="Path 171" d="M5.463.078A1.137,1.137,0,0,0,6.613-1.039,1.143,1.143,0,0,0,5.463-2.19,1.124,1.124,0,0,0,4.312-1.039,1.116,1.116,0,0,0,5.463.078Z" transform="translate(137.447 65.146)" fill="#1ba44b"/>
      <path id="Path_172" data-name="Path 172" d="M5.7-.018A1.1,1.1,0,0,0,6.783-1.1,1.073,1.073,0,0,0,5.7-2.188,1.1,1.1,0,0,0,4.58-1.1,1.123,1.123,0,0,0,5.7-.018Z" transform="translate(145.989 65.21)" fill="#1ba44b"/>
      <path id="Path_173" data-name="Path 173" d="M5.869-.116A1.053,1.053,0,0,0,6.921-1.135,1.059,1.059,0,0,0,5.869-2.187,1.011,1.011,0,0,0,4.85-1.135,1,1,0,0,0,5.869-.116Z" transform="translate(154.596 65.242)" fill="#1ba44b"/>
      <path id="Path_174" data-name="Path 174" d="M6.1-.181a1.018,1.018,0,0,0,1.019-.986A1.024,1.024,0,0,0,6.1-2.186a1,1,0,0,0-.986,1.019A.989.989,0,0,0,6.1-.181Z" transform="translate(163.138 65.274)" fill="#1ba44b"/>
      <path id="Path_175" data-name="Path 175" d="M6.339-.212A.989.989,0,0,0,7.326-1.2a.989.989,0,0,0-.986-.986.983.983,0,0,0-.953.986A.983.983,0,0,0,6.339-.212Z" transform="translate(171.681 65.306)" fill="#1ba44b"/>
      <path id="Path_176" data-name="Path 176" d="M6.639-.277a.948.948,0,0,0,.921-.953.948.948,0,0,0-.921-.953.962.962,0,0,0-.986.953A.962.962,0,0,0,6.639-.277Z" transform="translate(180.192 65.338)" fill="#1ba44b"/>
      <path id="Path_177" data-name="Path 177" d="M1.443.9A1.4,1.4,0,0,0,2.856-.517,1.4,1.4,0,0,0,1.443-1.931,1.4,1.4,0,0,0,.029-.517,1.4,1.4,0,0,0,1.443.9Z" transform="translate(0.924 73.402)" fill="#1ba44b"/>
      <path id="Path_178" data-name="Path 178" d="M1.773,1.026A1.5,1.5,0,0,0,3.286-.454,1.5,1.5,0,0,0,1.773-1.933,1.473,1.473,0,0,0,.294-.454,1.473,1.473,0,0,0,1.773,1.026Z" transform="translate(9.371 73.338)" fill="#1ba44b"/>
      <path id="Path_179" data-name="Path 179" d="M2.072,1.155A1.543,1.543,0,0,0,3.617-.39,1.543,1.543,0,0,0,2.072-1.935,1.537,1.537,0,0,0,.56-.39,1.537,1.537,0,0,0,2.072,1.155Z" transform="translate(17.85 73.275)" fill="#1ba44b"/>
      <path id="Path_180" data-name="Path 180" d="M2.372,1.155A1.537,1.537,0,0,0,3.884-.39,1.537,1.537,0,0,0,2.372-1.935,1.543,1.543,0,0,0,.827-.39,1.543,1.543,0,0,0,2.372,1.155Z" transform="translate(26.361 73.275)" fill="#1ba44b"/>
      <path id="Path_181" data-name="Path 181" d="M2.639,1.155A1.543,1.543,0,0,0,4.184-.39,1.543,1.543,0,0,0,2.639-1.935,1.543,1.543,0,0,0,1.094-.39,1.543,1.543,0,0,0,2.639,1.155Z" transform="translate(34.872 73.275)" fill="#1ba44b"/>
      <path id="Path_182" data-name="Path 182" d="M2.874,1.026A1.473,1.473,0,0,0,4.354-.454,1.473,1.473,0,0,0,2.874-1.933,1.5,1.5,0,0,0,1.362-.454,1.5,1.5,0,0,0,2.874,1.026Z" transform="translate(43.414 73.338)" fill="#1ba44b"/>
      <path id="Path_183" data-name="Path 183" d="M3.078.993A1.466,1.466,0,0,0,4.557-.454,1.494,1.494,0,0,0,3.078-1.933,1.446,1.446,0,0,0,1.631-.454,1.418,1.418,0,0,0,3.078.993Z" transform="translate(51.989 73.338)" fill="#1ba44b"/>
      <path id="Path_184" data-name="Path 184" d="M3.345.961A1.438,1.438,0,0,0,4.791-.485,1.438,1.438,0,0,0,3.345-1.932,1.459,1.459,0,0,0,1.9-.485,1.459,1.459,0,0,0,3.345.961Z" transform="translate(60.499 73.37)" fill="#1ba44b"/>
      <path id="Path_185" data-name="Path 185" d="M3.58.9A1.4,1.4,0,0,0,4.993-.517,1.4,1.4,0,0,0,3.58-1.931,1.424,1.424,0,0,0,2.166-.517,1.424,1.424,0,0,0,3.58.9Z" transform="translate(69.042 73.402)" fill="#1ba44b"/>
      <path id="Path_186" data-name="Path 186" d="M3.784.8A1.354,1.354,0,0,0,5.132-.549,1.383,1.383,0,0,0,3.784-1.93,1.361,1.361,0,0,0,2.436-.549,1.333,1.333,0,0,0,3.784.8Z" transform="translate(77.648 73.434)" fill="#1ba44b"/>
      <path id="Path_187" data-name="Path 187" d="M4.019.7A1.319,1.319,0,0,0,5.334-.613,1.319,1.319,0,0,0,4.019-1.928,1.319,1.319,0,0,0,2.7-.613,1.319,1.319,0,0,0,4.019.7Z" transform="translate(86.191 73.498)" fill="#1ba44b"/>
      <path id="Path_188" data-name="Path 188" d="M4.254.637A1.284,1.284,0,0,0,5.536-.645,1.284,1.284,0,0,0,4.254-1.927,1.263,1.263,0,0,0,2.972-.645,1.263,1.263,0,0,0,4.254.637Z" transform="translate(94.734 73.53)" fill="#1ba44b"/>
      <path id="Path_189" data-name="Path 189" d="M4.521.6A1.228,1.228,0,0,0,5.77-.645,1.256,1.256,0,0,0,4.521-1.927,1.306,1.306,0,0,0,3.239-.645,1.277,1.277,0,0,0,4.521.6Z" transform="translate(103.244 73.53)" fill="#1ba44b"/>
      <path id="Path_190" data-name="Path 190" d="M4.693.443A1.179,1.179,0,0,0,5.876-.74,1.179,1.179,0,0,0,4.693-1.924,1.179,1.179,0,0,0,3.509-.74,1.179,1.179,0,0,0,4.693.443Z" transform="translate(111.851 73.625)" fill="#1ba44b"/>
      <path id="Path_191" data-name="Path 191" d="M4.96.41A1.172,1.172,0,0,0,6.143-.74,1.179,1.179,0,0,0,4.96-1.924,1.2,1.2,0,0,0,3.776-.74,1.194,1.194,0,0,0,4.96.41Z" transform="translate(120.361 73.625)" fill="#1ba44b"/>
      <path id="Path_192" data-name="Path 192" d="M5.131.282A1.13,1.13,0,0,0,6.249-.836,1.081,1.081,0,0,0,5.131-1.921,1.073,1.073,0,0,0,4.046-.836,1.123,1.123,0,0,0,5.131.282Z" transform="translate(128.968 73.721)" fill="#1ba44b"/>
      <path id="Path_193" data-name="Path 193" d="M5.4.249A1.088,1.088,0,0,0,6.451-.836,1.088,1.088,0,0,0,5.4-1.921,1.1,1.1,0,0,0,4.314-.836,1.1,1.1,0,0,0,5.4.249Z" transform="translate(137.51 73.721)" fill="#1ba44b"/>
      <path id="Path_194" data-name="Path 194" d="M5.6.119A1.024,1.024,0,0,0,6.621-.9,1.024,1.024,0,0,0,5.6-1.919,1.024,1.024,0,0,0,4.583-.9,1.024,1.024,0,0,0,5.6.119Z" transform="translate(146.085 73.785)" fill="#1ba44b"/>
      <path id="Path_195" data-name="Path 195" d="M5.805.023a.983.983,0,0,0,.953-.986.954.954,0,0,0-.953-.953.934.934,0,0,0-.953.953A.961.961,0,0,0,5.805.023Z" transform="translate(154.659 73.848)" fill="#1ba44b"/>
      <path id="Path_196" data-name="Path 196" d="M6.041-.075A.919.919,0,0,0,6.961-1a.9.9,0,0,0-.921-.921A.919.919,0,0,0,5.12-1,.941.941,0,0,0,6.041-.075Z" transform="translate(163.202 73.88)" fill="#1ba44b"/>
      <path id="Path_197" data-name="Path 197" d="M6.276-.108A.864.864,0,0,0,7.163-1a.891.891,0,0,0-.888-.921A.912.912,0,0,0,5.388-1,.884.884,0,0,0,6.276-.108Z" transform="translate(171.745 73.88)" fill="#1ba44b"/>
      <path id="Path_198" data-name="Path 198" d="M6.576-.14a.9.9,0,0,0,.855-.888.878.878,0,0,0-.855-.888.912.912,0,0,0-.921.888A.935.935,0,0,0,6.576-.14Z" transform="translate(180.255 73.912)" fill="#1ba44b"/>
      <path id="Path_199" data-name="Path 199" d="M1.315.9A1.263,1.263,0,0,0,2.6-.378,1.263,1.263,0,0,0,1.315-1.66,1.263,1.263,0,0,0,.033-.378,1.263,1.263,0,0,0,1.315.9Z" transform="translate(1.052 82.04)" fill="#1ba44b"/>
      <path id="Path_200" data-name="Path 200" d="M1.646,1.066A1.361,1.361,0,0,0,3.027-.282,1.389,1.389,0,0,0,1.646-1.663,1.361,1.361,0,0,0,.3-.282,1.333,1.333,0,0,0,1.646,1.066Z" transform="translate(9.499 81.945)" fill="#1ba44b"/>
      <path id="Path_201" data-name="Path 201" d="M1.945,1.1A1.368,1.368,0,0,0,3.326-.282,1.368,1.368,0,0,0,1.945-1.663,1.389,1.389,0,0,0,.564-.282,1.389,1.389,0,0,0,1.945,1.1Z" transform="translate(17.978 81.945)" fill="#1ba44b"/>
      <path id="Path_202" data-name="Path 202" d="M2.245,1.163A1.424,1.424,0,0,0,3.658-.25,1.424,1.424,0,0,0,2.245-1.664,1.4,1.4,0,0,0,.831-.25,1.4,1.4,0,0,0,2.245,1.163Z" transform="translate(26.488 81.913)" fill="#1ba44b"/>
      <path id="Path_203" data-name="Path 203" d="M2.48,1.1A1.389,1.389,0,0,0,3.861-.282,1.389,1.389,0,0,0,2.48-1.663,1.368,1.368,0,0,0,1.1-.282,1.368,1.368,0,0,0,2.48,1.1Z" transform="translate(35.031 81.945)" fill="#1ba44b"/>
      <path id="Path_204" data-name="Path 204" d="M2.747,1.066A1.333,1.333,0,0,0,4.095-.282,1.361,1.361,0,0,0,2.747-1.663,1.389,1.389,0,0,0,1.366-.282,1.361,1.361,0,0,0,2.747,1.066Z" transform="translate(43.542 81.945)" fill="#1ba44b"/>
      <path id="Path_205" data-name="Path 205" d="M2.95,1.034A1.376,1.376,0,0,0,4.3-.314,1.354,1.354,0,0,0,2.95-1.662,1.306,1.306,0,0,0,1.635-.314,1.326,1.326,0,0,0,2.95,1.034Z" transform="translate(52.116 81.977)" fill="#1ba44b"/>
      <path id="Path_206" data-name="Path 206" d="M3.249,1.034A1.354,1.354,0,0,0,4.6-.314,1.333,1.333,0,0,0,3.249-1.662,1.354,1.354,0,0,0,1.9-.314,1.376,1.376,0,0,0,3.249,1.034Z" transform="translate(60.595 81.977)" fill="#1ba44b"/>
      <path id="Path_207" data-name="Path 207" d="M3.452.9A1.291,1.291,0,0,0,4.767-.378,1.291,1.291,0,0,0,3.452-1.66,1.284,1.284,0,0,0,2.17-.378,1.284,1.284,0,0,0,3.452.9Z" transform="translate(69.17 82.04)" fill="#1ba44b"/>
      <path id="Path_208" data-name="Path 208" d="M3.72.84A1.27,1.27,0,0,0,4.969-.41,1.27,1.27,0,0,0,3.72-1.659,1.277,1.277,0,0,0,2.438-.41,1.277,1.277,0,0,0,3.72.84Z" transform="translate(77.712 82.072)" fill="#1ba44b"/>
      <path id="Path_209" data-name="Path 209" d="M3.923.775A1.207,1.207,0,0,0,5.107-.442,1.186,1.186,0,0,0,3.923-1.658,1.214,1.214,0,0,0,2.707-.442,1.235,1.235,0,0,0,3.923.775Z" transform="translate(86.287 82.104)" fill="#1ba44b"/>
      <path id="Path_210" data-name="Path 210" d="M4.127.71A1.2,1.2,0,0,0,5.31-.473,1.2,1.2,0,0,0,4.127-1.657,1.151,1.151,0,0,0,2.976-.473,1.151,1.151,0,0,0,4.127.71Z" transform="translate(94.861 82.136)" fill="#1ba44b"/>
      <path id="Path_211" data-name="Path 211" d="M4.362.581A1.137,1.137,0,0,0,5.512-.537,1.137,1.137,0,0,0,4.362-1.655,1.109,1.109,0,0,0,3.244-.537,1.109,1.109,0,0,0,4.362.581Z" transform="translate(103.404 82.2)" fill="#1ba44b"/>
      <path id="Path_212" data-name="Path 212" d="M4.6.549A1.123,1.123,0,0,0,5.682-.569,1.1,1.1,0,0,0,4.6-1.654,1.073,1.073,0,0,0,3.512-.569,1.1,1.1,0,0,0,4.6.549Z" transform="translate(111.946 82.232)" fill="#1ba44b"/>
      <path id="Path_213" data-name="Path 213" d="M4.832.451A1.059,1.059,0,0,0,5.884-.6,1.039,1.039,0,0,0,4.832-1.653,1.059,1.059,0,0,0,3.78-.6,1.082,1.082,0,0,0,4.832.451Z" transform="translate(120.489 82.263)" fill="#1ba44b"/>
      <path id="Path_214" data-name="Path 214" d="M5.067.386A1,1,0,0,0,6.086-.633,1,1,0,0,0,5.067-1.652,1.046,1.046,0,0,0,4.048-.633,1.046,1.046,0,0,0,5.067.386Z" transform="translate(129.032 82.295)" fill="#1ba44b"/>
      <path id="Path_215" data-name="Path 215" d="M5.335.322a.989.989,0,0,0,.986-.986.989.989,0,0,0-.986-.986,1,1,0,0,0-1.019.986A1,1,0,0,0,5.335.322Z" transform="translate(137.574 82.327)" fill="#1ba44b"/>
      <path id="Path_216" data-name="Path 216" d="M5.538.257A.954.954,0,0,0,6.492-.7a.954.954,0,0,0-.953-.953A.954.954,0,0,0,4.585-.7.954.954,0,0,0,5.538.257Z" transform="translate(146.149 82.359)" fill="#1ba44b"/>
      <path id="Path_217" data-name="Path 217" d="M5.773.192a.919.919,0,0,0,.921-.921.919.919,0,0,0-.921-.921.9.9,0,0,0-.92.921A.9.9,0,0,0,5.773.192Z" transform="translate(154.691 82.391)" fill="#1ba44b"/>
      <path id="Path_218" data-name="Path 218" d="M6.009.1A.884.884,0,0,0,6.9-.792a.857.857,0,0,0-.888-.855.877.877,0,0,0-.888.855A.905.905,0,0,0,6.009.1Z" transform="translate(163.234 82.455)" fill="#1ba44b"/>
      <path id="Path_219" data-name="Path 219" d="M6.212.063a.849.849,0,0,0,.855-.855.849.849,0,0,0-.855-.855.842.842,0,0,0-.822.855A.842.842,0,0,0,6.212.063Z" transform="translate(171.808 82.455)" fill="#1ba44b"/>
      <path id="Path_220" data-name="Path 220" d="M6.512,0a.835.835,0,0,0,.822-.822.835.835,0,0,0-.822-.822.842.842,0,0,0-.855.822A.842.842,0,0,0,6.512,0Z" transform="translate(180.319 82.487)" fill="#1ba44b"/>
      <path id="Path_221" data-name="Path 221" d="M1.188.945A1.179,1.179,0,0,0,2.371-.238,1.151,1.151,0,0,0,1.188-1.389,1.143,1.143,0,0,0,.037-.238,1.172,1.172,0,0,0,1.188.945Z" transform="translate(1.179 90.679)" fill="#1ba44b"/>
      <path id="Path_222" data-name="Path 222" d="M1.518,1.107A1.249,1.249,0,0,0,2.768-.143,1.249,1.249,0,0,0,1.518-1.392,1.221,1.221,0,0,0,.3-.143,1.221,1.221,0,0,0,1.518,1.107Z" transform="translate(9.626 90.583)" fill="#1ba44b"/>
      <path id="Path_223" data-name="Path 223" d="M1.817,1.139A1.312,1.312,0,0,0,3.132-.143,1.285,1.285,0,0,0,1.817-1.392,1.249,1.249,0,0,0,.568-.143,1.277,1.277,0,0,0,1.817,1.139Z" transform="translate(18.105 90.583)" fill="#1ba44b"/>
      <path id="Path_224" data-name="Path 224" d="M2.149,1.2A1.291,1.291,0,0,0,3.431-.111,1.284,1.284,0,0,0,2.149-1.393,1.312,1.312,0,0,0,.834-.111,1.319,1.319,0,0,0,2.149,1.2Z" transform="translate(26.584 90.551)" fill="#1ba44b"/>
      <path id="Path_225" data-name="Path 225" d="M2.352,1.139A1.306,1.306,0,0,0,3.634-.143,1.277,1.277,0,0,0,2.352-1.392,1.228,1.228,0,0,0,1.1-.143,1.256,1.256,0,0,0,2.352,1.139Z" transform="translate(35.159 90.583)" fill="#1ba44b"/>
      <path id="Path_226" data-name="Path 226" d="M2.651,1.139A1.256,1.256,0,0,0,3.9-.143,1.228,1.228,0,0,0,2.651-1.392,1.277,1.277,0,0,0,1.369-.143,1.306,1.306,0,0,0,2.651,1.139Z" transform="translate(43.637 90.583)" fill="#1ba44b"/>
      <path id="Path_227" data-name="Path 227" d="M2.854,1.107A1.249,1.249,0,0,0,4.1-.143,1.249,1.249,0,0,0,2.854-1.392,1.221,1.221,0,0,0,1.638-.143,1.221,1.221,0,0,0,2.854,1.107Z" transform="translate(52.212 90.583)" fill="#1ba44b"/>
      <path id="Path_228" data-name="Path 228" d="M3.121,1.042A1.221,1.221,0,0,0,4.371-.175,1.221,1.221,0,0,0,3.121-1.391,1.214,1.214,0,0,0,1.9-.175,1.214,1.214,0,0,0,3.121,1.042Z" transform="translate(60.723 90.615)" fill="#1ba44b"/>
      <path id="Path_229" data-name="Path 229" d="M3.325.945A1.158,1.158,0,0,0,4.508-.238,1.132,1.132,0,0,0,3.325-1.389,1.124,1.124,0,0,0,2.174-.238,1.151,1.151,0,0,0,3.325.945Z" transform="translate(69.297 90.679)" fill="#1ba44b"/>
      <path id="Path_230" data-name="Path 230" d="M3.593.848A1.13,1.13,0,0,0,4.71-.27,1.13,1.13,0,0,0,3.593-1.388,1.137,1.137,0,0,0,2.442-.27,1.137,1.137,0,0,0,3.593.848Z" transform="translate(77.84 90.71)" fill="#1ba44b"/>
      <path id="Path_231" data-name="Path 231" d="M3.828.816A1.1,1.1,0,0,0,4.913-.3,1.1,1.1,0,0,0,3.828-1.387,1.123,1.123,0,0,0,2.71-.3,1.13,1.13,0,0,0,3.828.816Z" transform="translate(86.382 90.742)" fill="#1ba44b"/>
      <path id="Path_232" data-name="Path 232" d="M4,.718A1.059,1.059,0,0,0,5.051-.334,1.059,1.059,0,0,0,4-1.386,1.011,1.011,0,0,0,2.98-.334,1.011,1.011,0,0,0,4,.718Z" transform="translate(94.989 90.774)" fill="#1ba44b"/>
      <path id="Path_233" data-name="Path 233" d="M4.266.653A1.031,1.031,0,0,0,5.318-.366,1.053,1.053,0,0,0,4.266-1.385,1.024,1.024,0,0,0,3.247-.366,1,1,0,0,0,4.266.653Z" transform="translate(103.499 90.806)" fill="#1ba44b"/>
      <path id="Path_234" data-name="Path 234" d="M4.5.621A1,1,0,0,0,5.488-.4.969.969,0,0,0,4.5-1.384.969.969,0,0,0,3.515-.4,1,1,0,0,0,4.5.621Z" transform="translate(112.042 90.838)" fill="#1ba44b"/>
      <path id="Path_235" data-name="Path 235" d="M4.736.557A.969.969,0,0,0,5.723-.43a.962.962,0,0,0-.986-.953.954.954,0,0,0-.953.953A.962.962,0,0,0,4.736.557Z" transform="translate(120.585 90.87)" fill="#1ba44b"/>
      <path id="Path_236" data-name="Path 236" d="M4.972.524A.934.934,0,0,0,5.925-.43a.934.934,0,0,0-.953-.953.927.927,0,0,0-.921.953A.927.927,0,0,0,4.972.524Z" transform="translate(129.127 90.87)" fill="#1ba44b"/>
      <path id="Path_237" data-name="Path 237" d="M5.24.394a.905.905,0,0,0,.888-.888.905.905,0,0,0-.888-.888.892.892,0,0,0-.921.888A.892.892,0,0,0,5.24.394Z" transform="translate(137.67 90.934)" fill="#1ba44b"/>
      <path id="Path_238" data-name="Path 238" d="M5.475.362a.884.884,0,0,0,.888-.888.857.857,0,0,0-.888-.855.857.857,0,0,0-.888.855A.884.884,0,0,0,5.475.362Z" transform="translate(146.212 90.965)" fill="#1ba44b"/>
      <path id="Path_239" data-name="Path 239" d="M5.71.33a.849.849,0,0,0,.855-.855A.849.849,0,0,0,5.71-1.38a.849.849,0,0,0-.855.855A.849.849,0,0,0,5.71.33Z" transform="translate(154.755 90.965)" fill="#1ba44b"/>
      <path id="Path_240" data-name="Path 240" d="M5.913.233a.814.814,0,0,0,.822-.822.807.807,0,0,0-.822-.789.8.8,0,0,0-.789.789A.807.807,0,0,0,5.913.233Z" transform="translate(163.329 91.029)" fill="#1ba44b"/>
      <path id="Path_241" data-name="Path 241" d="M6.18.233a.787.787,0,0,0,.789-.822.779.779,0,0,0-.789-.789.779.779,0,0,0-.789.789A.787.787,0,0,0,6.18.233Z" transform="translate(171.84 91.029)" fill="#1ba44b"/>
      <path id="Path_242" data-name="Path 242" d="M6.448.168A.794.794,0,0,0,7.2-.621a.765.765,0,0,0-.756-.756.752.752,0,0,0-.789.756A.779.779,0,0,0,6.448.168Z" transform="translate(180.383 91.061)" fill="#1ba44b"/>
      <path id="Path_243" data-name="Path 243" d="M1.06.92A1.025,1.025,0,0,0,2.112-.066,1.059,1.059,0,0,0,1.06-1.118,1.032,1.032,0,0,0,.041-.066,1,1,0,0,0,1.06.92Z" transform="translate(1.307 99.317)" fill="#1ba44b"/>
      <path id="Path_244" data-name="Path 244" d="M1.359,1.018A1.088,1.088,0,0,0,2.444-.034,1.1,1.1,0,0,0,1.359-1.119,1.067,1.067,0,0,0,.307-.034,1.059,1.059,0,0,0,1.359,1.018Z" transform="translate(9.786 99.285)" fill="#1ba44b"/>
      <path id="Path_245" data-name="Path 245" d="M1.69,1.115A1.131,1.131,0,0,0,2.84.03,1.165,1.165,0,0,0,1.69-1.121,1.159,1.159,0,0,0,.572.03,1.123,1.123,0,0,0,1.69,1.115Z" transform="translate(18.233 99.221)" fill="#1ba44b"/>
      <path id="Path_246" data-name="Path 246" d="M1.99,1.179A1.109,1.109,0,0,0,3.107.062,1.145,1.145,0,0,0,1.99-1.122,1.172,1.172,0,0,0,.839.062,1.137,1.137,0,0,0,1.99,1.179Z" transform="translate(26.743 99.189)" fill="#1ba44b"/>
      <path id="Path_247" data-name="Path 247" d="M2.289,1.179A1.137,1.137,0,0,0,3.439.062,1.172,1.172,0,0,0,2.289-1.122,1.179,1.179,0,0,0,1.1.062,1.145,1.145,0,0,0,2.289,1.179Z" transform="translate(35.222 99.189)" fill="#1ba44b"/>
      <path id="Path_248" data-name="Path 248" d="M2.492,1.115A1.1,1.1,0,0,0,3.61.03,1.137,1.137,0,0,0,2.492-1.121,1.137,1.137,0,0,0,1.374.03,1.1,1.1,0,0,0,2.492,1.115Z" transform="translate(43.797 99.221)" fill="#1ba44b"/>
      <path id="Path_249" data-name="Path 249" d="M2.727,1.083A1.1,1.1,0,0,0,3.812,0,1.1,1.1,0,0,0,2.727-1.12,1.081,1.081,0,0,0,1.642,0,1.073,1.073,0,0,0,2.727,1.083Z" transform="translate(52.339 99.253)" fill="#1ba44b"/>
      <path id="Path_250" data-name="Path 250" d="M2.994,1.018A1.088,1.088,0,0,0,4.079-.034,1.1,1.1,0,0,0,2.994-1.119,1.1,1.1,0,0,0,1.909-.034,1.088,1.088,0,0,0,2.994,1.018Z" transform="translate(60.85 99.285)" fill="#1ba44b"/>
      <path id="Path_251" data-name="Path 251" d="M3.2.985A1.032,1.032,0,0,0,4.249-.034,1.067,1.067,0,0,0,3.2-1.119,1.04,1.04,0,0,0,2.178-.034,1,1,0,0,0,3.2.985Z" transform="translate(69.425 99.285)" fill="#1ba44b"/>
      <path id="Path_252" data-name="Path 252" d="M3.5.92A1,1,0,0,0,4.516-.066,1.032,1.032,0,0,0,3.5-1.118,1.039,1.039,0,0,0,2.445-.066,1,1,0,0,0,3.5.92Z" transform="translate(77.935 99.317)" fill="#1ba44b"/>
      <path id="Path_253" data-name="Path 253" d="M3.732.888A.989.989,0,0,0,4.718-.1a.977.977,0,0,0-.986-1.019A1,1,0,0,0,2.713-.1,1.018,1.018,0,0,0,3.732.888Z" transform="translate(86.478 99.349)" fill="#1ba44b"/>
      <path id="Path_254" data-name="Path 254" d="M3.935.791A.97.97,0,0,0,4.889-.13a.983.983,0,0,0-.953-.986.962.962,0,0,0-.953.986A.948.948,0,0,0,3.935.791Z" transform="translate(95.052 99.381)" fill="#1ba44b"/>
      <path id="Path_255" data-name="Path 255" d="M4.171.726a.892.892,0,0,0,.92-.888.927.927,0,0,0-.92-.953.948.948,0,0,0-.921.953A.912.912,0,0,0,4.171.726Z" transform="translate(103.595 99.412)" fill="#1ba44b"/>
      <path id="Path_256" data-name="Path 256" d="M4.438.694a.864.864,0,0,0,.888-.888.872.872,0,0,0-.888-.921.919.919,0,0,0-.921.921A.912.912,0,0,0,4.438.694Z" transform="translate(112.106 99.444)" fill="#1ba44b"/>
      <path id="Path_257" data-name="Path 257" d="M4.673.629A.877.877,0,0,0,5.56-.225a.884.884,0,0,0-.888-.888.905.905,0,0,0-.888.888A.9.9,0,0,0,4.673.629Z" transform="translate(120.648 99.476)" fill="#1ba44b"/>
      <path id="Path_258" data-name="Path 258" d="M4.876.565a.822.822,0,0,0,.855-.822.829.829,0,0,0-.855-.855.822.822,0,0,0-.822.855A.814.814,0,0,0,4.876.565Z" transform="translate(129.223 99.508)" fill="#1ba44b"/>
      <path id="Path_259" data-name="Path 259" d="M5.176.532A.829.829,0,0,0,6-.257a.842.842,0,0,0-.822-.855.849.849,0,0,0-.855.855A.837.837,0,0,0,5.176.532Z" transform="translate(137.734 99.508)" fill="#1ba44b"/>
      <path id="Path_260" data-name="Path 260" d="M5.411.5a.829.829,0,0,0,.822-.789.835.835,0,0,0-.822-.822.835.835,0,0,0-.822.822A.829.829,0,0,0,5.411.5Z" transform="translate(146.276 99.54)" fill="#1ba44b"/>
      <path id="Path_261" data-name="Path 261" d="M5.646.435A.765.765,0,0,0,6.4-.321a.752.752,0,0,0-.756-.789.779.779,0,0,0-.789.789A.794.794,0,0,0,5.646.435Z" transform="translate(154.819 99.572)" fill="#1ba44b"/>
      <path id="Path_262" data-name="Path 262" d="M5.881.4a.765.765,0,0,0,.756-.756.744.744,0,0,0-.756-.756.765.765,0,0,0-.756.756A.788.788,0,0,0,5.881.4Z" transform="translate(163.361 99.604)" fill="#1ba44b"/>
      <path id="Path_263" data-name="Path 263" d="M6.116.37a.737.737,0,0,0,.756-.723.744.744,0,0,0-.756-.756.737.737,0,0,0-.723.756A.73.73,0,0,0,6.116.37Z" transform="translate(171.904 99.604)" fill="#1ba44b"/>
      <path id="Path_264" data-name="Path 264" d="M6.384.306a.717.717,0,0,0,.69-.69.7.7,0,0,0-.69-.723.709.709,0,0,0-.723.723A.724.724,0,0,0,6.384.306Z" transform="translate(180.447 99.636)" fill="#1ba44b"/>
      <path id="Path_265" data-name="Path 265" d="M.965,1.026A.919.919,0,0,0,1.885.105.927.927,0,0,0,.965-.848.948.948,0,0,0,.044.105.941.941,0,0,0,.965,1.026Z" transform="translate(1.403 107.923)" fill="#1ba44b"/>
      <path id="Path_266" data-name="Path 266" d="M1.263,1.091A.983.983,0,0,0,2.25.137a.989.989,0,0,0-.986-.986A.962.962,0,0,0,.31.137.954.954,0,0,0,1.263,1.091Z" transform="translate(9.881 107.891)" fill="#1ba44b"/>
      <path id="Path_267" data-name="Path 267" d="M1.562,1.155A1.018,1.018,0,0,0,2.581.169,1.024,1.024,0,0,0,1.562-.85,1.018,1.018,0,0,0,.576.169,1.011,1.011,0,0,0,1.562,1.155Z" transform="translate(18.36 107.859)" fill="#1ba44b"/>
      <path id="Path_268" data-name="Path 268" d="M1.862,1.187A.969.969,0,0,0,2.848.2,1.025,1.025,0,0,0,1.862-.851,1.031,1.031,0,0,0,.843.2.977.977,0,0,0,1.862,1.187Z" transform="translate(26.871 107.827)" fill="#1ba44b"/>
      <path id="Path_269" data-name="Path 269" d="M2.129,1.155A1.011,1.011,0,0,0,3.115.169,1.018,1.018,0,0,0,2.129-.85,1.024,1.024,0,0,0,1.11.169,1.018,1.018,0,0,0,2.129,1.155Z" transform="translate(35.382 107.859)" fill="#1ba44b"/>
      <path id="Path_270" data-name="Path 270" d="M2.364,1.155A.989.989,0,0,0,3.351.169,1,1,0,0,0,2.364-.85,1.018,1.018,0,0,0,1.378.169,1.011,1.011,0,0,0,2.364,1.155Z" transform="translate(43.924 107.859)" fill="#1ba44b"/>
      <path id="Path_271" data-name="Path 271" d="M2.6,1.091A.983.983,0,0,0,3.586.137.989.989,0,0,0,2.6-.849a.962.962,0,0,0-.953.986A.954.954,0,0,0,2.6,1.091Z" transform="translate(52.467 107.891)" fill="#1ba44b"/>
      <path id="Path_272" data-name="Path 272" d="M2.866,1.058A.948.948,0,0,0,3.82.137a.983.983,0,0,0-.953-.986,1.006,1.006,0,0,0-.953.986A.97.97,0,0,0,2.866,1.058Z" transform="translate(60.978 107.891)" fill="#1ba44b"/>
      <path id="Path_273" data-name="Path 273" d="M3.1,1.058A.927.927,0,0,0,4.055.137.961.961,0,0,0,3.1-.849a.955.955,0,0,0-.921.986A.919.919,0,0,0,3.1,1.058Z" transform="translate(69.52 107.891)" fill="#1ba44b"/>
      <path id="Path_274" data-name="Path 274" d="M3.37.961A.884.884,0,0,0,4.257.074.912.912,0,0,0,3.37-.847a.941.941,0,0,0-.921.921A.912.912,0,0,0,3.37.961Z" transform="translate(78.063 107.955)" fill="#1ba44b"/>
      <path id="Path_275" data-name="Path 275" d="M3.6.9A.877.877,0,0,0,4.492.042.884.884,0,0,0,3.6-.846a.905.905,0,0,0-.888.888A.9.9,0,0,0,3.6.9Z" transform="translate(86.605 107.987)" fill="#1ba44b"/>
      <path id="Path_276" data-name="Path 276" d="M3.84.9A.87.87,0,0,0,4.695.042.877.877,0,0,0,3.84-.846a.857.857,0,0,0-.855.888A.849.849,0,0,0,3.84.9Z" transform="translate(95.148 107.987)" fill="#1ba44b"/>
      <path id="Path_277" data-name="Path 277" d="M4.075.832A.865.865,0,0,0,4.93.01a.87.87,0,0,0-.855-.855A.842.842,0,0,0,3.253.01.835.835,0,0,0,4.075.832Z" transform="translate(103.691 108.019)" fill="#1ba44b"/>
      <path id="Path_278" data-name="Path 278" d="M4.342.767a.779.779,0,0,0,.789-.789.787.787,0,0,0-.789-.822.814.814,0,0,0-.822.822A.807.807,0,0,0,4.342.767Z" transform="translate(112.201 108.051)" fill="#1ba44b"/>
      <path id="Path_279" data-name="Path 279" d="M4.545.7a.794.794,0,0,0,.789-.756.779.779,0,0,0-.789-.789.752.752,0,0,0-.756.789A.765.765,0,0,0,4.545.7Z" transform="translate(120.776 108.082)" fill="#1ba44b"/>
      <path id="Path_280" data-name="Path 280" d="M4.78.67a.794.794,0,0,0,.789-.756A.772.772,0,0,0,4.78-.842a.717.717,0,0,0-.723.756A.737.737,0,0,0,4.78.67Z" transform="translate(129.318 108.114)" fill="#1ba44b"/>
      <path id="Path_281" data-name="Path 281" d="M5.08.637A.73.73,0,0,0,5.8-.086.737.737,0,0,0,5.08-.842a.744.744,0,0,0-.756.756A.737.737,0,0,0,5.08.637Z" transform="translate(137.829 108.114)" fill="#1ba44b"/>
      <path id="Path_282" data-name="Path 282" d="M5.283.573a.694.694,0,0,0,.69-.69.683.683,0,0,0-.69-.723.683.683,0,0,0-.69.723A.694.694,0,0,0,5.283.573Z" transform="translate(146.404 108.146)" fill="#1ba44b"/>
      <path id="Path_283" data-name="Path 283" d="M5.55.508A.639.639,0,0,0,6.208-.15.648.648,0,0,0,5.55-.84a.674.674,0,0,0-.69.69A.667.667,0,0,0,5.55.508Z" transform="translate(154.914 108.178)" fill="#1ba44b"/>
      <path id="Path_284" data-name="Path 284" d="M5.754.443a.624.624,0,0,0,.625-.625.632.632,0,0,0-.625-.658.654.654,0,0,0-.625.658A.647.647,0,0,0,5.754.443Z" transform="translate(163.489 108.21)" fill="#1ba44b"/>
      <path id="Path_285" data-name="Path 285" d="M6.021.443a.654.654,0,0,0,.658-.625.659.659,0,0,0-.658-.658A.632.632,0,0,0,5.4-.181.624.624,0,0,0,6.021.443Z" transform="translate(172 108.21)" fill="#1ba44b"/>
      <path id="Path_286" data-name="Path 286" d="M6.289.378A.611.611,0,0,0,6.88-.213a.618.618,0,0,0-.592-.625.6.6,0,0,0-.625.625A.6.6,0,0,0,6.289.378Z" transform="translate(180.542 108.242)" fill="#1ba44b"/>
      <path id="Path_287" data-name="Path 287" d="M.837,1.034A.807.807,0,0,0,1.659.245.814.814,0,0,0,.837-.577.807.807,0,0,0,.048.245.8.8,0,0,0,.837,1.034Z" transform="translate(1.53 116.561)" fill="#1ba44b"/>
      <path id="Path_288" data-name="Path 288" d="M1.168,1.132A.849.849,0,0,0,2.023.277a.829.829,0,0,0-.855-.855A.849.849,0,0,0,.313.277.87.87,0,0,0,1.168,1.132Z" transform="translate(9.977 116.529)" fill="#1ba44b"/>
      <path id="Path_289" data-name="Path 289" d="M1.435,1.2A.905.905,0,0,0,2.322.309a.884.884,0,0,0-.888-.888A.877.877,0,0,0,.58.309.9.9,0,0,0,1.435,1.2Z" transform="translate(18.488 116.498)" fill="#1ba44b"/>
      <path id="Path_290" data-name="Path 290" d="M1.735,1.2A.877.877,0,0,0,2.589.309a.857.857,0,0,0-.855-.888A.884.884,0,0,0,.847.309.905.905,0,0,0,1.735,1.2Z" transform="translate(26.998 116.498)" fill="#1ba44b"/>
      <path id="Path_291" data-name="Path 291" d="M2,1.2A.9.9,0,0,0,2.856.309.877.877,0,0,0,2-.579a.884.884,0,0,0-.888.888A.905.905,0,0,0,2,1.2Z" transform="translate(35.509 116.498)" fill="#1ba44b"/>
      <path id="Path_292" data-name="Path 292" d="M2.237,1.132A.87.87,0,0,0,3.092.277a.855.855,0,1,0-1.71,0A.87.87,0,0,0,2.237,1.132Z" transform="translate(44.052 116.529)" fill="#1ba44b"/>
      <path id="Path_293" data-name="Path 293" d="M2.472,1.1a.838.838,0,0,0,0-1.677.838.838,0,0,0,0,1.677Z" transform="translate(52.594 116.529)" fill="#1ba44b"/>
      <path id="Path_294" data-name="Path 294" d="M2.739,1.1A.865.865,0,0,0,3.594.277a.87.87,0,0,0-.855-.855.865.865,0,0,0-.822.855A.858.858,0,0,0,2.739,1.1Z" transform="translate(61.105 116.529)" fill="#1ba44b"/>
      <path id="Path_295" data-name="Path 295" d="M2.974,1.1A.813.813,0,0,0,3.8.277a.821.821,0,0,0-.822-.855.815.815,0,0,0-.789.855A.807.807,0,0,0,2.974,1.1Z" transform="translate(69.648 116.529)" fill="#1ba44b"/>
      <path id="Path_296" data-name="Path 296" d="M3.242.969A.788.788,0,0,0,4,.213a.794.794,0,0,0-.756-.789.8.8,0,0,0-.789.789A.794.794,0,0,0,3.242.969Z" transform="translate(78.19 116.593)" fill="#1ba44b"/>
      <path id="Path_297" data-name="Path 297" d="M3.477.937A.765.765,0,0,0,4.233.181a.756.756,0,1,0-1.512,0A.765.765,0,0,0,3.477.937Z" transform="translate(86.733 116.625)" fill="#1ba44b"/>
      <path id="Path_298" data-name="Path 298" d="M3.744.9A.73.73,0,0,0,4.467.181a.759.759,0,0,0-.723-.756.788.788,0,0,0-.756.756A.759.759,0,0,0,3.744.9Z" transform="translate(95.244 116.625)" fill="#1ba44b"/>
      <path id="Path_299" data-name="Path 299" d="M3.979.9A.73.73,0,0,0,4.7.181a.759.759,0,0,0-.723-.756.759.759,0,0,0-.723.756A.73.73,0,0,0,3.979.9Z" transform="translate(103.786 116.625)" fill="#1ba44b"/>
      <path id="Path_300" data-name="Path 300" d="M4.214.775A.667.667,0,0,0,4.9.117a.674.674,0,0,0-.69-.69.694.694,0,0,0-.69.69A.688.688,0,0,0,4.214.775Z" transform="translate(112.329 116.689)" fill="#1ba44b"/>
      <path id="Path_301" data-name="Path 301" d="M4.449.743A.659.659,0,0,0,5.107.086a.659.659,0,0,0-.658-.658.682.682,0,0,0-.658.658A.682.682,0,0,0,4.449.743Z" transform="translate(120.871 116.721)" fill="#1ba44b"/>
      <path id="Path_302" data-name="Path 302" d="M4.653.71A.632.632,0,0,0,5.31.086a.659.659,0,0,0-.658-.658.606.606,0,0,0-.592.658A.579.579,0,0,0,4.653.71Z" transform="translate(129.446 116.721)" fill="#1ba44b"/>
      <path id="Path_303" data-name="Path 303" d="M4.953.645A.611.611,0,0,0,5.544.054a.642.642,0,0,0-.592-.625.647.647,0,0,0-.625.625A.618.618,0,0,0,4.953.645Z" transform="translate(137.957 116.753)" fill="#1ba44b"/>
      <path id="Path_304" data-name="Path 304" d="M5.188.581A.562.562,0,0,0,5.779.022.592.592,0,1,0,4.6.022.562.562,0,0,0,5.188.581Z" transform="translate(146.499 116.784)" fill="#1ba44b"/>
      <path id="Path_305" data-name="Path 305" d="M5.423.549A.554.554,0,0,0,5.982-.01a.535.535,0,0,0-.559-.559.535.535,0,0,0-.559.559A.554.554,0,0,0,5.423.549Z" transform="translate(155.042 116.816)" fill="#1ba44b"/>
      <path id="Path_306" data-name="Path 306" d="M5.69.549A.576.576,0,0,0,6.249-.01.554.554,0,0,0,5.69-.569a.554.554,0,0,0-.559.559A.576.576,0,0,0,5.69.549Z" transform="translate(163.553 116.816)" fill="#1ba44b"/>
      <path id="Path_307" data-name="Path 307" d="M5.957.549A.583.583,0,0,0,6.549-.01a.562.562,0,0,0-.592-.559A.554.554,0,0,0,5.4-.01.576.576,0,0,0,5.957.549Z" transform="translate(172.063 116.816)" fill="#1ba44b"/>
      <path id="Path_308" data-name="Path 308" d="M6.225.516A.541.541,0,0,0,6.751-.01a.548.548,0,0,0-.526-.559.554.554,0,0,0-.559.559A.548.548,0,0,0,6.225.516Z" transform="translate(180.606 116.816)" fill="#1ba44b"/>
      <path id="Path_309" data-name="Path 309" d="M.741,1.042a.667.667,0,0,0,.69-.658.694.694,0,0,0-.69-.69.717.717,0,0,0-.69.69A.688.688,0,0,0,.741,1.042Z" transform="translate(1.626 125.2)" fill="#1ba44b"/>
      <path id="Path_310" data-name="Path 310" d="M1.04,1.107a.656.656,0,0,0,.69-.69.682.682,0,0,0-.69-.723A.73.73,0,0,0,.317.416.7.7,0,0,0,1.04,1.107Z" transform="translate(10.104 125.168)" fill="#1ba44b"/>
      <path id="Path_311" data-name="Path 311" d="M1.307,1.171A.737.737,0,0,0,2.063.448a.765.765,0,0,0-.756-.756A.759.759,0,0,0,.584.448.73.73,0,0,0,1.307,1.171Z" transform="translate(18.615 125.136)" fill="#1ba44b"/>
      <path id="Path_312" data-name="Path 312" d="M1.607,1.2A.744.744,0,0,0,2.363.448a.744.744,0,0,0-.756-.756A.744.744,0,0,0,.851.448.744.744,0,0,0,1.607,1.2Z" transform="translate(27.126 125.136)" fill="#1ba44b"/>
      <path id="Path_313" data-name="Path 313" d="M1.874,1.2A.765.765,0,0,0,2.63.448a.765.765,0,0,0-.756-.756.744.744,0,0,0-.756.756A.744.744,0,0,0,1.874,1.2Z" transform="translate(35.637 125.136)" fill="#1ba44b"/>
      <path id="Path_314" data-name="Path 314" d="M2.109,1.171A.73.73,0,0,0,2.833.448a.759.759,0,0,0-.723-.756.759.759,0,0,0-.723.756A.73.73,0,0,0,2.109,1.171Z" transform="translate(44.179 125.136)" fill="#1ba44b"/>
      <path id="Path_315" data-name="Path 315" d="M2.376,1.107a.674.674,0,0,0,.69-.69.7.7,0,0,0-.69-.723.73.73,0,0,0-.723.723A.7.7,0,0,0,2.376,1.107Z" transform="translate(52.69 125.168)" fill="#1ba44b"/>
      <path id="Path_316" data-name="Path 316" d="M2.611,1.107a.7.7,0,0,0,.723-.69.73.73,0,0,0-.723-.723.724.724,0,0,0-.69.723A.694.694,0,0,0,2.611,1.107Z" transform="translate(61.233 125.168)" fill="#1ba44b"/>
      <path id="Path_317" data-name="Path 317" d="M2.878,1.042a.667.667,0,0,0,.69-.658.694.694,0,0,0-.69-.69.717.717,0,0,0-.69.69A.688.688,0,0,0,2.878,1.042Z" transform="translate(69.743 125.2)" fill="#1ba44b"/>
      <path id="Path_318" data-name="Path 318" d="M3.146,1.01A.654.654,0,0,0,3.771.353.654.654,0,0,0,3.146-.3a.688.688,0,0,0-.69.658A.688.688,0,0,0,3.146,1.01Z" transform="translate(78.286 125.231)" fill="#1ba44b"/>
      <path id="Path_319" data-name="Path 319" d="M3.318.912A.618.618,0,0,0,3.942.321.647.647,0,0,0,3.318-.3a.6.6,0,0,0-.592.625A.57.57,0,0,0,3.318.912Z" transform="translate(86.892 125.263)" fill="#1ba44b"/>
      <path id="Path_320" data-name="Path 320" d="M3.617.912A.57.57,0,0,0,4.208.321.6.6,0,0,0,3.617-.3a.647.647,0,0,0-.625.625A.618.618,0,0,0,3.617.912Z" transform="translate(95.371 125.263)" fill="#1ba44b"/>
      <path id="Path_321" data-name="Path 321" d="M3.852.912A.618.618,0,0,0,4.476.321.647.647,0,0,0,3.852-.3.618.618,0,0,0,3.26.321.589.589,0,0,0,3.852.912Z" transform="translate(103.914 125.263)" fill="#1ba44b"/>
      <path id="Path_322" data-name="Path 322" d="M4.119.848A.535.535,0,0,0,4.678.289.562.562,0,0,0,4.119-.3a.589.589,0,0,0-.592.592A.562.562,0,0,0,4.119.848Z" transform="translate(112.424 125.295)" fill="#1ba44b"/>
      <path id="Path_323" data-name="Path 323" d="M4.354.816A.576.576,0,0,0,4.913.257a.559.559,0,1,0-1.118,0A.576.576,0,0,0,4.354.816Z" transform="translate(120.967 125.327)" fill="#1ba44b"/>
      <path id="Path_324" data-name="Path 324" d="M4.589.783A.528.528,0,0,0,5.148.257.554.554,0,0,0,4.589-.3a.548.548,0,0,0-.526.559A.519.519,0,0,0,4.589.783Z" transform="translate(129.51 125.327)" fill="#1ba44b"/>
      <path id="Path_325" data-name="Path 325" d="M4.857.718A.506.506,0,0,0,5.35.225.513.513,0,0,0,4.857-.3a.519.519,0,0,0-.526.526A.513.513,0,0,0,4.857.718Z" transform="translate(138.052 125.359)" fill="#1ba44b"/>
      <path id="Path_326" data-name="Path 326" d="M5.092.686A.506.506,0,0,0,5.585.193.506.506,0,0,0,5.092-.3.484.484,0,0,0,4.6.193.484.484,0,0,0,5.092.686Z" transform="translate(146.595 125.391)" fill="#1ba44b"/>
      <path id="Path_327" data-name="Path 327" d="M5.359.686A.506.506,0,0,0,5.852.193a.493.493,0,1,0-.986,0A.506.506,0,0,0,5.359.686Z" transform="translate(155.106 125.391)" fill="#1ba44b"/>
      <path id="Path_328" data-name="Path 328" d="M5.594.686A.506.506,0,0,0,6.087.193.506.506,0,0,0,5.594-.3a.478.478,0,0,0-.46.493A.478.478,0,0,0,5.594.686Z" transform="translate(163.648 125.391)" fill="#1ba44b"/>
      <path id="Path_329" data-name="Path 329" d="M5.861.622a.478.478,0,0,0,.493-.46A.478.478,0,0,0,5.861-.3a.449.449,0,0,0-.46.46A.449.449,0,0,0,5.861.622Z" transform="translate(172.159 125.423)" fill="#1ba44b"/>
      <path id="Path_330" data-name="Path 330" d="M6.161.622a.443.443,0,0,0,.427-.46A.443.443,0,0,0,6.161-.3a.478.478,0,0,0-.493.46A.478.478,0,0,0,6.161.622Z" transform="translate(180.67 125.423)" fill="#1ba44b"/>
      <path id="Path_331" data-name="Path 331" d="M.582,1.018A.519.519,0,0,0,1.108.492.519.519,0,0,0,.582-.034.519.519,0,0,0,.056.492.519.519,0,0,0,.582,1.018Z" transform="translate(1.785 133.87)" fill="#1ba44b"/>
      <path id="Path_332" data-name="Path 332" d="M.881,1.083A.554.554,0,0,0,1.44.524.554.554,0,0,0,.881-.035.576.576,0,0,0,.322.524.576.576,0,0,0,.881,1.083Z" transform="translate(10.264 133.838)" fill="#1ba44b"/>
      <path id="Path_333" data-name="Path 333" d="M1.148,1.148a.592.592,0,0,0,0-1.184A.583.583,0,0,0,.589.556.583.583,0,0,0,1.148,1.148Z" transform="translate(18.775 133.806)" fill="#1ba44b"/>
      <path id="Path_334" data-name="Path 334" d="M1.48,1.179A.618.618,0,0,0,2.1.588.647.647,0,0,0,1.48-.037.624.624,0,0,0,.855.588.6.6,0,0,0,1.48,1.179Z" transform="translate(27.253 133.774)" fill="#1ba44b"/>
      <path id="Path_335" data-name="Path 335" d="M1.715,1.148A.583.583,0,0,0,2.274.556a.583.583,0,0,0-.559-.592.592.592,0,0,0,0,1.184Z" transform="translate(35.796 133.806)" fill="#1ba44b"/>
      <path id="Path_336" data-name="Path 336" d="M1.982,1.148A.592.592,0,1,0,1.39.556.589.589,0,0,0,1.982,1.148Z" transform="translate(44.307 133.806)" fill="#1ba44b"/>
      <path id="Path_337" data-name="Path 337" d="M2.217,1.083A.554.554,0,0,0,2.776.524a.554.554,0,0,0-.559-.559.576.576,0,0,0-.559.559A.576.576,0,0,0,2.217,1.083Z" transform="translate(52.849 133.838)" fill="#1ba44b"/>
      <path id="Path_338" data-name="Path 338" d="M2.484,1.083A.576.576,0,0,0,3.043.524a.576.576,0,0,0-.559-.559.576.576,0,0,0-.559.559A.576.576,0,0,0,2.484,1.083Z" transform="translate(61.36 133.838)" fill="#1ba44b"/>
      <path id="Path_339" data-name="Path 339" d="M2.751,1.083A.583.583,0,0,0,3.343.524a.583.583,0,0,0-.592-.559.576.576,0,0,0-.559.559A.576.576,0,0,0,2.751,1.083Z" transform="translate(69.871 133.838)" fill="#1ba44b"/>
      <path id="Path_340" data-name="Path 340" d="M3.019,1.018A.541.541,0,0,0,3.545.492a.541.541,0,0,0-.526-.526A.548.548,0,0,0,2.46.492.548.548,0,0,0,3.019,1.018Z" transform="translate(78.413 133.87)" fill="#1ba44b"/>
      <path id="Path_341" data-name="Path 341" d="M3.222,1.018A.513.513,0,0,0,3.715.492a.513.513,0,0,0-.493-.526.493.493,0,0,0-.493.526A.493.493,0,0,0,3.222,1.018Z" transform="translate(86.988 133.87)" fill="#1ba44b"/>
      <path id="Path_342" data-name="Path 342" d="M3.521,1.018A.493.493,0,0,0,4.014.492a.493.493,0,0,0-.493-.526.519.519,0,0,0-.526.526A.519.519,0,0,0,3.521,1.018Z" transform="translate(95.467 133.87)" fill="#1ba44b"/>
      <path id="Path_343" data-name="Path 343" d="M3.724.953A.506.506,0,0,0,4.217.46a.506.506,0,0,0-.493-.493.478.478,0,0,0-.46.493A.478.478,0,0,0,3.724.953Z" transform="translate(104.041 133.902)" fill="#1ba44b"/>
      <path id="Path_344" data-name="Path 344" d="M3.991.889a.478.478,0,0,0,.493-.46.478.478,0,0,0-.493-.46.449.449,0,0,0-.46.46A.449.449,0,0,0,3.991.889Z" transform="translate(112.552 133.933)" fill="#1ba44b"/>
      <path id="Path_345" data-name="Path 345" d="M4.226.824A.435.435,0,0,0,4.654.4.427.427,0,0,0,3.8.4.435.435,0,0,0,4.226.824Z" transform="translate(121.095 133.965)" fill="#1ba44b"/>
      <path id="Path_346" data-name="Path 346" d="M4.493.824A.443.443,0,0,0,4.954.4a.443.443,0,0,0-.46-.427A.435.435,0,0,0,4.066.4.435.435,0,0,0,4.493.824Z" transform="translate(129.605 133.965)" fill="#1ba44b"/>
      <path id="Path_347" data-name="Path 347" d="M4.761.824A.408.408,0,0,0,5.156.4a.408.408,0,0,0-.395-.427A.435.435,0,0,0,4.334.4.435.435,0,0,0,4.761.824Z" transform="translate(138.148 133.965)" fill="#1ba44b"/>
      <path id="Path_348" data-name="Path 348" d="M5,.824A.408.408,0,0,0,5.391.4.408.408,0,0,0,5-.031.388.388,0,0,0,4.6.4.388.388,0,0,0,5,.824Z" transform="translate(146.691 133.965)" fill="#1ba44b"/>
      <path id="Path_349" data-name="Path 349" d="M5.3.824A.435.435,0,0,0,5.723.4a.427.427,0,0,0-.855,0A.435.435,0,0,0,5.3.824Z" transform="translate(155.169 133.965)" fill="#1ba44b"/>
      <path id="Path_350" data-name="Path 350" d="M5.5.759A.424.424,0,0,0,5.893.365.424.424,0,0,0,5.5-.03a.4.4,0,0,0,0,.789Z" transform="translate(163.744 133.997)" fill="#1ba44b"/>
      <path id="Path_351" data-name="Path 351" d="M5.8.759A.4.4,0,0,0,6.192.365.4.4,0,0,0,5.8-.03.424.424,0,0,0,5.4.365.424.424,0,0,0,5.8.759Z" transform="translate(172.223 133.997)" fill="#1ba44b"/>
      <path id="Path_352" data-name="Path 352" d="M6.066.694A.36.36,0,0,0,6.394.333a.36.36,0,0,0-.329-.362.373.373,0,0,0-.395.362A.373.373,0,0,0,6.066.694Z" transform="translate(180.765 134.029)" fill="#1ba44b"/>
    </g>
  </g>
</svg>
