<svg id="play-button" xmlns="http://www.w3.org/2000/svg" width="39.874" height="39.874" viewBox="0 0 39.874 39.874">
  <g id="Group_12" data-name="Group 12">
    <g id="Group_11" data-name="Group 11">
      <path id="Path_8" data-name="Path 8" d="M34.034,5.839A19.937,19.937,0,0,0,5.839,34.034,19.945,19.945,0,0,0,30.253,37a1.558,1.558,0,0,0-1.614-2.664,16.971,16.971,0,1,1,5.267-5.063A1.558,1.558,0,1,0,36.5,31,19.888,19.888,0,0,0,34.034,5.839Z" fill="#fff"/>
      <path id="Path_9" data-name="Path 9" d="M172.283,145.752a3.51,3.51,0,0,0-5.268,3.045V159a3.5,3.5,0,0,0,5.268,3.045l8.788-5.1a3.522,3.522,0,0,0,0-6.089Zm7.225,8.494-8.788,5.1a.371.371,0,0,1-.389,0,.385.385,0,0,1-.2-.351V148.8a.385.385,0,0,1,.2-.351.391.391,0,0,1,.194-.055.383.383,0,0,1,.195.056l8.788,5.1a.407.407,0,0,1,0,.7Z" transform="translate(-154.008 -133.959)" fill="#fff"/>
    </g>
  </g>
</svg>
